{"header":{"formatType":1,"trackCount":2,"ticksPerBeat":72},"tracks":[[{"deltaTime":0,"type":"meta","subtype":"setTempo","microsecondsPerBeat":500000},{"deltaTime":0,"type":"meta","subtype":"trackName","text":"Untitled"},{"deltaTime":0,"type":"meta","subtype":"timeSignature","numerator":8,"denominator":4,"metronome":24,"thirtyseconds":8},{"deltaTime":0,"type":"meta","subtype":"keySignature","key":-6,"scale":0},{"deltaTime":0,"channel":0,"type":"channel","subtype":"controller","controllerType":1,"value":1},{"deltaTime":0,"channel":1,"type":"channel","subtype":"programChange","programNumber":0},{"deltaTime":0,"channel":1,"type":"channel","noteNumber":70,"velocity":113,"subtype":"noteOn"},{"deltaTime":36,"channel":1,"type":"channel","subtype":"noteOff","noteNumber":70,"velocity":113},{"deltaTime":0,"channel":1,"type":"channel","noteNumber":65,"velocity":93,"subtype":"noteOn"},{"deltaTime":288,"channel":1,"type":"channel","subtype":"noteOff","noteNumber":65,"velocity":93},{"deltaTime":72,"channel":1,"type":"channel","noteNumber":66,"velocity":64,"subtype":"noteOn"},{"deltaTime":144,"channel":1,"type":"channel","subtype":"noteOff","noteNumber":66,"velocity":64},{"deltaTime":0,"channel":1,"type":"channel","noteNumber":66,"velocity":122,"subtype":"noteOn"},{"deltaTime":18,"channel":1,"type":"channel","subtype":"noteOff","noteNumber":66,"velocity":122},{"deltaTime":0,"channel":1,"type":"channel","noteNumber":61,"velocity":33,"subtype":"noteOn"},{"deltaTime":18,"channel":1,"type":"channel","subtype":"noteOff","noteNumber":61,"velocity":33},{"deltaTime":0,"type":"meta","subtype":"timeSignature","numerator":8,"denominator":4,"metronome":24,"thirtyseconds":8},{"deltaTime":0,"type":"meta","subtype":"keySignature","key":-6,"scale":0},{"deltaTime":0,"channel":1,"type":"channel","noteNumber":65,"velocity":100,"subtype":"noteOn"},{"deltaTime":36,"channel":1,"type":"channel","subtype":"noteOff","noteNumber":65,"velocity":100},{"deltaTime":18,"channel":1,"type":"channel","noteNumber":66,"velocity":33,"subtype":"noteOn"},{"deltaTime":72,"channel":1,"type":"channel","subtype":"noteOff","noteNumber":66,"velocity":33},{"deltaTime":0,"channel":1,"type":"channel","noteNumber":80,"velocity":126,"subtype":"noteOn"},{"deltaTime":288,"channel":1,"type":"channel","subtype":"noteOff","noteNumber":80,"velocity":126},{"deltaTime":0,"channel":1,"type":"channel","noteNumber":77,"velocity":35,"subtype":"noteOn"},{"deltaTime":18,"channel":1,"type":"channel","subtype":"noteOff","noteNumber":77,"velocity":35},{"deltaTime":0,"channel":1,"type":"channel","noteNumber":59,"velocity":49,"subtype":"noteOn"},{"deltaTime":18,"channel":1,"type":"channel","subtype":"noteOff","noteNumber":59,"velocity":49},{"deltaTime":0,"channel":1,"type":"channel","noteNumber":75,"velocity":72,"subtype":"noteOn"},{"deltaTime":36,"channel":1,"type":"channel","subtype":"noteOff","noteNumber":75,"velocity":72},{"deltaTime":72,"channel":1,"type":"channel","noteNumber":73,"velocity":58,"subtype":"noteOn"},{"deltaTime":18,"channel":1,"type":"channel","subtype":"noteOff","noteNumber":73,"velocity":58},{"deltaTime":0,"type":"meta","subtype":"timeSignature","numerator":8,"denominator":4,"metronome":24,"thirtyseconds":8},{"deltaTime":0,"type":"meta","subtype":"keySignature","key":-6,"scale":0},{"deltaTime":0,"channel":1,"type":"channel","noteNumber":82,"velocity":120,"subtype":"noteOn"},{"deltaTime":36,"channel":1,"type":"channel","subtype":"noteOff","noteNumber":82,"velocity":120},{"deltaTime":0,"channel":1,"type":"channel","noteNumber":61,"velocity":52,"subtype":"noteOn"},{"deltaTime":288,"channel":1,"type":"channel","subtype":"noteOff","noteNumber":61,"velocity":52},{"deltaTime":0,"channel":1,"type":"channel","noteNumber":71,"velocity":40,"subtype":"noteOn"},{"deltaTime":72,"channel":1,"type":"channel","subtype":"noteOff","noteNumber":71,"velocity":40},{"deltaTime":36,"channel":1,"type":"channel","noteNumber":61,"velocity":35,"subtype":"noteOn"},{"deltaTime":18,"channel":1,"type":"channel","subtype":"noteOff","noteNumber":61,"velocity":35},{"deltaTime":0,"channel":1,"type":"channel","noteNumber":63,"velocity":88,"subtype":"noteOn"},{"deltaTime":18,"channel":1,"type":"channel","subtype":"noteOff","noteNumber":63,"velocity":88},{"deltaTime":0,"channel":1,"type":"channel","noteNumber":73,"velocity":63,"subtype":"noteOn"},{"deltaTime":18,"channel":1,"type":"channel","subtype":"noteOff","noteNumber":73,"velocity":63},{"deltaTime":0,"channel":1,"type":"channel","noteNumber":82,"velocity":123,"subtype":"noteOn"},{"deltaTime":18,"channel":1,"type":"channel","subtype":"noteOff","noteNumber":82,"velocity":123},{"deltaTime":0,"channel":1,"type":"channel","noteNumber":61,"velocity":54,"subtype":"noteOn"},{"deltaTime":72,"channel":1,"type":"channel","subtype":"noteOff","noteNumber":61,"velocity":54},{"deltaTime":0,"type":"meta","subtype":"timeSignature","numerator":8,"denominator":4,"metronome":24,"thirtyseconds":8},{"deltaTime":0,"type":"meta","subtype":"keySignature","key":-6,"scale":0},{"deltaTime":144,"channel":1,"type":"channel","noteNumber":61,"velocity":39,"subtype":"noteOn"},{"deltaTime":36,"channel":1,"type":"channel","subtype":"noteOff","noteNumber":61,"velocity":39},{"deltaTime":0,"channel":1,"type":"channel","noteNumber":82,"velocity":55,"subtype":"noteOn"},{"deltaTime":144,"channel":1,"type":"channel","subtype":"noteOff","noteNumber":82,"velocity":55},{"deltaTime":0,"channel":1,"type":"channel","noteNumber":82,"velocity":110,"subtype":"noteOn"},{"deltaTime":18,"channel":1,"type":"channel","subtype":"noteOff","noteNumber":82,"velocity":110},{"deltaTime":0,"channel":1,"type":"channel","noteNumber":59,"velocity":76,"subtype":"noteOn"},{"deltaTime":144,"channel":1,"type":"channel","subtype":"noteOff","noteNumber":59,"velocity":76},{"deltaTime":0,"channel":1,"type":"channel","noteNumber":59,"velocity":85,"subtype":"noteOn"},{"deltaTime":72,"channel":1,"type":"channel","subtype":"noteOff","noteNumber":59,"velocity":85},{"deltaTime":0,"channel":1,"type":"channel","noteNumber":68,"velocity":41,"subtype":"noteOn"},{"deltaTime":18,"channel":1,"type":"channel","subtype":"noteOff","noteNumber":68,"velocity":41},{"deltaTime":0,"type":"meta","subtype":"timeSignature","numerator":8,"denominator":4,"metronome":24,"thirtyseconds":8},{"deltaTime":0,"type":"meta","subtype":"keySignature","key":-6,"scale":0},{"deltaTime":0,"channel":1,"type":"channel","noteNumber":82,"velocity":120,"subtype":"noteOn"},{"deltaTime":36,"channel":1,"type":"channel","subtype":"noteOff","noteNumber":82,"velocity":120},{"deltaTime":0,"channel":1,"type":"channel","noteNumber":61,"velocity":52,"subtype":"noteOn"},{"deltaTime":288,"channel":1,"type":"channel","subtype":"noteOff","noteNumber":61,"velocity":52},{"deltaTime":0,"channel":1,"type":"channel","noteNumber":71,"velocity":40,"subtype":"noteOn"},{"deltaTime":72,"channel":1,"type":"channel","subtype":"noteOff","noteNumber":71,"velocity":40},{"deltaTime":36,"channel":1,"type":"channel","noteNumber":61,"velocity":35,"subtype":"noteOn"},{"deltaTime":18,"channel":1,"type":"channel","subtype":"noteOff","noteNumber":61,"velocity":35},{"deltaTime":0,"channel":1,"type":"channel","noteNumber":63,"velocity":88,"subtype":"noteOn"},{"deltaTime":18,"channel":1,"type":"channel","subtype":"noteOff","noteNumber":63,"velocity":88},{"deltaTime":0,"channel":1,"type":"channel","noteNumber":73,"velocity":63,"subtype":"noteOn"},{"deltaTime":18,"channel":1,"type":"channel","subtype":"noteOff","noteNumber":73,"velocity":63},{"deltaTime":0,"channel":1,"type":"channel","noteNumber":82,"velocity":123,"subtype":"noteOn"},{"deltaTime":18,"channel":1,"type":"channel","subtype":"noteOff","noteNumber":82,"velocity":123},{"deltaTime":0,"channel":1,"type":"channel","noteNumber":61,"velocity":54,"subtype":"noteOn"},{"deltaTime":72,"channel":1,"type":"channel","subtype":"noteOff","noteNumber":61,"velocity":54},{"deltaTime":0,"type":"meta","subtype":"timeSignature","numerator":8,"denominator":4,"metronome":24,"thirtyseconds":8},{"deltaTime":0,"type":"meta","subtype":"keySignature","key":-6,"scale":0},{"deltaTime":144,"channel":1,"type":"channel","noteNumber":61,"velocity":39,"subtype":"noteOn"},{"deltaTime":36,"channel":1,"type":"channel","subtype":"noteOff","noteNumber":61,"velocity":39},{"deltaTime":0,"channel":1,"type":"channel","noteNumber":82,"velocity":55,"subtype":"noteOn"},{"deltaTime":144,"channel":1,"type":"channel","subtype":"noteOff","noteNumber":82,"velocity":55},{"deltaTime":0,"channel":1,"type":"channel","noteNumber":82,"velocity":110,"subtype":"noteOn"},{"deltaTime":18,"channel":1,"type":"channel","subtype":"noteOff","noteNumber":82,"velocity":110},{"deltaTime":0,"channel":1,"type":"channel","noteNumber":59,"velocity":76,"subtype":"noteOn"},{"deltaTime":144,"channel":1,"type":"channel","subtype":"noteOff","noteNumber":59,"velocity":76},{"deltaTime":0,"channel":1,"type":"channel","noteNumber":59,"velocity":85,"subtype":"noteOn"},{"deltaTime":72,"channel":1,"type":"channel","subtype":"noteOff","noteNumber":59,"velocity":85},{"deltaTime":0,"channel":1,"type":"channel","noteNumber":68,"velocity":41,"subtype":"noteOn"},{"deltaTime":18,"channel":1,"type":"channel","subtype":"noteOff","noteNumber":68,"velocity":41},{"deltaTime":0,"type":"meta","subtype":"timeSignature","numerator":8,"denominator":4,"metronome":24,"thirtyseconds":8},{"deltaTime":0,"type":"meta","subtype":"keySignature","key":-6,"scale":0},{"deltaTime":0,"channel":1,"type":"channel","noteNumber":70,"velocity":113,"subtype":"noteOn"},{"deltaTime":36,"channel":1,"type":"channel","subtype":"noteOff","noteNumber":70,"velocity":113},{"deltaTime":0,"channel":1,"type":"channel","noteNumber":65,"velocity":93,"subtype":"noteOn"},{"deltaTime":288,"channel":1,"type":"channel","subtype":"noteOff","noteNumber":65,"velocity":93},{"deltaTime":72,"channel":1,"type":"channel","noteNumber":66,"velocity":64,"subtype":"noteOn"},{"deltaTime":144,"channel":1,"type":"channel","subtype":"noteOff","noteNumber":66,"velocity":64},{"deltaTime":0,"channel":1,"type":"channel","noteNumber":66,"velocity":122,"subtype":"noteOn"},{"deltaTime":18,"channel":1,"type":"channel","subtype":"noteOff","noteNumber":66,"velocity":122},{"deltaTime":0,"channel":1,"type":"channel","noteNumber":61,"velocity":33,"subtype":"noteOn"},{"deltaTime":18,"channel":1,"type":"channel","subtype":"noteOff","noteNumber":61,"velocity":33},{"deltaTime":0,"type":"meta","subtype":"timeSignature","numerator":8,"denominator":4,"metronome":24,"thirtyseconds":8},{"deltaTime":0,"type":"meta","subtype":"keySignature","key":-6,"scale":0},{"deltaTime":0,"channel":1,"type":"channel","noteNumber":65,"velocity":100,"subtype":"noteOn"},{"deltaTime":36,"channel":1,"type":"channel","subtype":"noteOff","noteNumber":65,"velocity":100},{"deltaTime":18,"channel":1,"type":"channel","noteNumber":66,"velocity":33,"subtype":"noteOn"},{"deltaTime":72,"channel":1,"type":"channel","subtype":"noteOff","noteNumber":66,"velocity":33},{"deltaTime":0,"channel":1,"type":"channel","noteNumber":80,"velocity":126,"subtype":"noteOn"},{"deltaTime":288,"channel":1,"type":"channel","subtype":"noteOff","noteNumber":80,"velocity":126},{"deltaTime":0,"channel":1,"type":"channel","noteNumber":77,"velocity":35,"subtype":"noteOn"},{"deltaTime":18,"channel":1,"type":"channel","subtype":"noteOff","noteNumber":77,"velocity":35},{"deltaTime":0,"channel":1,"type":"channel","noteNumber":59,"velocity":49,"subtype":"noteOn"},{"deltaTime":18,"channel":1,"type":"channel","subtype":"noteOff","noteNumber":59,"velocity":49},{"deltaTime":0,"channel":1,"type":"channel","noteNumber":75,"velocity":72,"subtype":"noteOn"},{"deltaTime":36,"channel":1,"type":"channel","subtype":"noteOff","noteNumber":75,"velocity":72},{"deltaTime":72,"channel":1,"type":"channel","noteNumber":73,"velocity":58,"subtype":"noteOn"},{"deltaTime":18,"channel":1,"type":"channel","subtype":"noteOff","noteNumber":73,"velocity":58},{"deltaTime":0,"type":"meta","subtype":"timeSignature","numerator":8,"denominator":4,"metronome":24,"thirtyseconds":8},{"deltaTime":0,"type":"meta","subtype":"keySignature","key":-6,"scale":0},{"deltaTime":0,"channel":1,"type":"channel","noteNumber":82,"velocity":120,"subtype":"noteOn"},{"deltaTime":36,"channel":1,"type":"channel","subtype":"noteOff","noteNumber":82,"velocity":120},{"deltaTime":0,"channel":1,"type":"channel","noteNumber":61,"velocity":52,"subtype":"noteOn"},{"deltaTime":288,"channel":1,"type":"channel","subtype":"noteOff","noteNumber":61,"velocity":52},{"deltaTime":0,"channel":1,"type":"channel","noteNumber":71,"velocity":40,"subtype":"noteOn"},{"deltaTime":72,"channel":1,"type":"channel","subtype":"noteOff","noteNumber":71,"velocity":40},{"deltaTime":36,"channel":1,"type":"channel","noteNumber":61,"velocity":35,"subtype":"noteOn"},{"deltaTime":18,"channel":1,"type":"channel","subtype":"noteOff","noteNumber":61,"velocity":35},{"deltaTime":0,"channel":1,"type":"channel","noteNumber":63,"velocity":88,"subtype":"noteOn"},{"deltaTime":18,"channel":1,"type":"channel","subtype":"noteOff","noteNumber":63,"velocity":88},{"deltaTime":0,"channel":1,"type":"channel","noteNumber":73,"velocity":63,"subtype":"noteOn"},{"deltaTime":18,"channel":1,"type":"channel","subtype":"noteOff","noteNumber":73,"velocity":63},{"deltaTime":0,"channel":1,"type":"channel","noteNumber":82,"velocity":123,"subtype":"noteOn"},{"deltaTime":18,"channel":1,"type":"channel","subtype":"noteOff","noteNumber":82,"velocity":123},{"deltaTime":0,"channel":1,"type":"channel","noteNumber":61,"velocity":54,"subtype":"noteOn"},{"deltaTime":72,"channel":1,"type":"channel","subtype":"noteOff","noteNumber":61,"velocity":54},{"deltaTime":0,"type":"meta","subtype":"timeSignature","numerator":8,"denominator":4,"metronome":24,"thirtyseconds":8},{"deltaTime":0,"type":"meta","subtype":"keySignature","key":-6,"scale":0},{"deltaTime":144,"channel":1,"type":"channel","noteNumber":61,"velocity":39,"subtype":"noteOn"},{"deltaTime":36,"channel":1,"type":"channel","subtype":"noteOff","noteNumber":61,"velocity":39},{"deltaTime":0,"channel":1,"type":"channel","noteNumber":82,"velocity":55,"subtype":"noteOn"},{"deltaTime":144,"channel":1,"type":"channel","subtype":"noteOff","noteNumber":82,"velocity":55},{"deltaTime":0,"channel":1,"type":"channel","noteNumber":82,"velocity":110,"subtype":"noteOn"},{"deltaTime":18,"channel":1,"type":"channel","subtype":"noteOff","noteNumber":82,"velocity":110},{"deltaTime":0,"channel":1,"type":"channel","noteNumber":59,"velocity":76,"subtype":"noteOn"},{"deltaTime":144,"channel":1,"type":"channel","subtype":"noteOff","noteNumber":59,"velocity":76},{"deltaTime":0,"channel":1,"type":"channel","noteNumber":59,"velocity":85,"subtype":"noteOn"},{"deltaTime":72,"channel":1,"type":"channel","subtype":"noteOff","noteNumber":59,"velocity":85},{"deltaTime":0,"channel":1,"type":"channel","noteNumber":68,"velocity":41,"subtype":"noteOn"},{"deltaTime":18,"channel":1,"type":"channel","subtype":"noteOff","noteNumber":68,"velocity":41},{"deltaTime":0,"type":"meta","subtype":"timeSignature","numerator":8,"denominator":4,"metronome":24,"thirtyseconds":8},{"deltaTime":0,"type":"meta","subtype":"keySignature","key":-6,"scale":0},{"deltaTime":0,"channel":1,"type":"channel","noteNumber":59,"velocity":112,"subtype":"noteOn"},{"deltaTime":288,"channel":1,"type":"channel","subtype":"noteOff","noteNumber":59,"velocity":112},{"deltaTime":108,"channel":1,"type":"channel","noteNumber":75,"velocity":35,"subtype":"noteOn"},{"deltaTime":72,"channel":1,"type":"channel","subtype":"noteOff","noteNumber":75,"velocity":35},{"deltaTime":0,"channel":1,"type":"channel","noteNumber":77,"velocity":127,"subtype":"noteOn"},{"deltaTime":72,"channel":1,"type":"channel","subtype":"noteOff","noteNumber":77,"velocity":127},{"deltaTime":0,"channel":1,"type":"channel","noteNumber":59,"velocity":67,"subtype":"noteOn"},{"deltaTime":36,"channel":1,"type":"channel","subtype":"noteOff","noteNumber":59,"velocity":67},{"deltaTime":0,"type":"meta","subtype":"timeSignature","numerator":8,"denominator":4,"metronome":24,"thirtyseconds":8},{"deltaTime":0,"type":"meta","subtype":"keySignature","key":-6,"scale":0},{"deltaTime":180,"channel":1,"type":"channel","noteNumber":78,"velocity":63,"subtype":"noteOn"},{"deltaTime":144,"channel":1,"type":"channel","subtype":"noteOff","noteNumber":78,"velocity":63},{"deltaTime":144,"channel":1,"type":"channel","noteNumber":80,"velocity":74,"subtype":"noteOn"},{"deltaTime":18,"channel":1,"type":"channel","subtype":"noteOff","noteNumber":80,"velocity":74},{"deltaTime":0,"channel":1,"type":"channel","noteNumber":77,"velocity":54,"subtype":"noteOn"},{"deltaTime":72,"channel":1,"type":"channel","subtype":"noteOff","noteNumber":77,"velocity":54},{"deltaTime":0,"channel":1,"type":"channel","noteNumber":59,"velocity":92,"subtype":"noteOn"},{"deltaTime":18,"channel":1,"type":"channel","subtype":"noteOff","noteNumber":59,"velocity":92},{"deltaTime":0,"type":"meta","subtype":"timeSignature","numerator":8,"denominator":4,"metronome":24,"thirtyseconds":8},{"deltaTime":0,"type":"meta","subtype":"keySignature","key":-6,"scale":0},{"deltaTime":0,"channel":1,"type":"channel","noteNumber":59,"velocity":112,"subtype":"noteOn"},{"deltaTime":288,"channel":1,"type":"channel","subtype":"noteOff","noteNumber":59,"velocity":112},{"deltaTime":108,"channel":1,"type":"channel","noteNumber":75,"velocity":35,"subtype":"noteOn"},{"deltaTime":72,"channel":1,"type":"channel","subtype":"noteOff","noteNumber":75,"velocity":35},{"deltaTime":0,"channel":1,"type":"channel","noteNumber":77,"velocity":127,"subtype":"noteOn"},{"deltaTime":72,"channel":1,"type":"channel","subtype":"noteOff","noteNumber":77,"velocity":127},{"deltaTime":0,"channel":1,"type":"channel","noteNumber":59,"velocity":67,"subtype":"noteOn"},{"deltaTime":36,"channel":1,"type":"channel","subtype":"noteOff","noteNumber":59,"velocity":67},{"deltaTime":0,"type":"meta","subtype":"timeSignature","numerator":8,"denominator":4,"metronome":24,"thirtyseconds":8},{"deltaTime":0,"type":"meta","subtype":"keySignature","key":-6,"scale":0},{"deltaTime":180,"channel":1,"type":"channel","noteNumber":78,"velocity":63,"subtype":"noteOn"},{"deltaTime":144,"channel":1,"type":"channel","subtype":"noteOff","noteNumber":78,"velocity":63},{"deltaTime":144,"channel":1,"type":"channel","noteNumber":80,"velocity":74,"subtype":"noteOn"},{"deltaTime":18,"channel":1,"type":"channel","subtype":"noteOff","noteNumber":80,"velocity":74},{"deltaTime":0,"channel":1,"type":"channel","noteNumber":77,"velocity":54,"subtype":"noteOn"},{"deltaTime":72,"channel":1,"type":"channel","subtype":"noteOff","noteNumber":77,"velocity":54},{"deltaTime":0,"channel":1,"type":"channel","noteNumber":59,"velocity":92,"subtype":"noteOn"},{"deltaTime":18,"channel":1,"type":"channel","subtype":"noteOff","noteNumber":59,"velocity":92},{"deltaTime":0,"type":"meta","subtype":"timeSignature","numerator":8,"denominator":4,"metronome":24,"thirtyseconds":8},{"deltaTime":0,"type":"meta","subtype":"keySignature","key":-6,"scale":0},{"deltaTime":0,"channel":1,"type":"channel","noteNumber":59,"velocity":112,"subtype":"noteOn"},{"deltaTime":144,"channel":1,"type":"channel","subtype":"noteOff","noteNumber":59,"velocity":112},{"deltaTime":0,"channel":1,"type":"channel","noteNumber":71,"velocity":100,"subtype":"noteOn"},{"deltaTime":72,"channel":1,"type":"channel","subtype":"noteOff","noteNumber":71,"velocity":100},{"deltaTime":36,"channel":1,"type":"channel","noteNumber":80,"velocity":71,"subtype":"noteOn"},{"deltaTime":18,"channel":1,"type":"channel","subtype":"noteOff","noteNumber":80,"velocity":71},{"deltaTime":0,"channel":1,"type":"channel","noteNumber":65,"velocity":122,"subtype":"noteOn"},{"deltaTime":72,"channel":1,"type":"channel","subtype":"noteOff","noteNumber":65,"velocity":122},{"deltaTime":36,"channel":1,"type":"channel","noteNumber":63,"velocity":115,"subtype":"noteOn"},{"deltaTime":72,"channel":1,"type":"channel","subtype":"noteOff","noteNumber":63,"velocity":115},{"deltaTime":0,"channel":1,"type":"channel","noteNumber":78,"velocity":78,"subtype":"noteOn"},{"deltaTime":18,"channel":1,"type":"channel","subtype":"noteOff","noteNumber":78,"velocity":78},{"deltaTime":0,"channel":1,"type":"channel","noteNumber":73,"velocity":76,"subtype":"noteOn"},{"deltaTime":72,"channel":1,"type":"channel","subtype":"noteOff","noteNumber":73,"velocity":76},{"deltaTime":36,"type":"meta","subtype":"timeSignature","numerator":8,"denominator":4,"metronome":24,"thirtyseconds":8},{"deltaTime":0,"type":"meta","subtype":"keySignature","key":-6,"scale":0},{"deltaTime":0,"channel":1,"type":"channel","noteNumber":70,"velocity":118,"subtype":"noteOn"},{"deltaTime":18,"channel":1,"type":"channel","subtype":"noteOff","noteNumber":70,"velocity":118},{"deltaTime":0,"channel":1,"type":"channel","noteNumber":63,"velocity":59,"subtype":"noteOn"},{"deltaTime":288,"channel":1,"type":"channel","subtype":"noteOff","noteNumber":63,"velocity":59},{"deltaTime":0,"channel":1,"type":"channel","noteNumber":77,"velocity":53,"subtype":"noteOn"},{"deltaTime":72,"channel":1,"type":"channel","subtype":"noteOff","noteNumber":77,"velocity":53},{"deltaTime":0,"channel":1,"type":"channel","noteNumber":80,"velocity":56,"subtype":"noteOn"},{"deltaTime":72,"channel":1,"type":"channel","subtype":"noteOff","noteNumber":80,"velocity":56},{"deltaTime":0,"channel":1,"type":"channel","noteNumber":78,"velocity":86,"subtype":"noteOn"},{"deltaTime":72,"channel":1,"type":"channel","subtype":"noteOff","noteNumber":78,"velocity":86},{"deltaTime":18,"channel":1,"type":"channel","noteNumber":68,"velocity":127,"subtype":"noteOn"},{"deltaTime":18,"channel":1,"type":"channel","subtype":"noteOff","noteNumber":68,"velocity":127},{"deltaTime":0,"channel":1,"type":"channel","noteNumber":71,"velocity":46,"subtype":"noteOn"},{"deltaTime":18,"channel":1,"type":"channel","subtype":"noteOff","noteNumber":71,"velocity":46},{"deltaTime":0,"type":"meta","subtype":"timeSignature","numerator":8,"denominator":4,"metronome":24,"thirtyseconds":8},{"deltaTime":0,"type":"meta","subtype":"keySignature","key":-6,"scale":0},{"deltaTime":0,"channel":1,"type":"channel","noteNumber":68,"velocity":116,"subtype":"noteOn"},{"deltaTime":18,"channel":1,"type":"channel","subtype":"noteOff","noteNumber":68,"velocity":116},{"deltaTime":36,"channel":1,"type":"channel","noteNumber":75,"velocity":68,"subtype":"noteOn"},{"deltaTime":288,"channel":1,"type":"channel","subtype":"noteOff","noteNumber":75,"velocity":68},{"deltaTime":0,"channel":1,"type":"channel","noteNumber":66,"velocity":49,"subtype":"noteOn"},{"deltaTime":72,"channel":1,"type":"channel","subtype":"noteOff","noteNumber":66,"velocity":49},{"deltaTime":0,"channel":1,"type":"channel","noteNumber":59,"velocity":110,"subtype":"noteOn"},{"deltaTime":72,"channel":1,"type":"channel","subtype":"noteOff","noteNumber":59,"velocity":110},{"deltaTime":0,"channel":1,"type":"channel","noteNumber":73,"velocity":119,"subtype":"noteOn"},{"deltaTime":18,"channel":1,"type":"channel","subtype":"noteOff","noteNumber":73,"velocity":119},{"deltaTime":0,"channel":1,"type":"channel","noteNumber":71,"velocity":54,"subtype":"noteOn"},{"deltaTime":72,"channel":1,"type":"channel","subtype":"noteOff","noteNumber":71,"velocity":54},{"deltaTime":0,"type":"meta","subtype":"timeSignature","numerator":8,"denominator":4,"metronome":24,"thirtyseconds":8},{"deltaTime":0,"type":"meta","subtype":"keySignature","key":-6,"scale":0},{"deltaTime":0,"channel":1,"type":"channel","noteNumber":65,"velocity":49,"subtype":"noteOn"},{"deltaTime":18,"channel":1,"type":"channel","subtype":"noteOff","noteNumber":65,"velocity":49},{"deltaTime":0,"channel":1,"type":"channel","noteNumber":68,"velocity":127,"subtype":"noteOn"},{"deltaTime":18,"channel":1,"type":"channel","subtype":"noteOff","noteNumber":68,"velocity":127},{"deltaTime":0,"channel":1,"type":"channel","noteNumber":66,"velocity":54,"subtype":"noteOn"},{"deltaTime":144,"channel":1,"type":"channel","subtype":"noteOff","noteNumber":66,"velocity":54},{"deltaTime":0,"channel":1,"type":"channel","noteNumber":75,"velocity":34,"subtype":"noteOn"},{"deltaTime":72,"channel":1,"type":"channel","subtype":"noteOff","noteNumber":75,"velocity":34},{"deltaTime":0,"channel":1,"type":"channel","noteNumber":78,"velocity":53,"subtype":"noteOn"},{"deltaTime":144,"channel":1,"type":"channel","subtype":"noteOff","noteNumber":78,"velocity":53},{"deltaTime":0,"channel":1,"type":"channel","noteNumber":75,"velocity":97,"subtype":"noteOn"},{"deltaTime":18,"channel":1,"type":"channel","subtype":"noteOff","noteNumber":75,"velocity":97},{"deltaTime":36,"channel":1,"type":"channel","noteNumber":77,"velocity":101,"subtype":"noteOn"},{"deltaTime":18,"channel":1,"type":"channel","subtype":"noteOff","noteNumber":77,"velocity":101},{"deltaTime":0,"channel":1,"type":"channel","noteNumber":77,"velocity":61,"subtype":"noteOn"},{"deltaTime":72,"channel":1,"type":"channel","subtype":"noteOff","noteNumber":77,"velocity":61},{"deltaTime":0,"channel":1,"type":"channel","noteNumber":70,"velocity":76,"subtype":"noteOn"},{"deltaTime":36,"channel":1,"type":"channel","subtype":"noteOff","noteNumber":70,"velocity":76},{"deltaTime":0,"type":"meta","subtype":"timeSignature","numerator":8,"denominator":4,"metronome":24,"thirtyseconds":8},{"deltaTime":0,"type":"meta","subtype":"keySignature","key":-6,"scale":0},{"deltaTime":0,"channel":1,"type":"channel","noteNumber":68,"velocity":116,"subtype":"noteOn"},{"deltaTime":18,"channel":1,"type":"channel","subtype":"noteOff","noteNumber":68,"velocity":116},{"deltaTime":36,"channel":1,"type":"channel","noteNumber":75,"velocity":68,"subtype":"noteOn"},{"deltaTime":288,"channel":1,"type":"channel","subtype":"noteOff","noteNumber":75,"velocity":68},{"deltaTime":0,"channel":1,"type":"channel","noteNumber":66,"velocity":49,"subtype":"noteOn"},{"deltaTime":72,"channel":1,"type":"channel","subtype":"noteOff","noteNumber":66,"velocity":49},{"deltaTime":0,"channel":1,"type":"channel","noteNumber":59,"velocity":110,"subtype":"noteOn"},{"deltaTime":72,"channel":1,"type":"channel","subtype":"noteOff","noteNumber":59,"velocity":110},{"deltaTime":0,"channel":1,"type":"channel","noteNumber":73,"velocity":119,"subtype":"noteOn"},{"deltaTime":18,"channel":1,"type":"channel","subtype":"noteOff","noteNumber":73,"velocity":119},{"deltaTime":0,"channel":1,"type":"channel","noteNumber":71,"velocity":54,"subtype":"noteOn"},{"deltaTime":72,"channel":1,"type":"channel","subtype":"noteOff","noteNumber":71,"velocity":54},{"deltaTime":0,"type":"meta","subtype":"timeSignature","numerator":8,"denominator":4,"metronome":24,"thirtyseconds":8},{"deltaTime":0,"type":"meta","subtype":"keySignature","key":-6,"scale":0},{"deltaTime":0,"channel":1,"type":"channel","noteNumber":65,"velocity":49,"subtype":"noteOn"},{"deltaTime":18,"channel":1,"type":"channel","subtype":"noteOff","noteNumber":65,"velocity":49},{"deltaTime":0,"channel":1,"type":"channel","noteNumber":68,"velocity":127,"subtype":"noteOn"},{"deltaTime":18,"channel":1,"type":"channel","subtype":"noteOff","noteNumber":68,"velocity":127},{"deltaTime":0,"channel":1,"type":"channel","noteNumber":66,"velocity":54,"subtype":"noteOn"},{"deltaTime":144,"channel":1,"type":"channel","subtype":"noteOff","noteNumber":66,"velocity":54},{"deltaTime":0,"channel":1,"type":"channel","noteNumber":75,"velocity":34,"subtype":"noteOn"},{"deltaTime":72,"channel":1,"type":"channel","subtype":"noteOff","noteNumber":75,"velocity":34},{"deltaTime":0,"channel":1,"type":"channel","noteNumber":78,"velocity":53,"subtype":"noteOn"},{"deltaTime":144,"channel":1,"type":"channel","subtype":"noteOff","noteNumber":78,"velocity":53},{"deltaTime":0,"channel":1,"type":"channel","noteNumber":75,"velocity":97,"subtype":"noteOn"},{"deltaTime":18,"channel":1,"type":"channel","subtype":"noteOff","noteNumber":75,"velocity":97},{"deltaTime":36,"channel":1,"type":"channel","noteNumber":77,"velocity":101,"subtype":"noteOn"},{"deltaTime":18,"channel":1,"type":"channel","subtype":"noteOff","noteNumber":77,"velocity":101},{"deltaTime":0,"channel":1,"type":"channel","noteNumber":77,"velocity":61,"subtype":"noteOn"},{"deltaTime":72,"channel":1,"type":"channel","subtype":"noteOff","noteNumber":77,"velocity":61},{"deltaTime":0,"channel":1,"type":"channel","noteNumber":70,"velocity":76,"subtype":"noteOn"},{"deltaTime":36,"channel":1,"type":"channel","subtype":"noteOff","noteNumber":70,"velocity":76},{"deltaTime":0,"type":"meta","subtype":"timeSignature","numerator":8,"denominator":4,"metronome":24,"thirtyseconds":8},{"deltaTime":0,"type":"meta","subtype":"keySignature","key":-6,"scale":0},{"deltaTime":0,"channel":1,"type":"channel","noteNumber":68,"velocity":116,"subtype":"noteOn"},{"deltaTime":18,"channel":1,"type":"channel","subtype":"noteOff","noteNumber":68,"velocity":116},{"deltaTime":36,"channel":1,"type":"channel","noteNumber":75,"velocity":68,"subtype":"noteOn"},{"deltaTime":288,"channel":1,"type":"channel","subtype":"noteOff","noteNumber":75,"velocity":68},{"deltaTime":0,"channel":1,"type":"channel","noteNumber":66,"velocity":49,"subtype":"noteOn"},{"deltaTime":72,"channel":1,"type":"channel","subtype":"noteOff","noteNumber":66,"velocity":49},{"deltaTime":0,"channel":1,"type":"channel","noteNumber":59,"velocity":110,"subtype":"noteOn"},{"deltaTime":72,"channel":1,"type":"channel","subtype":"noteOff","noteNumber":59,"velocity":110},{"deltaTime":0,"channel":1,"type":"channel","noteNumber":73,"velocity":119,"subtype":"noteOn"},{"deltaTime":18,"channel":1,"type":"channel","subtype":"noteOff","noteNumber":73,"velocity":119},{"deltaTime":0,"channel":1,"type":"channel","noteNumber":71,"velocity":54,"subtype":"noteOn"},{"deltaTime":72,"channel":1,"type":"channel","subtype":"noteOff","noteNumber":71,"velocity":54},{"deltaTime":0,"type":"meta","subtype":"timeSignature","numerator":8,"denominator":4,"metronome":24,"thirtyseconds":8},{"deltaTime":0,"type":"meta","subtype":"keySignature","key":-6,"scale":0},{"deltaTime":0,"channel":1,"type":"channel","noteNumber":65,"velocity":49,"subtype":"noteOn"},{"deltaTime":18,"channel":1,"type":"channel","subtype":"noteOff","noteNumber":65,"velocity":49},{"deltaTime":0,"channel":1,"type":"channel","noteNumber":68,"velocity":127,"subtype":"noteOn"},{"deltaTime":18,"channel":1,"type":"channel","subtype":"noteOff","noteNumber":68,"velocity":127},{"deltaTime":0,"channel":1,"type":"channel","noteNumber":66,"velocity":54,"subtype":"noteOn"},{"deltaTime":144,"channel":1,"type":"channel","subtype":"noteOff","noteNumber":66,"velocity":54},{"deltaTime":0,"channel":1,"type":"channel","noteNumber":75,"velocity":34,"subtype":"noteOn"},{"deltaTime":72,"channel":1,"type":"channel","subtype":"noteOff","noteNumber":75,"velocity":34},{"deltaTime":0,"channel":1,"type":"channel","noteNumber":78,"velocity":53,"subtype":"noteOn"},{"deltaTime":144,"channel":1,"type":"channel","subtype":"noteOff","noteNumber":78,"velocity":53},{"deltaTime":0,"channel":1,"type":"channel","noteNumber":75,"velocity":97,"subtype":"noteOn"},{"deltaTime":18,"channel":1,"type":"channel","subtype":"noteOff","noteNumber":75,"velocity":97},{"deltaTime":36,"channel":1,"type":"channel","noteNumber":77,"velocity":101,"subtype":"noteOn"},{"deltaTime":18,"channel":1,"type":"channel","subtype":"noteOff","noteNumber":77,"velocity":101},{"deltaTime":0,"channel":1,"type":"channel","noteNumber":77,"velocity":61,"subtype":"noteOn"},{"deltaTime":72,"channel":1,"type":"channel","subtype":"noteOff","noteNumber":77,"velocity":61},{"deltaTime":0,"channel":1,"type":"channel","noteNumber":70,"velocity":76,"subtype":"noteOn"},{"deltaTime":36,"channel":1,"type":"channel","subtype":"noteOff","noteNumber":70,"velocity":76},{"deltaTime":0,"type":"meta","subtype":"timeSignature","numerator":8,"denominator":4,"metronome":24,"thirtyseconds":8},{"deltaTime":0,"type":"meta","subtype":"keySignature","key":-6,"scale":0},{"deltaTime":0,"channel":1,"type":"channel","noteNumber":59,"velocity":112,"subtype":"noteOn"},{"deltaTime":144,"channel":1,"type":"channel","subtype":"noteOff","noteNumber":59,"velocity":112},{"deltaTime":0,"channel":1,"type":"channel","noteNumber":71,"velocity":100,"subtype":"noteOn"},{"deltaTime":72,"channel":1,"type":"channel","subtype":"noteOff","noteNumber":71,"velocity":100},{"deltaTime":36,"channel":1,"type":"channel","noteNumber":80,"velocity":71,"subtype":"noteOn"},{"deltaTime":18,"channel":1,"type":"channel","subtype":"noteOff","noteNumber":80,"velocity":71},{"deltaTime":0,"channel":1,"type":"channel","noteNumber":65,"velocity":122,"subtype":"noteOn"},{"deltaTime":72,"channel":1,"type":"channel","subtype":"noteOff","noteNumber":65,"velocity":122},{"deltaTime":36,"channel":1,"type":"channel","noteNumber":63,"velocity":115,"subtype":"noteOn"},{"deltaTime":72,"channel":1,"type":"channel","subtype":"noteOff","noteNumber":63,"velocity":115},{"deltaTime":0,"channel":1,"type":"channel","noteNumber":78,"velocity":78,"subtype":"noteOn"},{"deltaTime":18,"channel":1,"type":"channel","subtype":"noteOff","noteNumber":78,"velocity":78},{"deltaTime":0,"channel":1,"type":"channel","noteNumber":73,"velocity":76,"subtype":"noteOn"},{"deltaTime":72,"channel":1,"type":"channel","subtype":"noteOff","noteNumber":73,"velocity":76},{"deltaTime":36,"type":"meta","subtype":"timeSignature","numerator":8,"denominator":4,"metronome":24,"thirtyseconds":8},{"deltaTime":0,"type":"meta","subtype":"keySignature","key":-6,"scale":0},{"deltaTime":0,"channel":1,"type":"channel","noteNumber":70,"velocity":118,"subtype":"noteOn"},{"deltaTime":18,"channel":1,"type":"channel","subtype":"noteOff","noteNumber":70,"velocity":118},{"deltaTime":0,"channel":1,"type":"channel","noteNumber":63,"velocity":59,"subtype":"noteOn"},{"deltaTime":288,"channel":1,"type":"channel","subtype":"noteOff","noteNumber":63,"velocity":59},{"deltaTime":0,"channel":1,"type":"channel","noteNumber":77,"velocity":53,"subtype":"noteOn"},{"deltaTime":72,"channel":1,"type":"channel","subtype":"noteOff","noteNumber":77,"velocity":53},{"deltaTime":0,"channel":1,"type":"channel","noteNumber":80,"velocity":56,"subtype":"noteOn"},{"deltaTime":72,"channel":1,"type":"channel","subtype":"noteOff","noteNumber":80,"velocity":56},{"deltaTime":0,"channel":1,"type":"channel","noteNumber":78,"velocity":86,"subtype":"noteOn"},{"deltaTime":72,"channel":1,"type":"channel","subtype":"noteOff","noteNumber":78,"velocity":86},{"deltaTime":18,"channel":1,"type":"channel","noteNumber":68,"velocity":127,"subtype":"noteOn"},{"deltaTime":18,"channel":1,"type":"channel","subtype":"noteOff","noteNumber":68,"velocity":127},{"deltaTime":0,"channel":1,"type":"channel","noteNumber":71,"velocity":46,"subtype":"noteOn"},{"deltaTime":18,"channel":1,"type":"channel","subtype":"noteOff","noteNumber":71,"velocity":46},{"deltaTime":0,"type":"meta","subtype":"timeSignature","numerator":8,"denominator":4,"metronome":24,"thirtyseconds":8},{"deltaTime":0,"type":"meta","subtype":"keySignature","key":-6,"scale":0},{"deltaTime":0,"channel":1,"type":"channel","noteNumber":70,"velocity":113,"subtype":"noteOn"},{"deltaTime":36,"channel":1,"type":"channel","subtype":"noteOff","noteNumber":70,"velocity":113},{"deltaTime":0,"channel":1,"type":"channel","noteNumber":65,"velocity":93,"subtype":"noteOn"},{"deltaTime":288,"channel":1,"type":"channel","subtype":"noteOff","noteNumber":65,"velocity":93},{"deltaTime":72,"channel":1,"type":"channel","noteNumber":66,"velocity":64,"subtype":"noteOn"},{"deltaTime":144,"channel":1,"type":"channel","subtype":"noteOff","noteNumber":66,"velocity":64},{"deltaTime":0,"channel":1,"type":"channel","noteNumber":66,"velocity":122,"subtype":"noteOn"},{"deltaTime":18,"channel":1,"type":"channel","subtype":"noteOff","noteNumber":66,"velocity":122},{"deltaTime":0,"channel":1,"type":"channel","noteNumber":61,"velocity":33,"subtype":"noteOn"},{"deltaTime":18,"channel":1,"type":"channel","subtype":"noteOff","noteNumber":61,"velocity":33},{"deltaTime":0,"type":"meta","subtype":"timeSignature","numerator":8,"denominator":4,"metronome":24,"thirtyseconds":8},{"deltaTime":0,"type":"meta","subtype":"keySignature","key":-6,"scale":0},{"deltaTime":0,"channel":1,"type":"channel","noteNumber":65,"velocity":100,"subtype":"noteOn"},{"deltaTime":36,"channel":1,"type":"channel","subtype":"noteOff","noteNumber":65,"velocity":100},{"deltaTime":18,"channel":1,"type":"channel","noteNumber":66,"velocity":33,"subtype":"noteOn"},{"deltaTime":72,"channel":1,"type":"channel","subtype":"noteOff","noteNumber":66,"velocity":33},{"deltaTime":0,"channel":1,"type":"channel","noteNumber":80,"velocity":126,"subtype":"noteOn"},{"deltaTime":288,"channel":1,"type":"channel","subtype":"noteOff","noteNumber":80,"velocity":126},{"deltaTime":0,"channel":1,"type":"channel","noteNumber":77,"velocity":35,"subtype":"noteOn"},{"deltaTime":18,"channel":1,"type":"channel","subtype":"noteOff","noteNumber":77,"velocity":35},{"deltaTime":0,"channel":1,"type":"channel","noteNumber":59,"velocity":49,"subtype":"noteOn"},{"deltaTime":18,"channel":1,"type":"channel","subtype":"noteOff","noteNumber":59,"velocity":49},{"deltaTime":0,"channel":1,"type":"channel","noteNumber":75,"velocity":72,"subtype":"noteOn"},{"deltaTime":36,"channel":1,"type":"channel","subtype":"noteOff","noteNumber":75,"velocity":72},{"deltaTime":72,"channel":1,"type":"channel","noteNumber":73,"velocity":58,"subtype":"noteOn"},{"deltaTime":18,"channel":1,"type":"channel","subtype":"noteOff","noteNumber":73,"velocity":58},{"deltaTime":0,"type":"meta","subtype":"timeSignature","numerator":8,"denominator":4,"metronome":24,"thirtyseconds":8},{"deltaTime":0,"type":"meta","subtype":"keySignature","key":-6,"scale":0},{"deltaTime":0,"channel":1,"type":"channel","noteNumber":82,"velocity":120,"subtype":"noteOn"},{"deltaTime":36,"channel":1,"type":"channel","subtype":"noteOff","noteNumber":82,"velocity":120},{"deltaTime":0,"channel":1,"type":"channel","noteNumber":61,"velocity":52,"subtype":"noteOn"},{"deltaTime":288,"channel":1,"type":"channel","subtype":"noteOff","noteNumber":61,"velocity":52},{"deltaTime":0,"channel":1,"type":"channel","noteNumber":71,"velocity":40,"subtype":"noteOn"},{"deltaTime":72,"channel":1,"type":"channel","subtype":"noteOff","noteNumber":71,"velocity":40},{"deltaTime":36,"channel":1,"type":"channel","noteNumber":61,"velocity":35,"subtype":"noteOn"},{"deltaTime":18,"channel":1,"type":"channel","subtype":"noteOff","noteNumber":61,"velocity":35},{"deltaTime":0,"channel":1,"type":"channel","noteNumber":63,"velocity":88,"subtype":"noteOn"},{"deltaTime":18,"channel":1,"type":"channel","subtype":"noteOff","noteNumber":63,"velocity":88},{"deltaTime":0,"channel":1,"type":"channel","noteNumber":73,"velocity":63,"subtype":"noteOn"},{"deltaTime":18,"channel":1,"type":"channel","subtype":"noteOff","noteNumber":73,"velocity":63},{"deltaTime":0,"channel":1,"type":"channel","noteNumber":82,"velocity":123,"subtype":"noteOn"},{"deltaTime":18,"channel":1,"type":"channel","subtype":"noteOff","noteNumber":82,"velocity":123},{"deltaTime":0,"channel":1,"type":"channel","noteNumber":61,"velocity":54,"subtype":"noteOn"},{"deltaTime":72,"channel":1,"type":"channel","subtype":"noteOff","noteNumber":61,"velocity":54},{"deltaTime":0,"type":"meta","subtype":"timeSignature","numerator":8,"denominator":4,"metronome":24,"thirtyseconds":8},{"deltaTime":0,"type":"meta","subtype":"keySignature","key":-6,"scale":0},{"deltaTime":144,"channel":1,"type":"channel","noteNumber":61,"velocity":39,"subtype":"noteOn"},{"deltaTime":36,"channel":1,"type":"channel","subtype":"noteOff","noteNumber":61,"velocity":39},{"deltaTime":0,"channel":1,"type":"channel","noteNumber":82,"velocity":55,"subtype":"noteOn"},{"deltaTime":144,"channel":1,"type":"channel","subtype":"noteOff","noteNumber":82,"velocity":55},{"deltaTime":0,"channel":1,"type":"channel","noteNumber":82,"velocity":110,"subtype":"noteOn"},{"deltaTime":18,"channel":1,"type":"channel","subtype":"noteOff","noteNumber":82,"velocity":110},{"deltaTime":0,"channel":1,"type":"channel","noteNumber":59,"velocity":76,"subtype":"noteOn"},{"deltaTime":144,"channel":1,"type":"channel","subtype":"noteOff","noteNumber":59,"velocity":76},{"deltaTime":0,"channel":1,"type":"channel","noteNumber":59,"velocity":85,"subtype":"noteOn"},{"deltaTime":72,"channel":1,"type":"channel","subtype":"noteOff","noteNumber":59,"velocity":85},{"deltaTime":0,"channel":1,"type":"channel","noteNumber":68,"velocity":41,"subtype":"noteOn"},{"deltaTime":18,"channel":1,"type":"channel","subtype":"noteOff","noteNumber":68,"velocity":41},{"deltaTime":0,"type":"meta","subtype":"timeSignature","numerator":8,"denominator":4,"metronome":24,"thirtyseconds":8},{"deltaTime":0,"type":"meta","subtype":"keySignature","key":-6,"scale":0},{"deltaTime":0,"channel":1,"type":"channel","noteNumber":82,"velocity":120,"subtype":"noteOn"},{"deltaTime":36,"channel":1,"type":"channel","subtype":"noteOff","noteNumber":82,"velocity":120},{"deltaTime":0,"channel":1,"type":"channel","noteNumber":61,"velocity":52,"subtype":"noteOn"},{"deltaTime":288,"channel":1,"type":"channel","subtype":"noteOff","noteNumber":61,"velocity":52},{"deltaTime":0,"channel":1,"type":"channel","noteNumber":71,"velocity":40,"subtype":"noteOn"},{"deltaTime":72,"channel":1,"type":"channel","subtype":"noteOff","noteNumber":71,"velocity":40},{"deltaTime":36,"channel":1,"type":"channel","noteNumber":61,"velocity":35,"subtype":"noteOn"},{"deltaTime":18,"channel":1,"type":"channel","subtype":"noteOff","noteNumber":61,"velocity":35},{"deltaTime":0,"channel":1,"type":"channel","noteNumber":63,"velocity":88,"subtype":"noteOn"},{"deltaTime":18,"channel":1,"type":"channel","subtype":"noteOff","noteNumber":63,"velocity":88},{"deltaTime":0,"channel":1,"type":"channel","noteNumber":73,"velocity":63,"subtype":"noteOn"},{"deltaTime":18,"channel":1,"type":"channel","subtype":"noteOff","noteNumber":73,"velocity":63},{"deltaTime":0,"channel":1,"type":"channel","noteNumber":82,"velocity":123,"subtype":"noteOn"},{"deltaTime":18,"channel":1,"type":"channel","subtype":"noteOff","noteNumber":82,"velocity":123},{"deltaTime":0,"channel":1,"type":"channel","noteNumber":61,"velocity":54,"subtype":"noteOn"},{"deltaTime":72,"channel":1,"type":"channel","subtype":"noteOff","noteNumber":61,"velocity":54},{"deltaTime":0,"type":"meta","subtype":"timeSignature","numerator":8,"denominator":4,"metronome":24,"thirtyseconds":8},{"deltaTime":0,"type":"meta","subtype":"keySignature","key":-6,"scale":0},{"deltaTime":144,"channel":1,"type":"channel","noteNumber":61,"velocity":39,"subtype":"noteOn"},{"deltaTime":36,"channel":1,"type":"channel","subtype":"noteOff","noteNumber":61,"velocity":39},{"deltaTime":0,"channel":1,"type":"channel","noteNumber":82,"velocity":55,"subtype":"noteOn"},{"deltaTime":144,"channel":1,"type":"channel","subtype":"noteOff","noteNumber":82,"velocity":55},{"deltaTime":0,"channel":1,"type":"channel","noteNumber":82,"velocity":110,"subtype":"noteOn"},{"deltaTime":18,"channel":1,"type":"channel","subtype":"noteOff","noteNumber":82,"velocity":110},{"deltaTime":0,"channel":1,"type":"channel","noteNumber":59,"velocity":76,"subtype":"noteOn"},{"deltaTime":144,"channel":1,"type":"channel","subtype":"noteOff","noteNumber":59,"velocity":76},{"deltaTime":0,"channel":1,"type":"channel","noteNumber":59,"velocity":85,"subtype":"noteOn"},{"deltaTime":72,"channel":1,"type":"channel","subtype":"noteOff","noteNumber":59,"velocity":85},{"deltaTime":0,"channel":1,"type":"channel","noteNumber":68,"velocity":41,"subtype":"noteOn"},{"deltaTime":18,"channel":1,"type":"channel","subtype":"noteOff","noteNumber":68,"velocity":41},{"deltaTime":0,"type":"meta","subtype":"timeSignature","numerator":8,"denominator":4,"metronome":24,"thirtyseconds":8},{"deltaTime":0,"type":"meta","subtype":"keySignature","key":-6,"scale":0},{"deltaTime":0,"channel":1,"type":"channel","noteNumber":70,"velocity":113,"subtype":"noteOn"},{"deltaTime":36,"channel":1,"type":"channel","subtype":"noteOff","noteNumber":70,"velocity":113},{"deltaTime":0,"channel":1,"type":"channel","noteNumber":65,"velocity":93,"subtype":"noteOn"},{"deltaTime":288,"channel":1,"type":"channel","subtype":"noteOff","noteNumber":65,"velocity":93},{"deltaTime":72,"channel":1,"type":"channel","noteNumber":66,"velocity":64,"subtype":"noteOn"},{"deltaTime":144,"channel":1,"type":"channel","subtype":"noteOff","noteNumber":66,"velocity":64},{"deltaTime":0,"channel":1,"type":"channel","noteNumber":66,"velocity":122,"subtype":"noteOn"},{"deltaTime":18,"channel":1,"type":"channel","subtype":"noteOff","noteNumber":66,"velocity":122},{"deltaTime":0,"channel":1,"type":"channel","noteNumber":61,"velocity":33,"subtype":"noteOn"},{"deltaTime":18,"channel":1,"type":"channel","subtype":"noteOff","noteNumber":61,"velocity":33},{"deltaTime":0,"type":"meta","subtype":"timeSignature","numerator":8,"denominator":4,"metronome":24,"thirtyseconds":8},{"deltaTime":0,"type":"meta","subtype":"keySignature","key":-6,"scale":0},{"deltaTime":0,"channel":1,"type":"channel","noteNumber":65,"velocity":100,"subtype":"noteOn"},{"deltaTime":36,"channel":1,"type":"channel","subtype":"noteOff","noteNumber":65,"velocity":100},{"deltaTime":18,"channel":1,"type":"channel","noteNumber":66,"velocity":33,"subtype":"noteOn"},{"deltaTime":72,"channel":1,"type":"channel","subtype":"noteOff","noteNumber":66,"velocity":33},{"deltaTime":0,"channel":1,"type":"channel","noteNumber":80,"velocity":126,"subtype":"noteOn"},{"deltaTime":288,"channel":1,"type":"channel","subtype":"noteOff","noteNumber":80,"velocity":126},{"deltaTime":0,"channel":1,"type":"channel","noteNumber":77,"velocity":35,"subtype":"noteOn"},{"deltaTime":18,"channel":1,"type":"channel","subtype":"noteOff","noteNumber":77,"velocity":35},{"deltaTime":0,"channel":1,"type":"channel","noteNumber":59,"velocity":49,"subtype":"noteOn"},{"deltaTime":18,"channel":1,"type":"channel","subtype":"noteOff","noteNumber":59,"velocity":49},{"deltaTime":0,"channel":1,"type":"channel","noteNumber":75,"velocity":72,"subtype":"noteOn"},{"deltaTime":36,"channel":1,"type":"channel","subtype":"noteOff","noteNumber":75,"velocity":72},{"deltaTime":72,"channel":1,"type":"channel","noteNumber":73,"velocity":58,"subtype":"noteOn"},{"deltaTime":18,"channel":1,"type":"channel","subtype":"noteOff","noteNumber":73,"velocity":58},{"deltaTime":0,"type":"meta","subtype":"timeSignature","numerator":8,"denominator":4,"metronome":24,"thirtyseconds":8},{"deltaTime":0,"type":"meta","subtype":"keySignature","key":-6,"scale":0},{"deltaTime":0,"channel":1,"type":"channel","noteNumber":82,"velocity":120,"subtype":"noteOn"},{"deltaTime":36,"channel":1,"type":"channel","subtype":"noteOff","noteNumber":82,"velocity":120},{"deltaTime":0,"channel":1,"type":"channel","noteNumber":61,"velocity":52,"subtype":"noteOn"},{"deltaTime":288,"channel":1,"type":"channel","subtype":"noteOff","noteNumber":61,"velocity":52},{"deltaTime":0,"channel":1,"type":"channel","noteNumber":71,"velocity":40,"subtype":"noteOn"},{"deltaTime":72,"channel":1,"type":"channel","subtype":"noteOff","noteNumber":71,"velocity":40},{"deltaTime":36,"channel":1,"type":"channel","noteNumber":61,"velocity":35,"subtype":"noteOn"},{"deltaTime":18,"channel":1,"type":"channel","subtype":"noteOff","noteNumber":61,"velocity":35},{"deltaTime":0,"channel":1,"type":"channel","noteNumber":63,"velocity":88,"subtype":"noteOn"},{"deltaTime":18,"channel":1,"type":"channel","subtype":"noteOff","noteNumber":63,"velocity":88},{"deltaTime":0,"channel":1,"type":"channel","noteNumber":73,"velocity":63,"subtype":"noteOn"},{"deltaTime":18,"channel":1,"type":"channel","subtype":"noteOff","noteNumber":73,"velocity":63},{"deltaTime":0,"channel":1,"type":"channel","noteNumber":82,"velocity":123,"subtype":"noteOn"},{"deltaTime":18,"channel":1,"type":"channel","subtype":"noteOff","noteNumber":82,"velocity":123},{"deltaTime":0,"channel":1,"type":"channel","noteNumber":61,"velocity":54,"subtype":"noteOn"},{"deltaTime":72,"channel":1,"type":"channel","subtype":"noteOff","noteNumber":61,"velocity":54},{"deltaTime":0,"type":"meta","subtype":"timeSignature","numerator":8,"denominator":4,"metronome":24,"thirtyseconds":8},{"deltaTime":0,"type":"meta","subtype":"keySignature","key":-6,"scale":0},{"deltaTime":144,"channel":1,"type":"channel","noteNumber":61,"velocity":39,"subtype":"noteOn"},{"deltaTime":36,"channel":1,"type":"channel","subtype":"noteOff","noteNumber":61,"velocity":39},{"deltaTime":0,"channel":1,"type":"channel","noteNumber":82,"velocity":55,"subtype":"noteOn"},{"deltaTime":144,"channel":1,"type":"channel","subtype":"noteOff","noteNumber":82,"velocity":55},{"deltaTime":0,"channel":1,"type":"channel","noteNumber":82,"velocity":110,"subtype":"noteOn"},{"deltaTime":18,"channel":1,"type":"channel","subtype":"noteOff","noteNumber":82,"velocity":110},{"deltaTime":0,"channel":1,"type":"channel","noteNumber":59,"velocity":76,"subtype":"noteOn"},{"deltaTime":144,"channel":1,"type":"channel","subtype":"noteOff","noteNumber":59,"velocity":76},{"deltaTime":0,"channel":1,"type":"channel","noteNumber":59,"velocity":85,"subtype":"noteOn"},{"deltaTime":72,"channel":1,"type":"channel","subtype":"noteOff","noteNumber":59,"velocity":85},{"deltaTime":0,"channel":1,"type":"channel","noteNumber":68,"velocity":41,"subtype":"noteOn"},{"deltaTime":18,"channel":1,"type":"channel","subtype":"noteOff","noteNumber":68,"velocity":41},{"deltaTime":0,"type":"meta","subtype":"timeSignature","numerator":8,"denominator":4,"metronome":24,"thirtyseconds":8},{"deltaTime":0,"type":"meta","subtype":"keySignature","key":-6,"scale":0},{"deltaTime":0,"channel":1,"type":"channel","noteNumber":59,"velocity":112,"subtype":"noteOn"},{"deltaTime":288,"channel":1,"type":"channel","subtype":"noteOff","noteNumber":59,"velocity":112},{"deltaTime":108,"channel":1,"type":"channel","noteNumber":75,"velocity":35,"subtype":"noteOn"},{"deltaTime":72,"channel":1,"type":"channel","subtype":"noteOff","noteNumber":75,"velocity":35},{"deltaTime":0,"channel":1,"type":"channel","noteNumber":77,"velocity":127,"subtype":"noteOn"},{"deltaTime":72,"channel":1,"type":"channel","subtype":"noteOff","noteNumber":77,"velocity":127},{"deltaTime":0,"channel":1,"type":"channel","noteNumber":59,"velocity":67,"subtype":"noteOn"},{"deltaTime":36,"channel":1,"type":"channel","subtype":"noteOff","noteNumber":59,"velocity":67},{"deltaTime":0,"type":"meta","subtype":"timeSignature","numerator":8,"denominator":4,"metronome":24,"thirtyseconds":8},{"deltaTime":0,"type":"meta","subtype":"keySignature","key":-6,"scale":0},{"deltaTime":180,"channel":1,"type":"channel","noteNumber":78,"velocity":63,"subtype":"noteOn"},{"deltaTime":144,"channel":1,"type":"channel","subtype":"noteOff","noteNumber":78,"velocity":63},{"deltaTime":144,"channel":1,"type":"channel","noteNumber":80,"velocity":74,"subtype":"noteOn"},{"deltaTime":18,"channel":1,"type":"channel","subtype":"noteOff","noteNumber":80,"velocity":74},{"deltaTime":0,"channel":1,"type":"channel","noteNumber":77,"velocity":54,"subtype":"noteOn"},{"deltaTime":72,"channel":1,"type":"channel","subtype":"noteOff","noteNumber":77,"velocity":54},{"deltaTime":0,"channel":1,"type":"channel","noteNumber":59,"velocity":92,"subtype":"noteOn"},{"deltaTime":18,"channel":1,"type":"channel","subtype":"noteOff","noteNumber":59,"velocity":92},{"deltaTime":0,"type":"meta","subtype":"timeSignature","numerator":8,"denominator":4,"metronome":24,"thirtyseconds":8},{"deltaTime":0,"type":"meta","subtype":"keySignature","key":-6,"scale":0},{"deltaTime":0,"channel":1,"type":"channel","noteNumber":59,"velocity":112,"subtype":"noteOn"},{"deltaTime":288,"channel":1,"type":"channel","subtype":"noteOff","noteNumber":59,"velocity":112},{"deltaTime":108,"channel":1,"type":"channel","noteNumber":75,"velocity":35,"subtype":"noteOn"},{"deltaTime":72,"channel":1,"type":"channel","subtype":"noteOff","noteNumber":75,"velocity":35},{"deltaTime":0,"channel":1,"type":"channel","noteNumber":77,"velocity":127,"subtype":"noteOn"},{"deltaTime":72,"channel":1,"type":"channel","subtype":"noteOff","noteNumber":77,"velocity":127},{"deltaTime":0,"channel":1,"type":"channel","noteNumber":59,"velocity":67,"subtype":"noteOn"},{"deltaTime":36,"channel":1,"type":"channel","subtype":"noteOff","noteNumber":59,"velocity":67},{"deltaTime":0,"type":"meta","subtype":"timeSignature","numerator":8,"denominator":4,"metronome":24,"thirtyseconds":8},{"deltaTime":0,"type":"meta","subtype":"keySignature","key":-6,"scale":0},{"deltaTime":180,"channel":1,"type":"channel","noteNumber":78,"velocity":63,"subtype":"noteOn"},{"deltaTime":144,"channel":1,"type":"channel","subtype":"noteOff","noteNumber":78,"velocity":63},{"deltaTime":144,"channel":1,"type":"channel","noteNumber":80,"velocity":74,"subtype":"noteOn"},{"deltaTime":18,"channel":1,"type":"channel","subtype":"noteOff","noteNumber":80,"velocity":74},{"deltaTime":0,"channel":1,"type":"channel","noteNumber":77,"velocity":54,"subtype":"noteOn"},{"deltaTime":72,"channel":1,"type":"channel","subtype":"noteOff","noteNumber":77,"velocity":54},{"deltaTime":0,"channel":1,"type":"channel","noteNumber":59,"velocity":92,"subtype":"noteOn"},{"deltaTime":18,"channel":1,"type":"channel","subtype":"noteOff","noteNumber":59,"velocity":92},{"deltaTime":0,"type":"meta","subtype":"timeSignature","numerator":8,"denominator":4,"metronome":24,"thirtyseconds":8},{"deltaTime":0,"type":"meta","subtype":"keySignature","key":-6,"scale":0},{"deltaTime":0,"channel":1,"type":"channel","noteNumber":59,"velocity":112,"subtype":"noteOn"},{"deltaTime":144,"channel":1,"type":"channel","subtype":"noteOff","noteNumber":59,"velocity":112},{"deltaTime":0,"channel":1,"type":"channel","noteNumber":71,"velocity":100,"subtype":"noteOn"},{"deltaTime":72,"channel":1,"type":"channel","subtype":"noteOff","noteNumber":71,"velocity":100},{"deltaTime":36,"channel":1,"type":"channel","noteNumber":80,"velocity":71,"subtype":"noteOn"},{"deltaTime":18,"channel":1,"type":"channel","subtype":"noteOff","noteNumber":80,"velocity":71},{"deltaTime":0,"channel":1,"type":"channel","noteNumber":65,"velocity":122,"subtype":"noteOn"},{"deltaTime":72,"channel":1,"type":"channel","subtype":"noteOff","noteNumber":65,"velocity":122},{"deltaTime":36,"channel":1,"type":"channel","noteNumber":63,"velocity":115,"subtype":"noteOn"},{"deltaTime":72,"channel":1,"type":"channel","subtype":"noteOff","noteNumber":63,"velocity":115},{"deltaTime":0,"channel":1,"type":"channel","noteNumber":78,"velocity":78,"subtype":"noteOn"},{"deltaTime":18,"channel":1,"type":"channel","subtype":"noteOff","noteNumber":78,"velocity":78},{"deltaTime":0,"channel":1,"type":"channel","noteNumber":73,"velocity":76,"subtype":"noteOn"},{"deltaTime":72,"channel":1,"type":"channel","subtype":"noteOff","noteNumber":73,"velocity":76},{"deltaTime":36,"type":"meta","subtype":"timeSignature","numerator":8,"denominator":4,"metronome":24,"thirtyseconds":8},{"deltaTime":0,"type":"meta","subtype":"keySignature","key":-6,"scale":0},{"deltaTime":0,"channel":1,"type":"channel","noteNumber":70,"velocity":118,"subtype":"noteOn"},{"deltaTime":18,"channel":1,"type":"channel","subtype":"noteOff","noteNumber":70,"velocity":118},{"deltaTime":0,"channel":1,"type":"channel","noteNumber":63,"velocity":59,"subtype":"noteOn"},{"deltaTime":288,"channel":1,"type":"channel","subtype":"noteOff","noteNumber":63,"velocity":59},{"deltaTime":0,"channel":1,"type":"channel","noteNumber":77,"velocity":53,"subtype":"noteOn"},{"deltaTime":72,"channel":1,"type":"channel","subtype":"noteOff","noteNumber":77,"velocity":53},{"deltaTime":0,"channel":1,"type":"channel","noteNumber":80,"velocity":56,"subtype":"noteOn"},{"deltaTime":72,"channel":1,"type":"channel","subtype":"noteOff","noteNumber":80,"velocity":56},{"deltaTime":0,"channel":1,"type":"channel","noteNumber":78,"velocity":86,"subtype":"noteOn"},{"deltaTime":72,"channel":1,"type":"channel","subtype":"noteOff","noteNumber":78,"velocity":86},{"deltaTime":18,"channel":1,"type":"channel","noteNumber":68,"velocity":127,"subtype":"noteOn"},{"deltaTime":18,"channel":1,"type":"channel","subtype":"noteOff","noteNumber":68,"velocity":127},{"deltaTime":0,"channel":1,"type":"channel","noteNumber":71,"velocity":46,"subtype":"noteOn"},{"deltaTime":18,"channel":1,"type":"channel","subtype":"noteOff","noteNumber":71,"velocity":46},{"deltaTime":0,"type":"meta","subtype":"timeSignature","numerator":8,"denominator":4,"metronome":24,"thirtyseconds":8},{"deltaTime":0,"type":"meta","subtype":"keySignature","key":-6,"scale":0},{"deltaTime":0,"channel":1,"type":"channel","noteNumber":68,"velocity":116,"subtype":"noteOn"},{"deltaTime":18,"channel":1,"type":"channel","subtype":"noteOff","noteNumber":68,"velocity":116},{"deltaTime":36,"channel":1,"type":"channel","noteNumber":75,"velocity":68,"subtype":"noteOn"},{"deltaTime":288,"channel":1,"type":"channel","subtype":"noteOff","noteNumber":75,"velocity":68},{"deltaTime":0,"channel":1,"type":"channel","noteNumber":66,"velocity":49,"subtype":"noteOn"},{"deltaTime":72,"channel":1,"type":"channel","subtype":"noteOff","noteNumber":66,"velocity":49},{"deltaTime":0,"channel":1,"type":"channel","noteNumber":59,"velocity":110,"subtype":"noteOn"},{"deltaTime":72,"channel":1,"type":"channel","subtype":"noteOff","noteNumber":59,"velocity":110},{"deltaTime":0,"channel":1,"type":"channel","noteNumber":73,"velocity":119,"subtype":"noteOn"},{"deltaTime":18,"channel":1,"type":"channel","subtype":"noteOff","noteNumber":73,"velocity":119},{"deltaTime":0,"channel":1,"type":"channel","noteNumber":71,"velocity":54,"subtype":"noteOn"},{"deltaTime":72,"channel":1,"type":"channel","subtype":"noteOff","noteNumber":71,"velocity":54},{"deltaTime":0,"type":"meta","subtype":"timeSignature","numerator":8,"denominator":4,"metronome":24,"thirtyseconds":8},{"deltaTime":0,"type":"meta","subtype":"keySignature","key":-6,"scale":0},{"deltaTime":0,"channel":1,"type":"channel","noteNumber":65,"velocity":49,"subtype":"noteOn"},{"deltaTime":18,"channel":1,"type":"channel","subtype":"noteOff","noteNumber":65,"velocity":49},{"deltaTime":0,"channel":1,"type":"channel","noteNumber":68,"velocity":127,"subtype":"noteOn"},{"deltaTime":18,"channel":1,"type":"channel","subtype":"noteOff","noteNumber":68,"velocity":127},{"deltaTime":0,"channel":1,"type":"channel","noteNumber":66,"velocity":54,"subtype":"noteOn"},{"deltaTime":144,"channel":1,"type":"channel","subtype":"noteOff","noteNumber":66,"velocity":54},{"deltaTime":0,"channel":1,"type":"channel","noteNumber":75,"velocity":34,"subtype":"noteOn"},{"deltaTime":72,"channel":1,"type":"channel","subtype":"noteOff","noteNumber":75,"velocity":34},{"deltaTime":0,"channel":1,"type":"channel","noteNumber":78,"velocity":53,"subtype":"noteOn"},{"deltaTime":144,"channel":1,"type":"channel","subtype":"noteOff","noteNumber":78,"velocity":53},{"deltaTime":0,"channel":1,"type":"channel","noteNumber":75,"velocity":97,"subtype":"noteOn"},{"deltaTime":18,"channel":1,"type":"channel","subtype":"noteOff","noteNumber":75,"velocity":97},{"deltaTime":36,"channel":1,"type":"channel","noteNumber":77,"velocity":101,"subtype":"noteOn"},{"deltaTime":18,"channel":1,"type":"channel","subtype":"noteOff","noteNumber":77,"velocity":101},{"deltaTime":0,"channel":1,"type":"channel","noteNumber":77,"velocity":61,"subtype":"noteOn"},{"deltaTime":72,"channel":1,"type":"channel","subtype":"noteOff","noteNumber":77,"velocity":61},{"deltaTime":0,"channel":1,"type":"channel","noteNumber":70,"velocity":76,"subtype":"noteOn"},{"deltaTime":36,"channel":1,"type":"channel","subtype":"noteOff","noteNumber":70,"velocity":76},{"deltaTime":0,"type":"meta","subtype":"timeSignature","numerator":8,"denominator":4,"metronome":24,"thirtyseconds":8},{"deltaTime":0,"type":"meta","subtype":"keySignature","key":-6,"scale":0},{"deltaTime":0,"channel":1,"type":"channel","noteNumber":68,"velocity":116,"subtype":"noteOn"},{"deltaTime":18,"channel":1,"type":"channel","subtype":"noteOff","noteNumber":68,"velocity":116},{"deltaTime":36,"channel":1,"type":"channel","noteNumber":75,"velocity":68,"subtype":"noteOn"},{"deltaTime":288,"channel":1,"type":"channel","subtype":"noteOff","noteNumber":75,"velocity":68},{"deltaTime":0,"channel":1,"type":"channel","noteNumber":66,"velocity":49,"subtype":"noteOn"},{"deltaTime":72,"channel":1,"type":"channel","subtype":"noteOff","noteNumber":66,"velocity":49},{"deltaTime":0,"channel":1,"type":"channel","noteNumber":59,"velocity":110,"subtype":"noteOn"},{"deltaTime":72,"channel":1,"type":"channel","subtype":"noteOff","noteNumber":59,"velocity":110},{"deltaTime":0,"channel":1,"type":"channel","noteNumber":73,"velocity":119,"subtype":"noteOn"},{"deltaTime":18,"channel":1,"type":"channel","subtype":"noteOff","noteNumber":73,"velocity":119},{"deltaTime":0,"channel":1,"type":"channel","noteNumber":71,"velocity":54,"subtype":"noteOn"},{"deltaTime":72,"channel":1,"type":"channel","subtype":"noteOff","noteNumber":71,"velocity":54},{"deltaTime":0,"type":"meta","subtype":"timeSignature","numerator":8,"denominator":4,"metronome":24,"thirtyseconds":8},{"deltaTime":0,"type":"meta","subtype":"keySignature","key":-6,"scale":0},{"deltaTime":0,"channel":1,"type":"channel","noteNumber":65,"velocity":49,"subtype":"noteOn"},{"deltaTime":18,"channel":1,"type":"channel","subtype":"noteOff","noteNumber":65,"velocity":49},{"deltaTime":0,"channel":1,"type":"channel","noteNumber":68,"velocity":127,"subtype":"noteOn"},{"deltaTime":18,"channel":1,"type":"channel","subtype":"noteOff","noteNumber":68,"velocity":127},{"deltaTime":0,"channel":1,"type":"channel","noteNumber":66,"velocity":54,"subtype":"noteOn"},{"deltaTime":144,"channel":1,"type":"channel","subtype":"noteOff","noteNumber":66,"velocity":54},{"deltaTime":0,"channel":1,"type":"channel","noteNumber":75,"velocity":34,"subtype":"noteOn"},{"deltaTime":72,"channel":1,"type":"channel","subtype":"noteOff","noteNumber":75,"velocity":34},{"deltaTime":0,"channel":1,"type":"channel","noteNumber":78,"velocity":53,"subtype":"noteOn"},{"deltaTime":144,"channel":1,"type":"channel","subtype":"noteOff","noteNumber":78,"velocity":53},{"deltaTime":0,"channel":1,"type":"channel","noteNumber":75,"velocity":97,"subtype":"noteOn"},{"deltaTime":18,"channel":1,"type":"channel","subtype":"noteOff","noteNumber":75,"velocity":97},{"deltaTime":36,"channel":1,"type":"channel","noteNumber":77,"velocity":101,"subtype":"noteOn"},{"deltaTime":18,"channel":1,"type":"channel","subtype":"noteOff","noteNumber":77,"velocity":101},{"deltaTime":0,"channel":1,"type":"channel","noteNumber":77,"velocity":61,"subtype":"noteOn"},{"deltaTime":72,"channel":1,"type":"channel","subtype":"noteOff","noteNumber":77,"velocity":61},{"deltaTime":0,"channel":1,"type":"channel","noteNumber":70,"velocity":76,"subtype":"noteOn"},{"deltaTime":36,"channel":1,"type":"channel","subtype":"noteOff","noteNumber":70,"velocity":76},{"deltaTime":0,"type":"meta","subtype":"timeSignature","numerator":8,"denominator":4,"metronome":24,"thirtyseconds":8},{"deltaTime":0,"type":"meta","subtype":"keySignature","key":-6,"scale":0},{"deltaTime":0,"channel":1,"type":"channel","noteNumber":68,"velocity":116,"subtype":"noteOn"},{"deltaTime":18,"channel":1,"type":"channel","subtype":"noteOff","noteNumber":68,"velocity":116},{"deltaTime":36,"channel":1,"type":"channel","noteNumber":75,"velocity":68,"subtype":"noteOn"},{"deltaTime":288,"channel":1,"type":"channel","subtype":"noteOff","noteNumber":75,"velocity":68},{"deltaTime":0,"channel":1,"type":"channel","noteNumber":66,"velocity":49,"subtype":"noteOn"},{"deltaTime":72,"channel":1,"type":"channel","subtype":"noteOff","noteNumber":66,"velocity":49},{"deltaTime":0,"channel":1,"type":"channel","noteNumber":59,"velocity":110,"subtype":"noteOn"},{"deltaTime":72,"channel":1,"type":"channel","subtype":"noteOff","noteNumber":59,"velocity":110},{"deltaTime":0,"channel":1,"type":"channel","noteNumber":73,"velocity":119,"subtype":"noteOn"},{"deltaTime":18,"channel":1,"type":"channel","subtype":"noteOff","noteNumber":73,"velocity":119},{"deltaTime":0,"channel":1,"type":"channel","noteNumber":71,"velocity":54,"subtype":"noteOn"},{"deltaTime":72,"channel":1,"type":"channel","subtype":"noteOff","noteNumber":71,"velocity":54},{"deltaTime":0,"type":"meta","subtype":"timeSignature","numerator":8,"denominator":4,"metronome":24,"thirtyseconds":8},{"deltaTime":0,"type":"meta","subtype":"keySignature","key":-6,"scale":0},{"deltaTime":0,"channel":1,"type":"channel","noteNumber":65,"velocity":49,"subtype":"noteOn"},{"deltaTime":18,"channel":1,"type":"channel","subtype":"noteOff","noteNumber":65,"velocity":49},{"deltaTime":0,"channel":1,"type":"channel","noteNumber":68,"velocity":127,"subtype":"noteOn"},{"deltaTime":18,"channel":1,"type":"channel","subtype":"noteOff","noteNumber":68,"velocity":127},{"deltaTime":0,"channel":1,"type":"channel","noteNumber":66,"velocity":54,"subtype":"noteOn"},{"deltaTime":144,"channel":1,"type":"channel","subtype":"noteOff","noteNumber":66,"velocity":54},{"deltaTime":0,"channel":1,"type":"channel","noteNumber":75,"velocity":34,"subtype":"noteOn"},{"deltaTime":72,"channel":1,"type":"channel","subtype":"noteOff","noteNumber":75,"velocity":34},{"deltaTime":0,"channel":1,"type":"channel","noteNumber":78,"velocity":53,"subtype":"noteOn"},{"deltaTime":144,"channel":1,"type":"channel","subtype":"noteOff","noteNumber":78,"velocity":53},{"deltaTime":0,"channel":1,"type":"channel","noteNumber":75,"velocity":97,"subtype":"noteOn"},{"deltaTime":18,"channel":1,"type":"channel","subtype":"noteOff","noteNumber":75,"velocity":97},{"deltaTime":36,"channel":1,"type":"channel","noteNumber":77,"velocity":101,"subtype":"noteOn"},{"deltaTime":18,"channel":1,"type":"channel","subtype":"noteOff","noteNumber":77,"velocity":101},{"deltaTime":0,"channel":1,"type":"channel","noteNumber":77,"velocity":61,"subtype":"noteOn"},{"deltaTime":72,"channel":1,"type":"channel","subtype":"noteOff","noteNumber":77,"velocity":61},{"deltaTime":0,"channel":1,"type":"channel","noteNumber":70,"velocity":76,"subtype":"noteOn"},{"deltaTime":36,"channel":1,"type":"channel","subtype":"noteOff","noteNumber":70,"velocity":76},{"deltaTime":0,"type":"meta","subtype":"timeSignature","numerator":8,"denominator":4,"metronome":24,"thirtyseconds":8},{"deltaTime":0,"type":"meta","subtype":"keySignature","key":-6,"scale":0},{"deltaTime":0,"channel":1,"type":"channel","noteNumber":59,"velocity":112,"subtype":"noteOn"},{"deltaTime":144,"channel":1,"type":"channel","subtype":"noteOff","noteNumber":59,"velocity":112},{"deltaTime":0,"channel":1,"type":"channel","noteNumber":71,"velocity":100,"subtype":"noteOn"},{"deltaTime":72,"channel":1,"type":"channel","subtype":"noteOff","noteNumber":71,"velocity":100},{"deltaTime":36,"channel":1,"type":"channel","noteNumber":80,"velocity":71,"subtype":"noteOn"},{"deltaTime":18,"channel":1,"type":"channel","subtype":"noteOff","noteNumber":80,"velocity":71},{"deltaTime":0,"channel":1,"type":"channel","noteNumber":65,"velocity":122,"subtype":"noteOn"},{"deltaTime":72,"channel":1,"type":"channel","subtype":"noteOff","noteNumber":65,"velocity":122},{"deltaTime":36,"channel":1,"type":"channel","noteNumber":63,"velocity":115,"subtype":"noteOn"},{"deltaTime":72,"channel":1,"type":"channel","subtype":"noteOff","noteNumber":63,"velocity":115},{"deltaTime":0,"channel":1,"type":"channel","noteNumber":78,"velocity":78,"subtype":"noteOn"},{"deltaTime":18,"channel":1,"type":"channel","subtype":"noteOff","noteNumber":78,"velocity":78},{"deltaTime":0,"channel":1,"type":"channel","noteNumber":73,"velocity":76,"subtype":"noteOn"},{"deltaTime":72,"channel":1,"type":"channel","subtype":"noteOff","noteNumber":73,"velocity":76},{"deltaTime":36,"type":"meta","subtype":"timeSignature","numerator":8,"denominator":4,"metronome":24,"thirtyseconds":8},{"deltaTime":0,"type":"meta","subtype":"keySignature","key":-6,"scale":0},{"deltaTime":0,"channel":1,"type":"channel","noteNumber":70,"velocity":118,"subtype":"noteOn"},{"deltaTime":18,"channel":1,"type":"channel","subtype":"noteOff","noteNumber":70,"velocity":118},{"deltaTime":0,"channel":1,"type":"channel","noteNumber":63,"velocity":59,"subtype":"noteOn"},{"deltaTime":288,"channel":1,"type":"channel","subtype":"noteOff","noteNumber":63,"velocity":59},{"deltaTime":0,"channel":1,"type":"channel","noteNumber":77,"velocity":53,"subtype":"noteOn"},{"deltaTime":72,"channel":1,"type":"channel","subtype":"noteOff","noteNumber":77,"velocity":53},{"deltaTime":0,"channel":1,"type":"channel","noteNumber":80,"velocity":56,"subtype":"noteOn"},{"deltaTime":72,"channel":1,"type":"channel","subtype":"noteOff","noteNumber":80,"velocity":56},{"deltaTime":0,"channel":1,"type":"channel","noteNumber":78,"velocity":86,"subtype":"noteOn"},{"deltaTime":72,"channel":1,"type":"channel","subtype":"noteOff","noteNumber":78,"velocity":86},{"deltaTime":18,"channel":1,"type":"channel","noteNumber":68,"velocity":127,"subtype":"noteOn"},{"deltaTime":18,"channel":1,"type":"channel","subtype":"noteOff","noteNumber":68,"velocity":127},{"deltaTime":0,"channel":1,"type":"channel","noteNumber":71,"velocity":46,"subtype":"noteOn"},{"deltaTime":18,"channel":1,"type":"channel","subtype":"noteOff","noteNumber":71,"velocity":46},{"deltaTime":0,"type":"meta","subtype":"endOfTrack"}],[{"deltaTime":0,"type":"meta","subtype":"setTempo","microsecondsPerBeat":500000},{"deltaTime":0,"type":"meta","subtype":"trackName","text":"Untitled"},{"deltaTime":0,"type":"meta","subtype":"timeSignature","numerator":4,"denominator":4,"metronome":24,"thirtyseconds":8},{"deltaTime":0,"type":"meta","subtype":"keySignature","key":-6,"scale":0},{"deltaTime":0,"channel":0,"type":"channel","subtype":"controller","controllerType":1,"value":1},{"deltaTime":0,"channel":1,"type":"channel","subtype":"programChange","programNumber":0},{"deltaTime":0,"channel":1,"type":"channel","noteNumber":49,"velocity":38,"subtype":"noteOn"},{"deltaTime":0,"channel":1,"type":"channel","noteNumber":54,"velocity":37,"subtype":"noteOn"},{"deltaTime":0,"channel":1,"type":"channel","noteNumber":58,"velocity":36,"subtype":"noteOn"},{"deltaTime":288,"channel":1,"type":"channel","subtype":"noteOff","noteNumber":49,"velocity":38},{"deltaTime":0,"channel":1,"type":"channel","subtype":"noteOff","noteNumber":54,"velocity":37},{"deltaTime":0,"channel":1,"type":"channel","subtype":"noteOff","noteNumber":58,"velocity":36},{"deltaTime":0,"type":"meta","subtype":"timeSignature","numerator":4,"denominator":4,"metronome":24,"thirtyseconds":8},{"deltaTime":0,"type":"meta","subtype":"keySignature","key":-6,"scale":0},{"deltaTime":0,"channel":1,"type":"channel","noteNumber":49,"velocity":50,"subtype":"noteOn"},{"deltaTime":0,"channel":1,"type":"channel","noteNumber":54,"velocity":51,"subtype":"noteOn"},{"deltaTime":0,"channel":1,"type":"channel","noteNumber":58,"velocity":64,"subtype":"noteOn"},{"deltaTime":288,"channel":1,"type":"channel","subtype":"noteOff","noteNumber":49,"velocity":50},{"deltaTime":0,"channel":1,"type":"channel","subtype":"noteOff","noteNumber":54,"velocity":51},{"deltaTime":0,"channel":1,"type":"channel","subtype":"noteOff","noteNumber":58,"velocity":64},{"deltaTime":0,"type":"meta","subtype":"timeSignature","numerator":4,"denominator":4,"metronome":24,"thirtyseconds":8},{"deltaTime":0,"type":"meta","subtype":"keySignature","key":-6,"scale":0},{"deltaTime":0,"channel":1,"type":"channel","noteNumber":47,"velocity":64,"subtype":"noteOn"},{"deltaTime":0,"channel":1,"type":"channel","noteNumber":51,"velocity":60,"subtype":"noteOn"},{"deltaTime":0,"channel":1,"type":"channel","noteNumber":54,"velocity":65,"subtype":"noteOn"},{"deltaTime":288,"channel":1,"type":"channel","subtype":"noteOff","noteNumber":47,"velocity":64},{"deltaTime":0,"channel":1,"type":"channel","subtype":"noteOff","noteNumber":51,"velocity":60},{"deltaTime":0,"channel":1,"type":"channel","subtype":"noteOff","noteNumber":54,"velocity":65},{"deltaTime":0,"type":"meta","subtype":"timeSignature","numerator":4,"denominator":4,"metronome":24,"thirtyseconds":8},{"deltaTime":0,"type":"meta","subtype":"keySignature","key":-6,"scale":0},{"deltaTime":0,"channel":1,"type":"channel","noteNumber":47,"velocity":55,"subtype":"noteOn"},{"deltaTime":0,"channel":1,"type":"channel","noteNumber":51,"velocity":54,"subtype":"noteOn"},{"deltaTime":0,"channel":1,"type":"channel","noteNumber":54,"velocity":72,"subtype":"noteOn"},{"deltaTime":0,"channel":1,"type":"channel","noteNumber":58,"velocity":72,"subtype":"noteOn"},{"deltaTime":288,"channel":1,"type":"channel","subtype":"noteOff","noteNumber":47,"velocity":55},{"deltaTime":0,"channel":1,"type":"channel","subtype":"noteOff","noteNumber":51,"velocity":54},{"deltaTime":0,"channel":1,"type":"channel","subtype":"noteOff","noteNumber":54,"velocity":72},{"deltaTime":0,"channel":1,"type":"channel","subtype":"noteOff","noteNumber":58,"velocity":72},{"deltaTime":0,"type":"meta","subtype":"timeSignature","numerator":4,"denominator":4,"metronome":24,"thirtyseconds":8},{"deltaTime":0,"type":"meta","subtype":"keySignature","key":-6,"scale":0},{"deltaTime":0,"channel":1,"type":"channel","noteNumber":47,"velocity":50,"subtype":"noteOn"},{"deltaTime":0,"channel":1,"type":"channel","noteNumber":51,"velocity":46,"subtype":"noteOn"},{"deltaTime":0,"channel":1,"type":"channel","noteNumber":54,"velocity":64,"subtype":"noteOn"},{"deltaTime":0,"channel":1,"type":"channel","noteNumber":58,"velocity":40,"subtype":"noteOn"},{"deltaTime":288,"channel":1,"type":"channel","subtype":"noteOff","noteNumber":47,"velocity":50},{"deltaTime":0,"channel":1,"type":"channel","subtype":"noteOff","noteNumber":51,"velocity":46},{"deltaTime":0,"channel":1,"type":"channel","subtype":"noteOff","noteNumber":54,"velocity":64},{"deltaTime":0,"channel":1,"type":"channel","subtype":"noteOff","noteNumber":58,"velocity":40},{"deltaTime":0,"type":"meta","subtype":"timeSignature","numerator":4,"denominator":4,"metronome":24,"thirtyseconds":8},{"deltaTime":0,"type":"meta","subtype":"keySignature","key":-6,"scale":0},{"deltaTime":0,"channel":1,"type":"channel","noteNumber":49,"velocity":68,"subtype":"noteOn"},{"deltaTime":0,"channel":1,"type":"channel","noteNumber":54,"velocity":66,"subtype":"noteOn"},{"deltaTime":0,"channel":1,"type":"channel","noteNumber":58,"velocity":82,"subtype":"noteOn"},{"deltaTime":288,"channel":1,"type":"channel","subtype":"noteOff","noteNumber":49,"velocity":68},{"deltaTime":0,"channel":1,"type":"channel","subtype":"noteOff","noteNumber":54,"velocity":66},{"deltaTime":0,"channel":1,"type":"channel","subtype":"noteOff","noteNumber":58,"velocity":82},{"deltaTime":0,"type":"meta","subtype":"timeSignature","numerator":4,"denominator":4,"metronome":24,"thirtyseconds":8},{"deltaTime":0,"type":"meta","subtype":"keySignature","key":-6,"scale":0},{"deltaTime":0,"channel":1,"type":"channel","noteNumber":47,"velocity":76,"subtype":"noteOn"},{"deltaTime":0,"channel":1,"type":"channel","noteNumber":51,"velocity":70,"subtype":"noteOn"},{"deltaTime":0,"channel":1,"type":"channel","noteNumber":53,"velocity":48,"subtype":"noteOn"},{"deltaTime":0,"channel":1,"type":"channel","noteNumber":56,"velocity":65,"subtype":"noteOn"},{"deltaTime":288,"channel":1,"type":"channel","subtype":"noteOff","noteNumber":47,"velocity":76},{"deltaTime":0,"channel":1,"type":"channel","subtype":"noteOff","noteNumber":51,"velocity":70},{"deltaTime":0,"channel":1,"type":"channel","subtype":"noteOff","noteNumber":53,"velocity":48},{"deltaTime":0,"channel":1,"type":"channel","subtype":"noteOff","noteNumber":56,"velocity":65},{"deltaTime":0,"type":"meta","subtype":"timeSignature","numerator":4,"denominator":4,"metronome":24,"thirtyseconds":8},{"deltaTime":0,"type":"meta","subtype":"keySignature","key":-6,"scale":0},{"deltaTime":0,"channel":1,"type":"channel","noteNumber":47,"velocity":72,"subtype":"noteOn"},{"deltaTime":0,"channel":1,"type":"channel","noteNumber":51,"velocity":70,"subtype":"noteOn"},{"deltaTime":0,"channel":1,"type":"channel","noteNumber":53,"velocity":53,"subtype":"noteOn"},{"deltaTime":0,"channel":1,"type":"channel","noteNumber":56,"velocity":56,"subtype":"noteOn"},{"deltaTime":288,"channel":1,"type":"channel","subtype":"noteOff","noteNumber":47,"velocity":72},{"deltaTime":0,"channel":1,"type":"channel","subtype":"noteOff","noteNumber":51,"velocity":70},{"deltaTime":0,"channel":1,"type":"channel","subtype":"noteOff","noteNumber":53,"velocity":53},{"deltaTime":0,"channel":1,"type":"channel","subtype":"noteOff","noteNumber":56,"velocity":56},{"deltaTime":0,"type":"meta","subtype":"timeSignature","numerator":4,"denominator":4,"metronome":24,"thirtyseconds":8},{"deltaTime":0,"type":"meta","subtype":"keySignature","key":-6,"scale":0},{"deltaTime":0,"channel":1,"type":"channel","noteNumber":47,"velocity":50,"subtype":"noteOn"},{"deltaTime":0,"channel":1,"type":"channel","noteNumber":51,"velocity":46,"subtype":"noteOn"},{"deltaTime":0,"channel":1,"type":"channel","noteNumber":54,"velocity":64,"subtype":"noteOn"},{"deltaTime":0,"channel":1,"type":"channel","noteNumber":58,"velocity":40,"subtype":"noteOn"},{"deltaTime":288,"channel":1,"type":"channel","subtype":"noteOff","noteNumber":47,"velocity":50},{"deltaTime":0,"channel":1,"type":"channel","subtype":"noteOff","noteNumber":51,"velocity":46},{"deltaTime":0,"channel":1,"type":"channel","subtype":"noteOff","noteNumber":54,"velocity":64},{"deltaTime":0,"channel":1,"type":"channel","subtype":"noteOff","noteNumber":58,"velocity":40},{"deltaTime":0,"type":"meta","subtype":"timeSignature","numerator":4,"denominator":4,"metronome":24,"thirtyseconds":8},{"deltaTime":0,"type":"meta","subtype":"keySignature","key":-6,"scale":0},{"deltaTime":0,"channel":1,"type":"channel","noteNumber":49,"velocity":68,"subtype":"noteOn"},{"deltaTime":0,"channel":1,"type":"channel","noteNumber":54,"velocity":66,"subtype":"noteOn"},{"deltaTime":0,"channel":1,"type":"channel","noteNumber":58,"velocity":82,"subtype":"noteOn"},{"deltaTime":288,"channel":1,"type":"channel","subtype":"noteOff","noteNumber":49,"velocity":68},{"deltaTime":0,"channel":1,"type":"channel","subtype":"noteOff","noteNumber":54,"velocity":66},{"deltaTime":0,"channel":1,"type":"channel","subtype":"noteOff","noteNumber":58,"velocity":82},{"deltaTime":0,"type":"meta","subtype":"timeSignature","numerator":4,"denominator":4,"metronome":24,"thirtyseconds":8},{"deltaTime":0,"type":"meta","subtype":"keySignature","key":-6,"scale":0},{"deltaTime":0,"channel":1,"type":"channel","noteNumber":47,"velocity":76,"subtype":"noteOn"},{"deltaTime":0,"channel":1,"type":"channel","noteNumber":51,"velocity":70,"subtype":"noteOn"},{"deltaTime":0,"channel":1,"type":"channel","noteNumber":53,"velocity":48,"subtype":"noteOn"},{"deltaTime":0,"channel":1,"type":"channel","noteNumber":56,"velocity":65,"subtype":"noteOn"},{"deltaTime":288,"channel":1,"type":"channel","subtype":"noteOff","noteNumber":47,"velocity":76},{"deltaTime":0,"channel":1,"type":"channel","subtype":"noteOff","noteNumber":51,"velocity":70},{"deltaTime":0,"channel":1,"type":"channel","subtype":"noteOff","noteNumber":53,"velocity":48},{"deltaTime":0,"channel":1,"type":"channel","subtype":"noteOff","noteNumber":56,"velocity":65},{"deltaTime":0,"type":"meta","subtype":"timeSignature","numerator":4,"denominator":4,"metronome":24,"thirtyseconds":8},{"deltaTime":0,"type":"meta","subtype":"keySignature","key":-6,"scale":0},{"deltaTime":0,"channel":1,"type":"channel","noteNumber":47,"velocity":72,"subtype":"noteOn"},{"deltaTime":0,"channel":1,"type":"channel","noteNumber":51,"velocity":70,"subtype":"noteOn"},{"deltaTime":0,"channel":1,"type":"channel","noteNumber":53,"velocity":53,"subtype":"noteOn"},{"deltaTime":0,"channel":1,"type":"channel","noteNumber":56,"velocity":56,"subtype":"noteOn"},{"deltaTime":288,"channel":1,"type":"channel","subtype":"noteOff","noteNumber":47,"velocity":72},{"deltaTime":0,"channel":1,"type":"channel","subtype":"noteOff","noteNumber":51,"velocity":70},{"deltaTime":0,"channel":1,"type":"channel","subtype":"noteOff","noteNumber":53,"velocity":53},{"deltaTime":0,"channel":1,"type":"channel","subtype":"noteOff","noteNumber":56,"velocity":56},{"deltaTime":0,"type":"meta","subtype":"timeSignature","numerator":4,"denominator":4,"metronome":24,"thirtyseconds":8},{"deltaTime":0,"type":"meta","subtype":"keySignature","key":-6,"scale":0},{"deltaTime":0,"channel":1,"type":"channel","noteNumber":49,"velocity":38,"subtype":"noteOn"},{"deltaTime":0,"channel":1,"type":"channel","noteNumber":54,"velocity":37,"subtype":"noteOn"},{"deltaTime":0,"channel":1,"type":"channel","noteNumber":58,"velocity":36,"subtype":"noteOn"},{"deltaTime":288,"channel":1,"type":"channel","subtype":"noteOff","noteNumber":49,"velocity":38},{"deltaTime":0,"channel":1,"type":"channel","subtype":"noteOff","noteNumber":54,"velocity":37},{"deltaTime":0,"channel":1,"type":"channel","subtype":"noteOff","noteNumber":58,"velocity":36},{"deltaTime":0,"type":"meta","subtype":"timeSignature","numerator":4,"denominator":4,"metronome":24,"thirtyseconds":8},{"deltaTime":0,"type":"meta","subtype":"keySignature","key":-6,"scale":0},{"deltaTime":0,"channel":1,"type":"channel","noteNumber":49,"velocity":50,"subtype":"noteOn"},{"deltaTime":0,"channel":1,"type":"channel","noteNumber":54,"velocity":51,"subtype":"noteOn"},{"deltaTime":0,"channel":1,"type":"channel","noteNumber":58,"velocity":64,"subtype":"noteOn"},{"deltaTime":288,"channel":1,"type":"channel","subtype":"noteOff","noteNumber":49,"velocity":50},{"deltaTime":0,"channel":1,"type":"channel","subtype":"noteOff","noteNumber":54,"velocity":51},{"deltaTime":0,"channel":1,"type":"channel","subtype":"noteOff","noteNumber":58,"velocity":64},{"deltaTime":0,"type":"meta","subtype":"timeSignature","numerator":4,"denominator":4,"metronome":24,"thirtyseconds":8},{"deltaTime":0,"type":"meta","subtype":"keySignature","key":-6,"scale":0},{"deltaTime":0,"channel":1,"type":"channel","noteNumber":47,"velocity":64,"subtype":"noteOn"},{"deltaTime":0,"channel":1,"type":"channel","noteNumber":51,"velocity":60,"subtype":"noteOn"},{"deltaTime":0,"channel":1,"type":"channel","noteNumber":54,"velocity":65,"subtype":"noteOn"},{"deltaTime":288,"channel":1,"type":"channel","subtype":"noteOff","noteNumber":47,"velocity":64},{"deltaTime":0,"channel":1,"type":"channel","subtype":"noteOff","noteNumber":51,"velocity":60},{"deltaTime":0,"channel":1,"type":"channel","subtype":"noteOff","noteNumber":54,"velocity":65},{"deltaTime":0,"type":"meta","subtype":"timeSignature","numerator":4,"denominator":4,"metronome":24,"thirtyseconds":8},{"deltaTime":0,"type":"meta","subtype":"keySignature","key":-6,"scale":0},{"deltaTime":0,"channel":1,"type":"channel","noteNumber":47,"velocity":55,"subtype":"noteOn"},{"deltaTime":0,"channel":1,"type":"channel","noteNumber":51,"velocity":54,"subtype":"noteOn"},{"deltaTime":0,"channel":1,"type":"channel","noteNumber":54,"velocity":72,"subtype":"noteOn"},{"deltaTime":0,"channel":1,"type":"channel","noteNumber":58,"velocity":72,"subtype":"noteOn"},{"deltaTime":288,"channel":1,"type":"channel","subtype":"noteOff","noteNumber":47,"velocity":55},{"deltaTime":0,"channel":1,"type":"channel","subtype":"noteOff","noteNumber":51,"velocity":54},{"deltaTime":0,"channel":1,"type":"channel","subtype":"noteOff","noteNumber":54,"velocity":72},{"deltaTime":0,"channel":1,"type":"channel","subtype":"noteOff","noteNumber":58,"velocity":72},{"deltaTime":0,"type":"meta","subtype":"timeSignature","numerator":4,"denominator":4,"metronome":24,"thirtyseconds":8},{"deltaTime":0,"type":"meta","subtype":"keySignature","key":-6,"scale":0},{"deltaTime":0,"channel":1,"type":"channel","noteNumber":47,"velocity":50,"subtype":"noteOn"},{"deltaTime":0,"channel":1,"type":"channel","noteNumber":51,"velocity":46,"subtype":"noteOn"},{"deltaTime":0,"channel":1,"type":"channel","noteNumber":54,"velocity":64,"subtype":"noteOn"},{"deltaTime":0,"channel":1,"type":"channel","noteNumber":58,"velocity":40,"subtype":"noteOn"},{"deltaTime":288,"channel":1,"type":"channel","subtype":"noteOff","noteNumber":47,"velocity":50},{"deltaTime":0,"channel":1,"type":"channel","subtype":"noteOff","noteNumber":51,"velocity":46},{"deltaTime":0,"channel":1,"type":"channel","subtype":"noteOff","noteNumber":54,"velocity":64},{"deltaTime":0,"channel":1,"type":"channel","subtype":"noteOff","noteNumber":58,"velocity":40},{"deltaTime":0,"type":"meta","subtype":"timeSignature","numerator":4,"denominator":4,"metronome":24,"thirtyseconds":8},{"deltaTime":0,"type":"meta","subtype":"keySignature","key":-6,"scale":0},{"deltaTime":0,"channel":1,"type":"channel","noteNumber":49,"velocity":68,"subtype":"noteOn"},{"deltaTime":0,"channel":1,"type":"channel","noteNumber":54,"velocity":66,"subtype":"noteOn"},{"deltaTime":0,"channel":1,"type":"channel","noteNumber":58,"velocity":82,"subtype":"noteOn"},{"deltaTime":288,"channel":1,"type":"channel","subtype":"noteOff","noteNumber":49,"velocity":68},{"deltaTime":0,"channel":1,"type":"channel","subtype":"noteOff","noteNumber":54,"velocity":66},{"deltaTime":0,"channel":1,"type":"channel","subtype":"noteOff","noteNumber":58,"velocity":82},{"deltaTime":0,"type":"meta","subtype":"timeSignature","numerator":4,"denominator":4,"metronome":24,"thirtyseconds":8},{"deltaTime":0,"type":"meta","subtype":"keySignature","key":-6,"scale":0},{"deltaTime":0,"channel":1,"type":"channel","noteNumber":47,"velocity":76,"subtype":"noteOn"},{"deltaTime":0,"channel":1,"type":"channel","noteNumber":51,"velocity":70,"subtype":"noteOn"},{"deltaTime":0,"channel":1,"type":"channel","noteNumber":53,"velocity":48,"subtype":"noteOn"},{"deltaTime":0,"channel":1,"type":"channel","noteNumber":56,"velocity":65,"subtype":"noteOn"},{"deltaTime":288,"channel":1,"type":"channel","subtype":"noteOff","noteNumber":47,"velocity":76},{"deltaTime":0,"channel":1,"type":"channel","subtype":"noteOff","noteNumber":51,"velocity":70},{"deltaTime":0,"channel":1,"type":"channel","subtype":"noteOff","noteNumber":53,"velocity":48},{"deltaTime":0,"channel":1,"type":"channel","subtype":"noteOff","noteNumber":56,"velocity":65},{"deltaTime":0,"type":"meta","subtype":"timeSignature","numerator":4,"denominator":4,"metronome":24,"thirtyseconds":8},{"deltaTime":0,"type":"meta","subtype":"keySignature","key":-6,"scale":0},{"deltaTime":0,"channel":1,"type":"channel","noteNumber":47,"velocity":72,"subtype":"noteOn"},{"deltaTime":0,"channel":1,"type":"channel","noteNumber":51,"velocity":70,"subtype":"noteOn"},{"deltaTime":0,"channel":1,"type":"channel","noteNumber":53,"velocity":53,"subtype":"noteOn"},{"deltaTime":0,"channel":1,"type":"channel","noteNumber":56,"velocity":56,"subtype":"noteOn"},{"deltaTime":288,"channel":1,"type":"channel","subtype":"noteOff","noteNumber":47,"velocity":72},{"deltaTime":0,"channel":1,"type":"channel","subtype":"noteOff","noteNumber":51,"velocity":70},{"deltaTime":0,"channel":1,"type":"channel","subtype":"noteOff","noteNumber":53,"velocity":53},{"deltaTime":0,"channel":1,"type":"channel","subtype":"noteOff","noteNumber":56,"velocity":56},{"deltaTime":0,"type":"meta","subtype":"timeSignature","numerator":4,"denominator":4,"metronome":24,"thirtyseconds":8},{"deltaTime":0,"type":"meta","subtype":"keySignature","key":-6,"scale":0},{"deltaTime":0,"channel":1,"type":"channel","noteNumber":47,"velocity":53,"subtype":"noteOn"},{"deltaTime":0,"channel":1,"type":"channel","noteNumber":51,"velocity":74,"subtype":"noteOn"},{"deltaTime":0,"channel":1,"type":"channel","noteNumber":53,"velocity":60,"subtype":"noteOn"},{"deltaTime":0,"channel":1,"type":"channel","noteNumber":56,"velocity":80,"subtype":"noteOn"},{"deltaTime":288,"channel":1,"type":"channel","subtype":"noteOff","noteNumber":47,"velocity":53},{"deltaTime":0,"channel":1,"type":"channel","subtype":"noteOff","noteNumber":51,"velocity":74},{"deltaTime":0,"channel":1,"type":"channel","subtype":"noteOff","noteNumber":53,"velocity":60},{"deltaTime":0,"channel":1,"type":"channel","subtype":"noteOff","noteNumber":56,"velocity":80},{"deltaTime":0,"type":"meta","subtype":"timeSignature","numerator":4,"denominator":4,"metronome":24,"thirtyseconds":8},{"deltaTime":0,"type":"meta","subtype":"keySignature","key":-6,"scale":0},{"deltaTime":0,"channel":1,"type":"channel","noteNumber":47,"velocity":72,"subtype":"noteOn"},{"deltaTime":0,"channel":1,"type":"channel","noteNumber":51,"velocity":73,"subtype":"noteOn"},{"deltaTime":0,"channel":1,"type":"channel","noteNumber":54,"velocity":69,"subtype":"noteOn"},{"deltaTime":0,"channel":1,"type":"channel","noteNumber":58,"velocity":63,"subtype":"noteOn"},{"deltaTime":288,"channel":1,"type":"channel","subtype":"noteOff","noteNumber":47,"velocity":72},{"deltaTime":0,"channel":1,"type":"channel","subtype":"noteOff","noteNumber":51,"velocity":73},{"deltaTime":0,"channel":1,"type":"channel","subtype":"noteOff","noteNumber":54,"velocity":69},{"deltaTime":0,"channel":1,"type":"channel","subtype":"noteOff","noteNumber":58,"velocity":63},{"deltaTime":0,"type":"meta","subtype":"timeSignature","numerator":4,"denominator":4,"metronome":24,"thirtyseconds":8},{"deltaTime":0,"type":"meta","subtype":"keySignature","key":-6,"scale":0},{"deltaTime":0,"channel":1,"type":"channel","noteNumber":47,"velocity":61,"subtype":"noteOn"},{"deltaTime":0,"channel":1,"type":"channel","noteNumber":51,"velocity":71,"subtype":"noteOn"},{"deltaTime":0,"channel":1,"type":"channel","noteNumber":56,"velocity":58,"subtype":"noteOn"},{"deltaTime":288,"channel":1,"type":"channel","subtype":"noteOff","noteNumber":47,"velocity":61},{"deltaTime":0,"channel":1,"type":"channel","subtype":"noteOff","noteNumber":51,"velocity":71},{"deltaTime":0,"channel":1,"type":"channel","subtype":"noteOff","noteNumber":56,"velocity":58},{"deltaTime":0,"type":"meta","subtype":"timeSignature","numerator":4,"denominator":4,"metronome":24,"thirtyseconds":8},{"deltaTime":0,"type":"meta","subtype":"keySignature","key":-6,"scale":0},{"deltaTime":0,"channel":1,"type":"channel","noteNumber":47,"velocity":68,"subtype":"noteOn"},{"deltaTime":0,"channel":1,"type":"channel","noteNumber":51,"velocity":60,"subtype":"noteOn"},{"deltaTime":0,"channel":1,"type":"channel","noteNumber":56,"velocity":71,"subtype":"noteOn"},{"deltaTime":288,"channel":1,"type":"channel","subtype":"noteOff","noteNumber":47,"velocity":68},{"deltaTime":0,"channel":1,"type":"channel","subtype":"noteOff","noteNumber":51,"velocity":60},{"deltaTime":0,"channel":1,"type":"channel","subtype":"noteOff","noteNumber":56,"velocity":71},{"deltaTime":0,"type":"meta","subtype":"timeSignature","numerator":4,"denominator":4,"metronome":24,"thirtyseconds":8},{"deltaTime":0,"type":"meta","subtype":"keySignature","key":-6,"scale":0},{"deltaTime":0,"channel":1,"type":"channel","noteNumber":47,"velocity":53,"subtype":"noteOn"},{"deltaTime":0,"channel":1,"type":"channel","noteNumber":51,"velocity":74,"subtype":"noteOn"},{"deltaTime":0,"channel":1,"type":"channel","noteNumber":53,"velocity":60,"subtype":"noteOn"},{"deltaTime":0,"channel":1,"type":"channel","noteNumber":56,"velocity":80,"subtype":"noteOn"},{"deltaTime":288,"channel":1,"type":"channel","subtype":"noteOff","noteNumber":47,"velocity":53},{"deltaTime":0,"channel":1,"type":"channel","subtype":"noteOff","noteNumber":51,"velocity":74},{"deltaTime":0,"channel":1,"type":"channel","subtype":"noteOff","noteNumber":53,"velocity":60},{"deltaTime":0,"channel":1,"type":"channel","subtype":"noteOff","noteNumber":56,"velocity":80},{"deltaTime":0,"type":"meta","subtype":"timeSignature","numerator":4,"denominator":4,"metronome":24,"thirtyseconds":8},{"deltaTime":0,"type":"meta","subtype":"keySignature","key":-6,"scale":0},{"deltaTime":0,"channel":1,"type":"channel","noteNumber":47,"velocity":72,"subtype":"noteOn"},{"deltaTime":0,"channel":1,"type":"channel","noteNumber":51,"velocity":73,"subtype":"noteOn"},{"deltaTime":0,"channel":1,"type":"channel","noteNumber":54,"velocity":69,"subtype":"noteOn"},{"deltaTime":0,"channel":1,"type":"channel","noteNumber":58,"velocity":63,"subtype":"noteOn"},{"deltaTime":288,"channel":1,"type":"channel","subtype":"noteOff","noteNumber":47,"velocity":72},{"deltaTime":0,"channel":1,"type":"channel","subtype":"noteOff","noteNumber":51,"velocity":73},{"deltaTime":0,"channel":1,"type":"channel","subtype":"noteOff","noteNumber":54,"velocity":69},{"deltaTime":0,"channel":1,"type":"channel","subtype":"noteOff","noteNumber":58,"velocity":63},{"deltaTime":0,"type":"meta","subtype":"timeSignature","numerator":4,"denominator":4,"metronome":24,"thirtyseconds":8},{"deltaTime":0,"type":"meta","subtype":"keySignature","key":-6,"scale":0},{"deltaTime":0,"channel":1,"type":"channel","noteNumber":47,"velocity":61,"subtype":"noteOn"},{"deltaTime":0,"channel":1,"type":"channel","noteNumber":51,"velocity":71,"subtype":"noteOn"},{"deltaTime":0,"channel":1,"type":"channel","noteNumber":56,"velocity":58,"subtype":"noteOn"},{"deltaTime":288,"channel":1,"type":"channel","subtype":"noteOff","noteNumber":47,"velocity":61},{"deltaTime":0,"channel":1,"type":"channel","subtype":"noteOff","noteNumber":51,"velocity":71},{"deltaTime":0,"channel":1,"type":"channel","subtype":"noteOff","noteNumber":56,"velocity":58},{"deltaTime":0,"type":"meta","subtype":"timeSignature","numerator":4,"denominator":4,"metronome":24,"thirtyseconds":8},{"deltaTime":0,"type":"meta","subtype":"keySignature","key":-6,"scale":0},{"deltaTime":0,"channel":1,"type":"channel","noteNumber":47,"velocity":68,"subtype":"noteOn"},{"deltaTime":0,"channel":1,"type":"channel","noteNumber":51,"velocity":60,"subtype":"noteOn"},{"deltaTime":0,"channel":1,"type":"channel","noteNumber":56,"velocity":71,"subtype":"noteOn"},{"deltaTime":288,"channel":1,"type":"channel","subtype":"noteOff","noteNumber":47,"velocity":68},{"deltaTime":0,"channel":1,"type":"channel","subtype":"noteOff","noteNumber":51,"velocity":60},{"deltaTime":0,"channel":1,"type":"channel","subtype":"noteOff","noteNumber":56,"velocity":71},{"deltaTime":0,"type":"meta","subtype":"timeSignature","numerator":4,"denominator":4,"metronome":24,"thirtyseconds":8},{"deltaTime":0,"type":"meta","subtype":"keySignature","key":-6,"scale":0},{"deltaTime":0,"channel":1,"type":"channel","noteNumber":47,"velocity":47,"subtype":"noteOn"},{"deltaTime":0,"channel":1,"type":"channel","noteNumber":51,"velocity":63,"subtype":"noteOn"},{"deltaTime":0,"channel":1,"type":"channel","noteNumber":54,"velocity":53,"subtype":"noteOn"},{"deltaTime":0,"channel":1,"type":"channel","noteNumber":58,"velocity":47,"subtype":"noteOn"},{"deltaTime":288,"channel":1,"type":"channel","subtype":"noteOff","noteNumber":47,"velocity":47},{"deltaTime":0,"channel":1,"type":"channel","subtype":"noteOff","noteNumber":51,"velocity":63},{"deltaTime":0,"channel":1,"type":"channel","subtype":"noteOff","noteNumber":54,"velocity":53},{"deltaTime":0,"channel":1,"type":"channel","subtype":"noteOff","noteNumber":58,"velocity":47},{"deltaTime":0,"type":"meta","subtype":"timeSignature","numerator":4,"denominator":4,"metronome":24,"thirtyseconds":8},{"deltaTime":0,"type":"meta","subtype":"keySignature","key":-6,"scale":0},{"deltaTime":0,"channel":1,"type":"channel","noteNumber":47,"velocity":39,"subtype":"noteOn"},{"deltaTime":0,"channel":1,"type":"channel","noteNumber":51,"velocity":64,"subtype":"noteOn"},{"deltaTime":0,"channel":1,"type":"channel","noteNumber":56,"velocity":58,"subtype":"noteOn"},{"deltaTime":288,"channel":1,"type":"channel","subtype":"noteOff","noteNumber":47,"velocity":39},{"deltaTime":0,"channel":1,"type":"channel","subtype":"noteOff","noteNumber":51,"velocity":64},{"deltaTime":0,"channel":1,"type":"channel","subtype":"noteOff","noteNumber":56,"velocity":58},{"deltaTime":0,"type":"meta","subtype":"timeSignature","numerator":4,"denominator":4,"metronome":24,"thirtyseconds":8},{"deltaTime":0,"type":"meta","subtype":"keySignature","key":-6,"scale":0},{"deltaTime":0,"channel":1,"type":"channel","noteNumber":47,"velocity":87,"subtype":"noteOn"},{"deltaTime":0,"channel":1,"type":"channel","noteNumber":49,"velocity":78,"subtype":"noteOn"},{"deltaTime":0,"channel":1,"type":"channel","noteNumber":53,"velocity":67,"subtype":"noteOn"},{"deltaTime":0,"channel":1,"type":"channel","noteNumber":56,"velocity":67,"subtype":"noteOn"},{"deltaTime":288,"channel":1,"type":"channel","subtype":"noteOff","noteNumber":47,"velocity":87},{"deltaTime":0,"channel":1,"type":"channel","subtype":"noteOff","noteNumber":49,"velocity":78},{"deltaTime":0,"channel":1,"type":"channel","subtype":"noteOff","noteNumber":53,"velocity":67},{"deltaTime":0,"channel":1,"type":"channel","subtype":"noteOff","noteNumber":56,"velocity":67},{"deltaTime":0,"type":"meta","subtype":"timeSignature","numerator":4,"denominator":4,"metronome":24,"thirtyseconds":8},{"deltaTime":0,"type":"meta","subtype":"keySignature","key":-6,"scale":0},{"deltaTime":0,"channel":1,"type":"channel","noteNumber":47,"velocity":90,"subtype":"noteOn"},{"deltaTime":0,"channel":1,"type":"channel","noteNumber":51,"velocity":71,"subtype":"noteOn"},{"deltaTime":0,"channel":1,"type":"channel","noteNumber":53,"velocity":68,"subtype":"noteOn"},{"deltaTime":0,"channel":1,"type":"channel","noteNumber":56,"velocity":74,"subtype":"noteOn"},{"deltaTime":288,"channel":1,"type":"channel","subtype":"noteOff","noteNumber":47,"velocity":90},{"deltaTime":0,"channel":1,"type":"channel","subtype":"noteOff","noteNumber":51,"velocity":71},{"deltaTime":0,"channel":1,"type":"channel","subtype":"noteOff","noteNumber":53,"velocity":68},{"deltaTime":0,"channel":1,"type":"channel","subtype":"noteOff","noteNumber":56,"velocity":74},{"deltaTime":0,"type":"meta","subtype":"timeSignature","numerator":4,"denominator":4,"metronome":24,"thirtyseconds":8},{"deltaTime":0,"type":"meta","subtype":"keySignature","key":-6,"scale":0},{"deltaTime":0,"channel":1,"type":"channel","noteNumber":51,"velocity":65,"subtype":"noteOn"},{"deltaTime":0,"channel":1,"type":"channel","noteNumber":54,"velocity":56,"subtype":"noteOn"},{"deltaTime":0,"channel":1,"type":"channel","noteNumber":58,"velocity":82,"subtype":"noteOn"},{"deltaTime":288,"channel":1,"type":"channel","subtype":"noteOff","noteNumber":51,"velocity":65},{"deltaTime":0,"channel":1,"type":"channel","subtype":"noteOff","noteNumber":54,"velocity":56},{"deltaTime":0,"channel":1,"type":"channel","subtype":"noteOff","noteNumber":58,"velocity":82},{"deltaTime":0,"type":"meta","subtype":"timeSignature","numerator":4,"denominator":4,"metronome":24,"thirtyseconds":8},{"deltaTime":0,"type":"meta","subtype":"keySignature","key":-6,"scale":0},{"deltaTime":0,"channel":1,"type":"channel","noteNumber":49,"velocity":63,"subtype":"noteOn"},{"deltaTime":0,"channel":1,"type":"channel","noteNumber":53,"velocity":42,"subtype":"noteOn"},{"deltaTime":0,"channel":1,"type":"channel","noteNumber":56,"velocity":41,"subtype":"noteOn"},{"deltaTime":288,"channel":1,"type":"channel","subtype":"noteOff","noteNumber":49,"velocity":63},{"deltaTime":0,"channel":1,"type":"channel","subtype":"noteOff","noteNumber":53,"velocity":42},{"deltaTime":0,"channel":1,"type":"channel","subtype":"noteOff","noteNumber":56,"velocity":41},{"deltaTime":0,"type":"meta","subtype":"timeSignature","numerator":4,"denominator":4,"metronome":24,"thirtyseconds":8},{"deltaTime":0,"type":"meta","subtype":"keySignature","key":-6,"scale":0},{"deltaTime":0,"channel":1,"type":"channel","noteNumber":47,"velocity":82,"subtype":"noteOn"},{"deltaTime":0,"channel":1,"type":"channel","noteNumber":53,"velocity":65,"subtype":"noteOn"},{"deltaTime":0,"channel":1,"type":"channel","noteNumber":56,"velocity":58,"subtype":"noteOn"},{"deltaTime":288,"channel":1,"type":"channel","subtype":"noteOff","noteNumber":47,"velocity":82},{"deltaTime":0,"channel":1,"type":"channel","subtype":"noteOff","noteNumber":53,"velocity":65},{"deltaTime":0,"channel":1,"type":"channel","subtype":"noteOff","noteNumber":56,"velocity":58},{"deltaTime":0,"type":"meta","subtype":"timeSignature","numerator":4,"denominator":4,"metronome":24,"thirtyseconds":8},{"deltaTime":0,"type":"meta","subtype":"keySignature","key":-6,"scale":0},{"deltaTime":0,"channel":1,"type":"channel","noteNumber":49,"velocity":63,"subtype":"noteOn"},{"deltaTime":0,"channel":1,"type":"channel","noteNumber":53,"velocity":59,"subtype":"noteOn"},{"deltaTime":0,"channel":1,"type":"channel","noteNumber":58,"velocity":66,"subtype":"noteOn"},{"deltaTime":288,"channel":1,"type":"channel","subtype":"noteOff","noteNumber":49,"velocity":63},{"deltaTime":0,"channel":1,"type":"channel","subtype":"noteOff","noteNumber":53,"velocity":59},{"deltaTime":0,"channel":1,"type":"channel","subtype":"noteOff","noteNumber":58,"velocity":66},{"deltaTime":0,"type":"meta","subtype":"timeSignature","numerator":4,"denominator":4,"metronome":24,"thirtyseconds":8},{"deltaTime":0,"type":"meta","subtype":"keySignature","key":-6,"scale":0},{"deltaTime":0,"channel":1,"type":"channel","noteNumber":51,"velocity":65,"subtype":"noteOn"},{"deltaTime":0,"channel":1,"type":"channel","noteNumber":54,"velocity":56,"subtype":"noteOn"},{"deltaTime":0,"channel":1,"type":"channel","noteNumber":58,"velocity":82,"subtype":"noteOn"},{"deltaTime":288,"channel":1,"type":"channel","subtype":"noteOff","noteNumber":51,"velocity":65},{"deltaTime":0,"channel":1,"type":"channel","subtype":"noteOff","noteNumber":54,"velocity":56},{"deltaTime":0,"channel":1,"type":"channel","subtype":"noteOff","noteNumber":58,"velocity":82},{"deltaTime":0,"type":"meta","subtype":"timeSignature","numerator":4,"denominator":4,"metronome":24,"thirtyseconds":8},{"deltaTime":0,"type":"meta","subtype":"keySignature","key":-6,"scale":0},{"deltaTime":0,"channel":1,"type":"channel","noteNumber":49,"velocity":63,"subtype":"noteOn"},{"deltaTime":0,"channel":1,"type":"channel","noteNumber":53,"velocity":42,"subtype":"noteOn"},{"deltaTime":0,"channel":1,"type":"channel","noteNumber":56,"velocity":41,"subtype":"noteOn"},{"deltaTime":288,"channel":1,"type":"channel","subtype":"noteOff","noteNumber":49,"velocity":63},{"deltaTime":0,"channel":1,"type":"channel","subtype":"noteOff","noteNumber":53,"velocity":42},{"deltaTime":0,"channel":1,"type":"channel","subtype":"noteOff","noteNumber":56,"velocity":41},{"deltaTime":0,"type":"meta","subtype":"timeSignature","numerator":4,"denominator":4,"metronome":24,"thirtyseconds":8},{"deltaTime":0,"type":"meta","subtype":"keySignature","key":-6,"scale":0},{"deltaTime":0,"channel":1,"type":"channel","noteNumber":47,"velocity":82,"subtype":"noteOn"},{"deltaTime":0,"channel":1,"type":"channel","noteNumber":53,"velocity":65,"subtype":"noteOn"},{"deltaTime":0,"channel":1,"type":"channel","noteNumber":56,"velocity":58,"subtype":"noteOn"},{"deltaTime":288,"channel":1,"type":"channel","subtype":"noteOff","noteNumber":47,"velocity":82},{"deltaTime":0,"channel":1,"type":"channel","subtype":"noteOff","noteNumber":53,"velocity":65},{"deltaTime":0,"channel":1,"type":"channel","subtype":"noteOff","noteNumber":56,"velocity":58},{"deltaTime":0,"type":"meta","subtype":"timeSignature","numerator":4,"denominator":4,"metronome":24,"thirtyseconds":8},{"deltaTime":0,"type":"meta","subtype":"keySignature","key":-6,"scale":0},{"deltaTime":0,"channel":1,"type":"channel","noteNumber":49,"velocity":63,"subtype":"noteOn"},{"deltaTime":0,"channel":1,"type":"channel","noteNumber":53,"velocity":59,"subtype":"noteOn"},{"deltaTime":0,"channel":1,"type":"channel","noteNumber":58,"velocity":66,"subtype":"noteOn"},{"deltaTime":288,"channel":1,"type":"channel","subtype":"noteOff","noteNumber":49,"velocity":63},{"deltaTime":0,"channel":1,"type":"channel","subtype":"noteOff","noteNumber":53,"velocity":59},{"deltaTime":0,"channel":1,"type":"channel","subtype":"noteOff","noteNumber":58,"velocity":66},{"deltaTime":0,"type":"meta","subtype":"timeSignature","numerator":4,"denominator":4,"metronome":24,"thirtyseconds":8},{"deltaTime":0,"type":"meta","subtype":"keySignature","key":-6,"scale":0},{"deltaTime":0,"channel":1,"type":"channel","noteNumber":51,"velocity":65,"subtype":"noteOn"},{"deltaTime":0,"channel":1,"type":"channel","noteNumber":54,"velocity":56,"subtype":"noteOn"},{"deltaTime":0,"channel":1,"type":"channel","noteNumber":58,"velocity":82,"subtype":"noteOn"},{"deltaTime":288,"channel":1,"type":"channel","subtype":"noteOff","noteNumber":51,"velocity":65},{"deltaTime":0,"channel":1,"type":"channel","subtype":"noteOff","noteNumber":54,"velocity":56},{"deltaTime":0,"channel":1,"type":"channel","subtype":"noteOff","noteNumber":58,"velocity":82},{"deltaTime":0,"type":"meta","subtype":"timeSignature","numerator":4,"denominator":4,"metronome":24,"thirtyseconds":8},{"deltaTime":0,"type":"meta","subtype":"keySignature","key":-6,"scale":0},{"deltaTime":0,"channel":1,"type":"channel","noteNumber":49,"velocity":63,"subtype":"noteOn"},{"deltaTime":0,"channel":1,"type":"channel","noteNumber":53,"velocity":42,"subtype":"noteOn"},{"deltaTime":0,"channel":1,"type":"channel","noteNumber":56,"velocity":41,"subtype":"noteOn"},{"deltaTime":288,"channel":1,"type":"channel","subtype":"noteOff","noteNumber":49,"velocity":63},{"deltaTime":0,"channel":1,"type":"channel","subtype":"noteOff","noteNumber":53,"velocity":42},{"deltaTime":0,"channel":1,"type":"channel","subtype":"noteOff","noteNumber":56,"velocity":41},{"deltaTime":0,"type":"meta","subtype":"timeSignature","numerator":4,"denominator":4,"metronome":24,"thirtyseconds":8},{"deltaTime":0,"type":"meta","subtype":"keySignature","key":-6,"scale":0},{"deltaTime":0,"channel":1,"type":"channel","noteNumber":47,"velocity":82,"subtype":"noteOn"},{"deltaTime":0,"channel":1,"type":"channel","noteNumber":53,"velocity":65,"subtype":"noteOn"},{"deltaTime":0,"channel":1,"type":"channel","noteNumber":56,"velocity":58,"subtype":"noteOn"},{"deltaTime":288,"channel":1,"type":"channel","subtype":"noteOff","noteNumber":47,"velocity":82},{"deltaTime":0,"channel":1,"type":"channel","subtype":"noteOff","noteNumber":53,"velocity":65},{"deltaTime":0,"channel":1,"type":"channel","subtype":"noteOff","noteNumber":56,"velocity":58},{"deltaTime":0,"type":"meta","subtype":"timeSignature","numerator":4,"denominator":4,"metronome":24,"thirtyseconds":8},{"deltaTime":0,"type":"meta","subtype":"keySignature","key":-6,"scale":0},{"deltaTime":0,"channel":1,"type":"channel","noteNumber":49,"velocity":63,"subtype":"noteOn"},{"deltaTime":0,"channel":1,"type":"channel","noteNumber":53,"velocity":59,"subtype":"noteOn"},{"deltaTime":0,"channel":1,"type":"channel","noteNumber":58,"velocity":66,"subtype":"noteOn"},{"deltaTime":288,"channel":1,"type":"channel","subtype":"noteOff","noteNumber":49,"velocity":63},{"deltaTime":0,"channel":1,"type":"channel","subtype":"noteOff","noteNumber":53,"velocity":59},{"deltaTime":0,"channel":1,"type":"channel","subtype":"noteOff","noteNumber":58,"velocity":66},{"deltaTime":0,"type":"meta","subtype":"timeSignature","numerator":4,"denominator":4,"metronome":24,"thirtyseconds":8},{"deltaTime":0,"type":"meta","subtype":"keySignature","key":-6,"scale":0},{"deltaTime":0,"channel":1,"type":"channel","noteNumber":47,"velocity":47,"subtype":"noteOn"},{"deltaTime":0,"channel":1,"type":"channel","noteNumber":51,"velocity":63,"subtype":"noteOn"},{"deltaTime":0,"channel":1,"type":"channel","noteNumber":54,"velocity":53,"subtype":"noteOn"},{"deltaTime":0,"channel":1,"type":"channel","noteNumber":58,"velocity":47,"subtype":"noteOn"},{"deltaTime":288,"channel":1,"type":"channel","subtype":"noteOff","noteNumber":47,"velocity":47},{"deltaTime":0,"channel":1,"type":"channel","subtype":"noteOff","noteNumber":51,"velocity":63},{"deltaTime":0,"channel":1,"type":"channel","subtype":"noteOff","noteNumber":54,"velocity":53},{"deltaTime":0,"channel":1,"type":"channel","subtype":"noteOff","noteNumber":58,"velocity":47},{"deltaTime":0,"type":"meta","subtype":"timeSignature","numerator":4,"denominator":4,"metronome":24,"thirtyseconds":8},{"deltaTime":0,"type":"meta","subtype":"keySignature","key":-6,"scale":0},{"deltaTime":0,"channel":1,"type":"channel","noteNumber":47,"velocity":39,"subtype":"noteOn"},{"deltaTime":0,"channel":1,"type":"channel","noteNumber":51,"velocity":64,"subtype":"noteOn"},{"deltaTime":0,"channel":1,"type":"channel","noteNumber":56,"velocity":58,"subtype":"noteOn"},{"deltaTime":288,"channel":1,"type":"channel","subtype":"noteOff","noteNumber":47,"velocity":39},{"deltaTime":0,"channel":1,"type":"channel","subtype":"noteOff","noteNumber":51,"velocity":64},{"deltaTime":0,"channel":1,"type":"channel","subtype":"noteOff","noteNumber":56,"velocity":58},{"deltaTime":0,"type":"meta","subtype":"timeSignature","numerator":4,"denominator":4,"metronome":24,"thirtyseconds":8},{"deltaTime":0,"type":"meta","subtype":"keySignature","key":-6,"scale":0},{"deltaTime":0,"channel":1,"type":"channel","noteNumber":47,"velocity":87,"subtype":"noteOn"},{"deltaTime":0,"channel":1,"type":"channel","noteNumber":49,"velocity":78,"subtype":"noteOn"},{"deltaTime":0,"channel":1,"type":"channel","noteNumber":53,"velocity":67,"subtype":"noteOn"},{"deltaTime":0,"channel":1,"type":"channel","noteNumber":56,"velocity":67,"subtype":"noteOn"},{"deltaTime":288,"channel":1,"type":"channel","subtype":"noteOff","noteNumber":47,"velocity":87},{"deltaTime":0,"channel":1,"type":"channel","subtype":"noteOff","noteNumber":49,"velocity":78},{"deltaTime":0,"channel":1,"type":"channel","subtype":"noteOff","noteNumber":53,"velocity":67},{"deltaTime":0,"channel":1,"type":"channel","subtype":"noteOff","noteNumber":56,"velocity":67},{"deltaTime":0,"type":"meta","subtype":"timeSignature","numerator":4,"denominator":4,"metronome":24,"thirtyseconds":8},{"deltaTime":0,"type":"meta","subtype":"keySignature","key":-6,"scale":0},{"deltaTime":0,"channel":1,"type":"channel","noteNumber":47,"velocity":90,"subtype":"noteOn"},{"deltaTime":0,"channel":1,"type":"channel","noteNumber":51,"velocity":71,"subtype":"noteOn"},{"deltaTime":0,"channel":1,"type":"channel","noteNumber":53,"velocity":68,"subtype":"noteOn"},{"deltaTime":0,"channel":1,"type":"channel","noteNumber":56,"velocity":74,"subtype":"noteOn"},{"deltaTime":288,"channel":1,"type":"channel","subtype":"noteOff","noteNumber":47,"velocity":90},{"deltaTime":0,"channel":1,"type":"channel","subtype":"noteOff","noteNumber":51,"velocity":71},{"deltaTime":0,"channel":1,"type":"channel","subtype":"noteOff","noteNumber":53,"velocity":68},{"deltaTime":0,"channel":1,"type":"channel","subtype":"noteOff","noteNumber":56,"velocity":74},{"deltaTime":0,"type":"meta","subtype":"timeSignature","numerator":4,"denominator":4,"metronome":24,"thirtyseconds":8},{"deltaTime":0,"type":"meta","subtype":"keySignature","key":-6,"scale":0},{"deltaTime":0,"channel":1,"type":"channel","noteNumber":49,"velocity":38,"subtype":"noteOn"},{"deltaTime":0,"channel":1,"type":"channel","noteNumber":54,"velocity":37,"subtype":"noteOn"},{"deltaTime":0,"channel":1,"type":"channel","noteNumber":58,"velocity":36,"subtype":"noteOn"},{"deltaTime":288,"channel":1,"type":"channel","subtype":"noteOff","noteNumber":49,"velocity":38},{"deltaTime":0,"channel":1,"type":"channel","subtype":"noteOff","noteNumber":54,"velocity":37},{"deltaTime":0,"channel":1,"type":"channel","subtype":"noteOff","noteNumber":58,"velocity":36},{"deltaTime":0,"type":"meta","subtype":"timeSignature","numerator":4,"denominator":4,"metronome":24,"thirtyseconds":8},{"deltaTime":0,"type":"meta","subtype":"keySignature","key":-6,"scale":0},{"deltaTime":0,"channel":1,"type":"channel","noteNumber":49,"velocity":50,"subtype":"noteOn"},{"deltaTime":0,"channel":1,"type":"channel","noteNumber":54,"velocity":51,"subtype":"noteOn"},{"deltaTime":0,"channel":1,"type":"channel","noteNumber":58,"velocity":64,"subtype":"noteOn"},{"deltaTime":288,"channel":1,"type":"channel","subtype":"noteOff","noteNumber":49,"velocity":50},{"deltaTime":0,"channel":1,"type":"channel","subtype":"noteOff","noteNumber":54,"velocity":51},{"deltaTime":0,"channel":1,"type":"channel","subtype":"noteOff","noteNumber":58,"velocity":64},{"deltaTime":0,"type":"meta","subtype":"timeSignature","numerator":4,"denominator":4,"metronome":24,"thirtyseconds":8},{"deltaTime":0,"type":"meta","subtype":"keySignature","key":-6,"scale":0},{"deltaTime":0,"channel":1,"type":"channel","noteNumber":47,"velocity":64,"subtype":"noteOn"},{"deltaTime":0,"channel":1,"type":"channel","noteNumber":51,"velocity":60,"subtype":"noteOn"},{"deltaTime":0,"channel":1,"type":"channel","noteNumber":54,"velocity":65,"subtype":"noteOn"},{"deltaTime":288,"channel":1,"type":"channel","subtype":"noteOff","noteNumber":47,"velocity":64},{"deltaTime":0,"channel":1,"type":"channel","subtype":"noteOff","noteNumber":51,"velocity":60},{"deltaTime":0,"channel":1,"type":"channel","subtype":"noteOff","noteNumber":54,"velocity":65},{"deltaTime":0,"type":"meta","subtype":"timeSignature","numerator":4,"denominator":4,"metronome":24,"thirtyseconds":8},{"deltaTime":0,"type":"meta","subtype":"keySignature","key":-6,"scale":0},{"deltaTime":0,"channel":1,"type":"channel","noteNumber":47,"velocity":55,"subtype":"noteOn"},{"deltaTime":0,"channel":1,"type":"channel","noteNumber":51,"velocity":54,"subtype":"noteOn"},{"deltaTime":0,"channel":1,"type":"channel","noteNumber":54,"velocity":72,"subtype":"noteOn"},{"deltaTime":0,"channel":1,"type":"channel","noteNumber":58,"velocity":72,"subtype":"noteOn"},{"deltaTime":288,"channel":1,"type":"channel","subtype":"noteOff","noteNumber":47,"velocity":55},{"deltaTime":0,"channel":1,"type":"channel","subtype":"noteOff","noteNumber":51,"velocity":54},{"deltaTime":0,"channel":1,"type":"channel","subtype":"noteOff","noteNumber":54,"velocity":72},{"deltaTime":0,"channel":1,"type":"channel","subtype":"noteOff","noteNumber":58,"velocity":72},{"deltaTime":0,"type":"meta","subtype":"timeSignature","numerator":4,"denominator":4,"metronome":24,"thirtyseconds":8},{"deltaTime":0,"type":"meta","subtype":"keySignature","key":-6,"scale":0},{"deltaTime":0,"channel":1,"type":"channel","noteNumber":47,"velocity":50,"subtype":"noteOn"},{"deltaTime":0,"channel":1,"type":"channel","noteNumber":51,"velocity":46,"subtype":"noteOn"},{"deltaTime":0,"channel":1,"type":"channel","noteNumber":54,"velocity":64,"subtype":"noteOn"},{"deltaTime":0,"channel":1,"type":"channel","noteNumber":58,"velocity":40,"subtype":"noteOn"},{"deltaTime":288,"channel":1,"type":"channel","subtype":"noteOff","noteNumber":47,"velocity":50},{"deltaTime":0,"channel":1,"type":"channel","subtype":"noteOff","noteNumber":51,"velocity":46},{"deltaTime":0,"channel":1,"type":"channel","subtype":"noteOff","noteNumber":54,"velocity":64},{"deltaTime":0,"channel":1,"type":"channel","subtype":"noteOff","noteNumber":58,"velocity":40},{"deltaTime":0,"type":"meta","subtype":"timeSignature","numerator":4,"denominator":4,"metronome":24,"thirtyseconds":8},{"deltaTime":0,"type":"meta","subtype":"keySignature","key":-6,"scale":0},{"deltaTime":0,"channel":1,"type":"channel","noteNumber":49,"velocity":68,"subtype":"noteOn"},{"deltaTime":0,"channel":1,"type":"channel","noteNumber":54,"velocity":66,"subtype":"noteOn"},{"deltaTime":0,"channel":1,"type":"channel","noteNumber":58,"velocity":82,"subtype":"noteOn"},{"deltaTime":288,"channel":1,"type":"channel","subtype":"noteOff","noteNumber":49,"velocity":68},{"deltaTime":0,"channel":1,"type":"channel","subtype":"noteOff","noteNumber":54,"velocity":66},{"deltaTime":0,"channel":1,"type":"channel","subtype":"noteOff","noteNumber":58,"velocity":82},{"deltaTime":0,"type":"meta","subtype":"timeSignature","numerator":4,"denominator":4,"metronome":24,"thirtyseconds":8},{"deltaTime":0,"type":"meta","subtype":"keySignature","key":-6,"scale":0},{"deltaTime":0,"channel":1,"type":"channel","noteNumber":47,"velocity":76,"subtype":"noteOn"},{"deltaTime":0,"channel":1,"type":"channel","noteNumber":51,"velocity":70,"subtype":"noteOn"},{"deltaTime":0,"channel":1,"type":"channel","noteNumber":53,"velocity":48,"subtype":"noteOn"},{"deltaTime":0,"channel":1,"type":"channel","noteNumber":56,"velocity":65,"subtype":"noteOn"},{"deltaTime":288,"channel":1,"type":"channel","subtype":"noteOff","noteNumber":47,"velocity":76},{"deltaTime":0,"channel":1,"type":"channel","subtype":"noteOff","noteNumber":51,"velocity":70},{"deltaTime":0,"channel":1,"type":"channel","subtype":"noteOff","noteNumber":53,"velocity":48},{"deltaTime":0,"channel":1,"type":"channel","subtype":"noteOff","noteNumber":56,"velocity":65},{"deltaTime":0,"type":"meta","subtype":"timeSignature","numerator":4,"denominator":4,"metronome":24,"thirtyseconds":8},{"deltaTime":0,"type":"meta","subtype":"keySignature","key":-6,"scale":0},{"deltaTime":0,"channel":1,"type":"channel","noteNumber":47,"velocity":72,"subtype":"noteOn"},{"deltaTime":0,"channel":1,"type":"channel","noteNumber":51,"velocity":70,"subtype":"noteOn"},{"deltaTime":0,"channel":1,"type":"channel","noteNumber":53,"velocity":53,"subtype":"noteOn"},{"deltaTime":0,"channel":1,"type":"channel","noteNumber":56,"velocity":56,"subtype":"noteOn"},{"deltaTime":288,"channel":1,"type":"channel","subtype":"noteOff","noteNumber":47,"velocity":72},{"deltaTime":0,"channel":1,"type":"channel","subtype":"noteOff","noteNumber":51,"velocity":70},{"deltaTime":0,"channel":1,"type":"channel","subtype":"noteOff","noteNumber":53,"velocity":53},{"deltaTime":0,"channel":1,"type":"channel","subtype":"noteOff","noteNumber":56,"velocity":56},{"deltaTime":0,"type":"meta","subtype":"timeSignature","numerator":4,"denominator":4,"metronome":24,"thirtyseconds":8},{"deltaTime":0,"type":"meta","subtype":"keySignature","key":-6,"scale":0},{"deltaTime":0,"channel":1,"type":"channel","noteNumber":47,"velocity":50,"subtype":"noteOn"},{"deltaTime":0,"channel":1,"type":"channel","noteNumber":51,"velocity":46,"subtype":"noteOn"},{"deltaTime":0,"channel":1,"type":"channel","noteNumber":54,"velocity":64,"subtype":"noteOn"},{"deltaTime":0,"channel":1,"type":"channel","noteNumber":58,"velocity":40,"subtype":"noteOn"},{"deltaTime":288,"channel":1,"type":"channel","subtype":"noteOff","noteNumber":47,"velocity":50},{"deltaTime":0,"channel":1,"type":"channel","subtype":"noteOff","noteNumber":51,"velocity":46},{"deltaTime":0,"channel":1,"type":"channel","subtype":"noteOff","noteNumber":54,"velocity":64},{"deltaTime":0,"channel":1,"type":"channel","subtype":"noteOff","noteNumber":58,"velocity":40},{"deltaTime":0,"type":"meta","subtype":"timeSignature","numerator":4,"denominator":4,"metronome":24,"thirtyseconds":8},{"deltaTime":0,"type":"meta","subtype":"keySignature","key":-6,"scale":0},{"deltaTime":0,"channel":1,"type":"channel","noteNumber":49,"velocity":68,"subtype":"noteOn"},{"deltaTime":0,"channel":1,"type":"channel","noteNumber":54,"velocity":66,"subtype":"noteOn"},{"deltaTime":0,"channel":1,"type":"channel","noteNumber":58,"velocity":82,"subtype":"noteOn"},{"deltaTime":288,"channel":1,"type":"channel","subtype":"noteOff","noteNumber":49,"velocity":68},{"deltaTime":0,"channel":1,"type":"channel","subtype":"noteOff","noteNumber":54,"velocity":66},{"deltaTime":0,"channel":1,"type":"channel","subtype":"noteOff","noteNumber":58,"velocity":82},{"deltaTime":0,"type":"meta","subtype":"timeSignature","numerator":4,"denominator":4,"metronome":24,"thirtyseconds":8},{"deltaTime":0,"type":"meta","subtype":"keySignature","key":-6,"scale":0},{"deltaTime":0,"channel":1,"type":"channel","noteNumber":47,"velocity":76,"subtype":"noteOn"},{"deltaTime":0,"channel":1,"type":"channel","noteNumber":51,"velocity":70,"subtype":"noteOn"},{"deltaTime":0,"channel":1,"type":"channel","noteNumber":53,"velocity":48,"subtype":"noteOn"},{"deltaTime":0,"channel":1,"type":"channel","noteNumber":56,"velocity":65,"subtype":"noteOn"},{"deltaTime":288,"channel":1,"type":"channel","subtype":"noteOff","noteNumber":47,"velocity":76},{"deltaTime":0,"channel":1,"type":"channel","subtype":"noteOff","noteNumber":51,"velocity":70},{"deltaTime":0,"channel":1,"type":"channel","subtype":"noteOff","noteNumber":53,"velocity":48},{"deltaTime":0,"channel":1,"type":"channel","subtype":"noteOff","noteNumber":56,"velocity":65},{"deltaTime":0,"type":"meta","subtype":"timeSignature","numerator":4,"denominator":4,"metronome":24,"thirtyseconds":8},{"deltaTime":0,"type":"meta","subtype":"keySignature","key":-6,"scale":0},{"deltaTime":0,"channel":1,"type":"channel","noteNumber":47,"velocity":72,"subtype":"noteOn"},{"deltaTime":0,"channel":1,"type":"channel","noteNumber":51,"velocity":70,"subtype":"noteOn"},{"deltaTime":0,"channel":1,"type":"channel","noteNumber":53,"velocity":53,"subtype":"noteOn"},{"deltaTime":0,"channel":1,"type":"channel","noteNumber":56,"velocity":56,"subtype":"noteOn"},{"deltaTime":288,"channel":1,"type":"channel","subtype":"noteOff","noteNumber":47,"velocity":72},{"deltaTime":0,"channel":1,"type":"channel","subtype":"noteOff","noteNumber":51,"velocity":70},{"deltaTime":0,"channel":1,"type":"channel","subtype":"noteOff","noteNumber":53,"velocity":53},{"deltaTime":0,"channel":1,"type":"channel","subtype":"noteOff","noteNumber":56,"velocity":56},{"deltaTime":0,"type":"meta","subtype":"timeSignature","numerator":4,"denominator":4,"metronome":24,"thirtyseconds":8},{"deltaTime":0,"type":"meta","subtype":"keySignature","key":-6,"scale":0},{"deltaTime":0,"channel":1,"type":"channel","noteNumber":49,"velocity":38,"subtype":"noteOn"},{"deltaTime":0,"channel":1,"type":"channel","noteNumber":54,"velocity":37,"subtype":"noteOn"},{"deltaTime":0,"channel":1,"type":"channel","noteNumber":58,"velocity":36,"subtype":"noteOn"},{"deltaTime":288,"channel":1,"type":"channel","subtype":"noteOff","noteNumber":49,"velocity":38},{"deltaTime":0,"channel":1,"type":"channel","subtype":"noteOff","noteNumber":54,"velocity":37},{"deltaTime":0,"channel":1,"type":"channel","subtype":"noteOff","noteNumber":58,"velocity":36},{"deltaTime":0,"type":"meta","subtype":"timeSignature","numerator":4,"denominator":4,"metronome":24,"thirtyseconds":8},{"deltaTime":0,"type":"meta","subtype":"keySignature","key":-6,"scale":0},{"deltaTime":0,"channel":1,"type":"channel","noteNumber":49,"velocity":50,"subtype":"noteOn"},{"deltaTime":0,"channel":1,"type":"channel","noteNumber":54,"velocity":51,"subtype":"noteOn"},{"deltaTime":0,"channel":1,"type":"channel","noteNumber":58,"velocity":64,"subtype":"noteOn"},{"deltaTime":288,"channel":1,"type":"channel","subtype":"noteOff","noteNumber":49,"velocity":50},{"deltaTime":0,"channel":1,"type":"channel","subtype":"noteOff","noteNumber":54,"velocity":51},{"deltaTime":0,"channel":1,"type":"channel","subtype":"noteOff","noteNumber":58,"velocity":64},{"deltaTime":0,"type":"meta","subtype":"timeSignature","numerator":4,"denominator":4,"metronome":24,"thirtyseconds":8},{"deltaTime":0,"type":"meta","subtype":"keySignature","key":-6,"scale":0},{"deltaTime":0,"channel":1,"type":"channel","noteNumber":47,"velocity":64,"subtype":"noteOn"},{"deltaTime":0,"channel":1,"type":"channel","noteNumber":51,"velocity":60,"subtype":"noteOn"},{"deltaTime":0,"channel":1,"type":"channel","noteNumber":54,"velocity":65,"subtype":"noteOn"},{"deltaTime":288,"channel":1,"type":"channel","subtype":"noteOff","noteNumber":47,"velocity":64},{"deltaTime":0,"channel":1,"type":"channel","subtype":"noteOff","noteNumber":51,"velocity":60},{"deltaTime":0,"channel":1,"type":"channel","subtype":"noteOff","noteNumber":54,"velocity":65},{"deltaTime":0,"type":"meta","subtype":"timeSignature","numerator":4,"denominator":4,"metronome":24,"thirtyseconds":8},{"deltaTime":0,"type":"meta","subtype":"keySignature","key":-6,"scale":0},{"deltaTime":0,"channel":1,"type":"channel","noteNumber":47,"velocity":55,"subtype":"noteOn"},{"deltaTime":0,"channel":1,"type":"channel","noteNumber":51,"velocity":54,"subtype":"noteOn"},{"deltaTime":0,"channel":1,"type":"channel","noteNumber":54,"velocity":72,"subtype":"noteOn"},{"deltaTime":0,"channel":1,"type":"channel","noteNumber":58,"velocity":72,"subtype":"noteOn"},{"deltaTime":288,"channel":1,"type":"channel","subtype":"noteOff","noteNumber":47,"velocity":55},{"deltaTime":0,"channel":1,"type":"channel","subtype":"noteOff","noteNumber":51,"velocity":54},{"deltaTime":0,"channel":1,"type":"channel","subtype":"noteOff","noteNumber":54,"velocity":72},{"deltaTime":0,"channel":1,"type":"channel","subtype":"noteOff","noteNumber":58,"velocity":72},{"deltaTime":0,"type":"meta","subtype":"timeSignature","numerator":4,"denominator":4,"metronome":24,"thirtyseconds":8},{"deltaTime":0,"type":"meta","subtype":"keySignature","key":-6,"scale":0},{"deltaTime":0,"channel":1,"type":"channel","noteNumber":47,"velocity":50,"subtype":"noteOn"},{"deltaTime":0,"channel":1,"type":"channel","noteNumber":51,"velocity":46,"subtype":"noteOn"},{"deltaTime":0,"channel":1,"type":"channel","noteNumber":54,"velocity":64,"subtype":"noteOn"},{"deltaTime":0,"channel":1,"type":"channel","noteNumber":58,"velocity":40,"subtype":"noteOn"},{"deltaTime":288,"channel":1,"type":"channel","subtype":"noteOff","noteNumber":47,"velocity":50},{"deltaTime":0,"channel":1,"type":"channel","subtype":"noteOff","noteNumber":51,"velocity":46},{"deltaTime":0,"channel":1,"type":"channel","subtype":"noteOff","noteNumber":54,"velocity":64},{"deltaTime":0,"channel":1,"type":"channel","subtype":"noteOff","noteNumber":58,"velocity":40},{"deltaTime":0,"type":"meta","subtype":"timeSignature","numerator":4,"denominator":4,"metronome":24,"thirtyseconds":8},{"deltaTime":0,"type":"meta","subtype":"keySignature","key":-6,"scale":0},{"deltaTime":0,"channel":1,"type":"channel","noteNumber":49,"velocity":68,"subtype":"noteOn"},{"deltaTime":0,"channel":1,"type":"channel","noteNumber":54,"velocity":66,"subtype":"noteOn"},{"deltaTime":0,"channel":1,"type":"channel","noteNumber":58,"velocity":82,"subtype":"noteOn"},{"deltaTime":288,"channel":1,"type":"channel","subtype":"noteOff","noteNumber":49,"velocity":68},{"deltaTime":0,"channel":1,"type":"channel","subtype":"noteOff","noteNumber":54,"velocity":66},{"deltaTime":0,"channel":1,"type":"channel","subtype":"noteOff","noteNumber":58,"velocity":82},{"deltaTime":0,"type":"meta","subtype":"timeSignature","numerator":4,"denominator":4,"metronome":24,"thirtyseconds":8},{"deltaTime":0,"type":"meta","subtype":"keySignature","key":-6,"scale":0},{"deltaTime":0,"channel":1,"type":"channel","noteNumber":47,"velocity":76,"subtype":"noteOn"},{"deltaTime":0,"channel":1,"type":"channel","noteNumber":51,"velocity":70,"subtype":"noteOn"},{"deltaTime":0,"channel":1,"type":"channel","noteNumber":53,"velocity":48,"subtype":"noteOn"},{"deltaTime":0,"channel":1,"type":"channel","noteNumber":56,"velocity":65,"subtype":"noteOn"},{"deltaTime":288,"channel":1,"type":"channel","subtype":"noteOff","noteNumber":47,"velocity":76},{"deltaTime":0,"channel":1,"type":"channel","subtype":"noteOff","noteNumber":51,"velocity":70},{"deltaTime":0,"channel":1,"type":"channel","subtype":"noteOff","noteNumber":53,"velocity":48},{"deltaTime":0,"channel":1,"type":"channel","subtype":"noteOff","noteNumber":56,"velocity":65},{"deltaTime":0,"type":"meta","subtype":"timeSignature","numerator":4,"denominator":4,"metronome":24,"thirtyseconds":8},{"deltaTime":0,"type":"meta","subtype":"keySignature","key":-6,"scale":0},{"deltaTime":0,"channel":1,"type":"channel","noteNumber":47,"velocity":72,"subtype":"noteOn"},{"deltaTime":0,"channel":1,"type":"channel","noteNumber":51,"velocity":70,"subtype":"noteOn"},{"deltaTime":0,"channel":1,"type":"channel","noteNumber":53,"velocity":53,"subtype":"noteOn"},{"deltaTime":0,"channel":1,"type":"channel","noteNumber":56,"velocity":56,"subtype":"noteOn"},{"deltaTime":288,"channel":1,"type":"channel","subtype":"noteOff","noteNumber":47,"velocity":72},{"deltaTime":0,"channel":1,"type":"channel","subtype":"noteOff","noteNumber":51,"velocity":70},{"deltaTime":0,"channel":1,"type":"channel","subtype":"noteOff","noteNumber":53,"velocity":53},{"deltaTime":0,"channel":1,"type":"channel","subtype":"noteOff","noteNumber":56,"velocity":56},{"deltaTime":0,"type":"meta","subtype":"timeSignature","numerator":4,"denominator":4,"metronome":24,"thirtyseconds":8},{"deltaTime":0,"type":"meta","subtype":"keySignature","key":-6,"scale":0},{"deltaTime":0,"channel":1,"type":"channel","noteNumber":47,"velocity":53,"subtype":"noteOn"},{"deltaTime":0,"channel":1,"type":"channel","noteNumber":51,"velocity":74,"subtype":"noteOn"},{"deltaTime":0,"channel":1,"type":"channel","noteNumber":53,"velocity":60,"subtype":"noteOn"},{"deltaTime":0,"channel":1,"type":"channel","noteNumber":56,"velocity":80,"subtype":"noteOn"},{"deltaTime":288,"channel":1,"type":"channel","subtype":"noteOff","noteNumber":47,"velocity":53},{"deltaTime":0,"channel":1,"type":"channel","subtype":"noteOff","noteNumber":51,"velocity":74},{"deltaTime":0,"channel":1,"type":"channel","subtype":"noteOff","noteNumber":53,"velocity":60},{"deltaTime":0,"channel":1,"type":"channel","subtype":"noteOff","noteNumber":56,"velocity":80},{"deltaTime":0,"type":"meta","subtype":"timeSignature","numerator":4,"denominator":4,"metronome":24,"thirtyseconds":8},{"deltaTime":0,"type":"meta","subtype":"keySignature","key":-6,"scale":0},{"deltaTime":0,"channel":1,"type":"channel","noteNumber":47,"velocity":72,"subtype":"noteOn"},{"deltaTime":0,"channel":1,"type":"channel","noteNumber":51,"velocity":73,"subtype":"noteOn"},{"deltaTime":0,"channel":1,"type":"channel","noteNumber":54,"velocity":69,"subtype":"noteOn"},{"deltaTime":0,"channel":1,"type":"channel","noteNumber":58,"velocity":63,"subtype":"noteOn"},{"deltaTime":288,"channel":1,"type":"channel","subtype":"noteOff","noteNumber":47,"velocity":72},{"deltaTime":0,"channel":1,"type":"channel","subtype":"noteOff","noteNumber":51,"velocity":73},{"deltaTime":0,"channel":1,"type":"channel","subtype":"noteOff","noteNumber":54,"velocity":69},{"deltaTime":0,"channel":1,"type":"channel","subtype":"noteOff","noteNumber":58,"velocity":63},{"deltaTime":0,"type":"meta","subtype":"timeSignature","numerator":4,"denominator":4,"metronome":24,"thirtyseconds":8},{"deltaTime":0,"type":"meta","subtype":"keySignature","key":-6,"scale":0},{"deltaTime":0,"channel":1,"type":"channel","noteNumber":47,"velocity":61,"subtype":"noteOn"},{"deltaTime":0,"channel":1,"type":"channel","noteNumber":51,"velocity":71,"subtype":"noteOn"},{"deltaTime":0,"channel":1,"type":"channel","noteNumber":56,"velocity":58,"subtype":"noteOn"},{"deltaTime":288,"channel":1,"type":"channel","subtype":"noteOff","noteNumber":47,"velocity":61},{"deltaTime":0,"channel":1,"type":"channel","subtype":"noteOff","noteNumber":51,"velocity":71},{"deltaTime":0,"channel":1,"type":"channel","subtype":"noteOff","noteNumber":56,"velocity":58},{"deltaTime":0,"type":"meta","subtype":"timeSignature","numerator":4,"denominator":4,"metronome":24,"thirtyseconds":8},{"deltaTime":0,"type":"meta","subtype":"keySignature","key":-6,"scale":0},{"deltaTime":0,"channel":1,"type":"channel","noteNumber":47,"velocity":68,"subtype":"noteOn"},{"deltaTime":0,"channel":1,"type":"channel","noteNumber":51,"velocity":60,"subtype":"noteOn"},{"deltaTime":0,"channel":1,"type":"channel","noteNumber":56,"velocity":71,"subtype":"noteOn"},{"deltaTime":288,"channel":1,"type":"channel","subtype":"noteOff","noteNumber":47,"velocity":68},{"deltaTime":0,"channel":1,"type":"channel","subtype":"noteOff","noteNumber":51,"velocity":60},{"deltaTime":0,"channel":1,"type":"channel","subtype":"noteOff","noteNumber":56,"velocity":71},{"deltaTime":0,"type":"meta","subtype":"timeSignature","numerator":4,"denominator":4,"metronome":24,"thirtyseconds":8},{"deltaTime":0,"type":"meta","subtype":"keySignature","key":-6,"scale":0},{"deltaTime":0,"channel":1,"type":"channel","noteNumber":47,"velocity":53,"subtype":"noteOn"},{"deltaTime":0,"channel":1,"type":"channel","noteNumber":51,"velocity":74,"subtype":"noteOn"},{"deltaTime":0,"channel":1,"type":"channel","noteNumber":53,"velocity":60,"subtype":"noteOn"},{"deltaTime":0,"channel":1,"type":"channel","noteNumber":56,"velocity":80,"subtype":"noteOn"},{"deltaTime":288,"channel":1,"type":"channel","subtype":"noteOff","noteNumber":47,"velocity":53},{"deltaTime":0,"channel":1,"type":"channel","subtype":"noteOff","noteNumber":51,"velocity":74},{"deltaTime":0,"channel":1,"type":"channel","subtype":"noteOff","noteNumber":53,"velocity":60},{"deltaTime":0,"channel":1,"type":"channel","subtype":"noteOff","noteNumber":56,"velocity":80},{"deltaTime":0,"type":"meta","subtype":"timeSignature","numerator":4,"denominator":4,"metronome":24,"thirtyseconds":8},{"deltaTime":0,"type":"meta","subtype":"keySignature","key":-6,"scale":0},{"deltaTime":0,"channel":1,"type":"channel","noteNumber":47,"velocity":72,"subtype":"noteOn"},{"deltaTime":0,"channel":1,"type":"channel","noteNumber":51,"velocity":73,"subtype":"noteOn"},{"deltaTime":0,"channel":1,"type":"channel","noteNumber":54,"velocity":69,"subtype":"noteOn"},{"deltaTime":0,"channel":1,"type":"channel","noteNumber":58,"velocity":63,"subtype":"noteOn"},{"deltaTime":288,"channel":1,"type":"channel","subtype":"noteOff","noteNumber":47,"velocity":72},{"deltaTime":0,"channel":1,"type":"channel","subtype":"noteOff","noteNumber":51,"velocity":73},{"deltaTime":0,"channel":1,"type":"channel","subtype":"noteOff","noteNumber":54,"velocity":69},{"deltaTime":0,"channel":1,"type":"channel","subtype":"noteOff","noteNumber":58,"velocity":63},{"deltaTime":0,"type":"meta","subtype":"timeSignature","numerator":4,"denominator":4,"metronome":24,"thirtyseconds":8},{"deltaTime":0,"type":"meta","subtype":"keySignature","key":-6,"scale":0},{"deltaTime":0,"channel":1,"type":"channel","noteNumber":47,"velocity":61,"subtype":"noteOn"},{"deltaTime":0,"channel":1,"type":"channel","noteNumber":51,"velocity":71,"subtype":"noteOn"},{"deltaTime":0,"channel":1,"type":"channel","noteNumber":56,"velocity":58,"subtype":"noteOn"},{"deltaTime":288,"channel":1,"type":"channel","subtype":"noteOff","noteNumber":47,"velocity":61},{"deltaTime":0,"channel":1,"type":"channel","subtype":"noteOff","noteNumber":51,"velocity":71},{"deltaTime":0,"channel":1,"type":"channel","subtype":"noteOff","noteNumber":56,"velocity":58},{"deltaTime":0,"type":"meta","subtype":"timeSignature","numerator":4,"denominator":4,"metronome":24,"thirtyseconds":8},{"deltaTime":0,"type":"meta","subtype":"keySignature","key":-6,"scale":0},{"deltaTime":0,"channel":1,"type":"channel","noteNumber":47,"velocity":68,"subtype":"noteOn"},{"deltaTime":0,"channel":1,"type":"channel","noteNumber":51,"velocity":60,"subtype":"noteOn"},{"deltaTime":0,"channel":1,"type":"channel","noteNumber":56,"velocity":71,"subtype":"noteOn"},{"deltaTime":288,"channel":1,"type":"channel","subtype":"noteOff","noteNumber":47,"velocity":68},{"deltaTime":0,"channel":1,"type":"channel","subtype":"noteOff","noteNumber":51,"velocity":60},{"deltaTime":0,"channel":1,"type":"channel","subtype":"noteOff","noteNumber":56,"velocity":71},{"deltaTime":0,"type":"meta","subtype":"timeSignature","numerator":4,"denominator":4,"metronome":24,"thirtyseconds":8},{"deltaTime":0,"type":"meta","subtype":"keySignature","key":-6,"scale":0},{"deltaTime":0,"channel":1,"type":"channel","noteNumber":47,"velocity":47,"subtype":"noteOn"},{"deltaTime":0,"channel":1,"type":"channel","noteNumber":51,"velocity":63,"subtype":"noteOn"},{"deltaTime":0,"channel":1,"type":"channel","noteNumber":54,"velocity":53,"subtype":"noteOn"},{"deltaTime":0,"channel":1,"type":"channel","noteNumber":58,"velocity":47,"subtype":"noteOn"},{"deltaTime":288,"channel":1,"type":"channel","subtype":"noteOff","noteNumber":47,"velocity":47},{"deltaTime":0,"channel":1,"type":"channel","subtype":"noteOff","noteNumber":51,"velocity":63},{"deltaTime":0,"channel":1,"type":"channel","subtype":"noteOff","noteNumber":54,"velocity":53},{"deltaTime":0,"channel":1,"type":"channel","subtype":"noteOff","noteNumber":58,"velocity":47},{"deltaTime":0,"type":"meta","subtype":"timeSignature","numerator":4,"denominator":4,"metronome":24,"thirtyseconds":8},{"deltaTime":0,"type":"meta","subtype":"keySignature","key":-6,"scale":0},{"deltaTime":0,"channel":1,"type":"channel","noteNumber":47,"velocity":39,"subtype":"noteOn"},{"deltaTime":0,"channel":1,"type":"channel","noteNumber":51,"velocity":64,"subtype":"noteOn"},{"deltaTime":0,"channel":1,"type":"channel","noteNumber":56,"velocity":58,"subtype":"noteOn"},{"deltaTime":288,"channel":1,"type":"channel","subtype":"noteOff","noteNumber":47,"velocity":39},{"deltaTime":0,"channel":1,"type":"channel","subtype":"noteOff","noteNumber":51,"velocity":64},{"deltaTime":0,"channel":1,"type":"channel","subtype":"noteOff","noteNumber":56,"velocity":58},{"deltaTime":0,"type":"meta","subtype":"timeSignature","numerator":4,"denominator":4,"metronome":24,"thirtyseconds":8},{"deltaTime":0,"type":"meta","subtype":"keySignature","key":-6,"scale":0},{"deltaTime":0,"channel":1,"type":"channel","noteNumber":47,"velocity":87,"subtype":"noteOn"},{"deltaTime":0,"channel":1,"type":"channel","noteNumber":49,"velocity":78,"subtype":"noteOn"},{"deltaTime":0,"channel":1,"type":"channel","noteNumber":53,"velocity":67,"subtype":"noteOn"},{"deltaTime":0,"channel":1,"type":"channel","noteNumber":56,"velocity":67,"subtype":"noteOn"},{"deltaTime":288,"channel":1,"type":"channel","subtype":"noteOff","noteNumber":47,"velocity":87},{"deltaTime":0,"channel":1,"type":"channel","subtype":"noteOff","noteNumber":49,"velocity":78},{"deltaTime":0,"channel":1,"type":"channel","subtype":"noteOff","noteNumber":53,"velocity":67},{"deltaTime":0,"channel":1,"type":"channel","subtype":"noteOff","noteNumber":56,"velocity":67},{"deltaTime":0,"type":"meta","subtype":"timeSignature","numerator":4,"denominator":4,"metronome":24,"thirtyseconds":8},{"deltaTime":0,"type":"meta","subtype":"keySignature","key":-6,"scale":0},{"deltaTime":0,"channel":1,"type":"channel","noteNumber":47,"velocity":90,"subtype":"noteOn"},{"deltaTime":0,"channel":1,"type":"channel","noteNumber":51,"velocity":71,"subtype":"noteOn"},{"deltaTime":0,"channel":1,"type":"channel","noteNumber":53,"velocity":68,"subtype":"noteOn"},{"deltaTime":0,"channel":1,"type":"channel","noteNumber":56,"velocity":74,"subtype":"noteOn"},{"deltaTime":288,"channel":1,"type":"channel","subtype":"noteOff","noteNumber":47,"velocity":90},{"deltaTime":0,"channel":1,"type":"channel","subtype":"noteOff","noteNumber":51,"velocity":71},{"deltaTime":0,"channel":1,"type":"channel","subtype":"noteOff","noteNumber":53,"velocity":68},{"deltaTime":0,"channel":1,"type":"channel","subtype":"noteOff","noteNumber":56,"velocity":74},{"deltaTime":0,"type":"meta","subtype":"timeSignature","numerator":4,"denominator":4,"metronome":24,"thirtyseconds":8},{"deltaTime":0,"type":"meta","subtype":"keySignature","key":-6,"scale":0},{"deltaTime":0,"channel":1,"type":"channel","noteNumber":51,"velocity":65,"subtype":"noteOn"},{"deltaTime":0,"channel":1,"type":"channel","noteNumber":54,"velocity":56,"subtype":"noteOn"},{"deltaTime":0,"channel":1,"type":"channel","noteNumber":58,"velocity":82,"subtype":"noteOn"},{"deltaTime":288,"channel":1,"type":"channel","subtype":"noteOff","noteNumber":51,"velocity":65},{"deltaTime":0,"channel":1,"type":"channel","subtype":"noteOff","noteNumber":54,"velocity":56},{"deltaTime":0,"channel":1,"type":"channel","subtype":"noteOff","noteNumber":58,"velocity":82},{"deltaTime":0,"type":"meta","subtype":"timeSignature","numerator":4,"denominator":4,"metronome":24,"thirtyseconds":8},{"deltaTime":0,"type":"meta","subtype":"keySignature","key":-6,"scale":0},{"deltaTime":0,"channel":1,"type":"channel","noteNumber":49,"velocity":63,"subtype":"noteOn"},{"deltaTime":0,"channel":1,"type":"channel","noteNumber":53,"velocity":42,"subtype":"noteOn"},{"deltaTime":0,"channel":1,"type":"channel","noteNumber":56,"velocity":41,"subtype":"noteOn"},{"deltaTime":288,"channel":1,"type":"channel","subtype":"noteOff","noteNumber":49,"velocity":63},{"deltaTime":0,"channel":1,"type":"channel","subtype":"noteOff","noteNumber":53,"velocity":42},{"deltaTime":0,"channel":1,"type":"channel","subtype":"noteOff","noteNumber":56,"velocity":41},{"deltaTime":0,"type":"meta","subtype":"timeSignature","numerator":4,"denominator":4,"metronome":24,"thirtyseconds":8},{"deltaTime":0,"type":"meta","subtype":"keySignature","key":-6,"scale":0},{"deltaTime":0,"channel":1,"type":"channel","noteNumber":47,"velocity":82,"subtype":"noteOn"},{"deltaTime":0,"channel":1,"type":"channel","noteNumber":53,"velocity":65,"subtype":"noteOn"},{"deltaTime":0,"channel":1,"type":"channel","noteNumber":56,"velocity":58,"subtype":"noteOn"},{"deltaTime":288,"channel":1,"type":"channel","subtype":"noteOff","noteNumber":47,"velocity":82},{"deltaTime":0,"channel":1,"type":"channel","subtype":"noteOff","noteNumber":53,"velocity":65},{"deltaTime":0,"channel":1,"type":"channel","subtype":"noteOff","noteNumber":56,"velocity":58},{"deltaTime":0,"type":"meta","subtype":"timeSignature","numerator":4,"denominator":4,"metronome":24,"thirtyseconds":8},{"deltaTime":0,"type":"meta","subtype":"keySignature","key":-6,"scale":0},{"deltaTime":0,"channel":1,"type":"channel","noteNumber":49,"velocity":63,"subtype":"noteOn"},{"deltaTime":0,"channel":1,"type":"channel","noteNumber":53,"velocity":59,"subtype":"noteOn"},{"deltaTime":0,"channel":1,"type":"channel","noteNumber":58,"velocity":66,"subtype":"noteOn"},{"deltaTime":288,"channel":1,"type":"channel","subtype":"noteOff","noteNumber":49,"velocity":63},{"deltaTime":0,"channel":1,"type":"channel","subtype":"noteOff","noteNumber":53,"velocity":59},{"deltaTime":0,"channel":1,"type":"channel","subtype":"noteOff","noteNumber":58,"velocity":66},{"deltaTime":0,"type":"meta","subtype":"timeSignature","numerator":4,"denominator":4,"metronome":24,"thirtyseconds":8},{"deltaTime":0,"type":"meta","subtype":"keySignature","key":-6,"scale":0},{"deltaTime":0,"channel":1,"type":"channel","noteNumber":51,"velocity":65,"subtype":"noteOn"},{"deltaTime":0,"channel":1,"type":"channel","noteNumber":54,"velocity":56,"subtype":"noteOn"},{"deltaTime":0,"channel":1,"type":"channel","noteNumber":58,"velocity":82,"subtype":"noteOn"},{"deltaTime":288,"channel":1,"type":"channel","subtype":"noteOff","noteNumber":51,"velocity":65},{"deltaTime":0,"channel":1,"type":"channel","subtype":"noteOff","noteNumber":54,"velocity":56},{"deltaTime":0,"channel":1,"type":"channel","subtype":"noteOff","noteNumber":58,"velocity":82},{"deltaTime":0,"type":"meta","subtype":"timeSignature","numerator":4,"denominator":4,"metronome":24,"thirtyseconds":8},{"deltaTime":0,"type":"meta","subtype":"keySignature","key":-6,"scale":0},{"deltaTime":0,"channel":1,"type":"channel","noteNumber":49,"velocity":63,"subtype":"noteOn"},{"deltaTime":0,"channel":1,"type":"channel","noteNumber":53,"velocity":42,"subtype":"noteOn"},{"deltaTime":0,"channel":1,"type":"channel","noteNumber":56,"velocity":41,"subtype":"noteOn"},{"deltaTime":288,"channel":1,"type":"channel","subtype":"noteOff","noteNumber":49,"velocity":63},{"deltaTime":0,"channel":1,"type":"channel","subtype":"noteOff","noteNumber":53,"velocity":42},{"deltaTime":0,"channel":1,"type":"channel","subtype":"noteOff","noteNumber":56,"velocity":41},{"deltaTime":0,"type":"meta","subtype":"timeSignature","numerator":4,"denominator":4,"metronome":24,"thirtyseconds":8},{"deltaTime":0,"type":"meta","subtype":"keySignature","key":-6,"scale":0},{"deltaTime":0,"channel":1,"type":"channel","noteNumber":47,"velocity":82,"subtype":"noteOn"},{"deltaTime":0,"channel":1,"type":"channel","noteNumber":53,"velocity":65,"subtype":"noteOn"},{"deltaTime":0,"channel":1,"type":"channel","noteNumber":56,"velocity":58,"subtype":"noteOn"},{"deltaTime":288,"channel":1,"type":"channel","subtype":"noteOff","noteNumber":47,"velocity":82},{"deltaTime":0,"channel":1,"type":"channel","subtype":"noteOff","noteNumber":53,"velocity":65},{"deltaTime":0,"channel":1,"type":"channel","subtype":"noteOff","noteNumber":56,"velocity":58},{"deltaTime":0,"type":"meta","subtype":"timeSignature","numerator":4,"denominator":4,"metronome":24,"thirtyseconds":8},{"deltaTime":0,"type":"meta","subtype":"keySignature","key":-6,"scale":0},{"deltaTime":0,"channel":1,"type":"channel","noteNumber":49,"velocity":63,"subtype":"noteOn"},{"deltaTime":0,"channel":1,"type":"channel","noteNumber":53,"velocity":59,"subtype":"noteOn"},{"deltaTime":0,"channel":1,"type":"channel","noteNumber":58,"velocity":66,"subtype":"noteOn"},{"deltaTime":288,"channel":1,"type":"channel","subtype":"noteOff","noteNumber":49,"velocity":63},{"deltaTime":0,"channel":1,"type":"channel","subtype":"noteOff","noteNumber":53,"velocity":59},{"deltaTime":0,"channel":1,"type":"channel","subtype":"noteOff","noteNumber":58,"velocity":66},{"deltaTime":0,"type":"meta","subtype":"timeSignature","numerator":4,"denominator":4,"metronome":24,"thirtyseconds":8},{"deltaTime":0,"type":"meta","subtype":"keySignature","key":-6,"scale":0},{"deltaTime":0,"channel":1,"type":"channel","noteNumber":51,"velocity":65,"subtype":"noteOn"},{"deltaTime":0,"channel":1,"type":"channel","noteNumber":54,"velocity":56,"subtype":"noteOn"},{"deltaTime":0,"channel":1,"type":"channel","noteNumber":58,"velocity":82,"subtype":"noteOn"},{"deltaTime":288,"channel":1,"type":"channel","subtype":"noteOff","noteNumber":51,"velocity":65},{"deltaTime":0,"channel":1,"type":"channel","subtype":"noteOff","noteNumber":54,"velocity":56},{"deltaTime":0,"channel":1,"type":"channel","subtype":"noteOff","noteNumber":58,"velocity":82},{"deltaTime":0,"type":"meta","subtype":"timeSignature","numerator":4,"denominator":4,"metronome":24,"thirtyseconds":8},{"deltaTime":0,"type":"meta","subtype":"keySignature","key":-6,"scale":0},{"deltaTime":0,"channel":1,"type":"channel","noteNumber":49,"velocity":63,"subtype":"noteOn"},{"deltaTime":0,"channel":1,"type":"channel","noteNumber":53,"velocity":42,"subtype":"noteOn"},{"deltaTime":0,"channel":1,"type":"channel","noteNumber":56,"velocity":41,"subtype":"noteOn"},{"deltaTime":288,"channel":1,"type":"channel","subtype":"noteOff","noteNumber":49,"velocity":63},{"deltaTime":0,"channel":1,"type":"channel","subtype":"noteOff","noteNumber":53,"velocity":42},{"deltaTime":0,"channel":1,"type":"channel","subtype":"noteOff","noteNumber":56,"velocity":41},{"deltaTime":0,"type":"meta","subtype":"timeSignature","numerator":4,"denominator":4,"metronome":24,"thirtyseconds":8},{"deltaTime":0,"type":"meta","subtype":"keySignature","key":-6,"scale":0},{"deltaTime":0,"channel":1,"type":"channel","noteNumber":47,"velocity":82,"subtype":"noteOn"},{"deltaTime":0,"channel":1,"type":"channel","noteNumber":53,"velocity":65,"subtype":"noteOn"},{"deltaTime":0,"channel":1,"type":"channel","noteNumber":56,"velocity":58,"subtype":"noteOn"},{"deltaTime":288,"channel":1,"type":"channel","subtype":"noteOff","noteNumber":47,"velocity":82},{"deltaTime":0,"channel":1,"type":"channel","subtype":"noteOff","noteNumber":53,"velocity":65},{"deltaTime":0,"channel":1,"type":"channel","subtype":"noteOff","noteNumber":56,"velocity":58},{"deltaTime":0,"type":"meta","subtype":"timeSignature","numerator":4,"denominator":4,"metronome":24,"thirtyseconds":8},{"deltaTime":0,"type":"meta","subtype":"keySignature","key":-6,"scale":0},{"deltaTime":0,"channel":1,"type":"channel","noteNumber":49,"velocity":63,"subtype":"noteOn"},{"deltaTime":0,"channel":1,"type":"channel","noteNumber":53,"velocity":59,"subtype":"noteOn"},{"deltaTime":0,"channel":1,"type":"channel","noteNumber":58,"velocity":66,"subtype":"noteOn"},{"deltaTime":288,"channel":1,"type":"channel","subtype":"noteOff","noteNumber":49,"velocity":63},{"deltaTime":0,"channel":1,"type":"channel","subtype":"noteOff","noteNumber":53,"velocity":59},{"deltaTime":0,"channel":1,"type":"channel","subtype":"noteOff","noteNumber":58,"velocity":66},{"deltaTime":0,"type":"meta","subtype":"timeSignature","numerator":4,"denominator":4,"metronome":24,"thirtyseconds":8},{"deltaTime":0,"type":"meta","subtype":"keySignature","key":-6,"scale":0},{"deltaTime":0,"channel":1,"type":"channel","noteNumber":47,"velocity":47,"subtype":"noteOn"},{"deltaTime":0,"channel":1,"type":"channel","noteNumber":51,"velocity":63,"subtype":"noteOn"},{"deltaTime":0,"channel":1,"type":"channel","noteNumber":54,"velocity":53,"subtype":"noteOn"},{"deltaTime":0,"channel":1,"type":"channel","noteNumber":58,"velocity":47,"subtype":"noteOn"},{"deltaTime":288,"channel":1,"type":"channel","subtype":"noteOff","noteNumber":47,"velocity":47},{"deltaTime":0,"channel":1,"type":"channel","subtype":"noteOff","noteNumber":51,"velocity":63},{"deltaTime":0,"channel":1,"type":"channel","subtype":"noteOff","noteNumber":54,"velocity":53},{"deltaTime":0,"channel":1,"type":"channel","subtype":"noteOff","noteNumber":58,"velocity":47},{"deltaTime":0,"type":"meta","subtype":"timeSignature","numerator":4,"denominator":4,"metronome":24,"thirtyseconds":8},{"deltaTime":0,"type":"meta","subtype":"keySignature","key":-6,"scale":0},{"deltaTime":0,"channel":1,"type":"channel","noteNumber":47,"velocity":39,"subtype":"noteOn"},{"deltaTime":0,"channel":1,"type":"channel","noteNumber":51,"velocity":64,"subtype":"noteOn"},{"deltaTime":0,"channel":1,"type":"channel","noteNumber":56,"velocity":58,"subtype":"noteOn"},{"deltaTime":288,"channel":1,"type":"channel","subtype":"noteOff","noteNumber":47,"velocity":39},{"deltaTime":0,"channel":1,"type":"channel","subtype":"noteOff","noteNumber":51,"velocity":64},{"deltaTime":0,"channel":1,"type":"channel","subtype":"noteOff","noteNumber":56,"velocity":58},{"deltaTime":0,"type":"meta","subtype":"timeSignature","numerator":4,"denominator":4,"metronome":24,"thirtyseconds":8},{"deltaTime":0,"type":"meta","subtype":"keySignature","key":-6,"scale":0},{"deltaTime":0,"channel":1,"type":"channel","noteNumber":47,"velocity":87,"subtype":"noteOn"},{"deltaTime":0,"channel":1,"type":"channel","noteNumber":49,"velocity":78,"subtype":"noteOn"},{"deltaTime":0,"channel":1,"type":"channel","noteNumber":53,"velocity":67,"subtype":"noteOn"},{"deltaTime":0,"channel":1,"type":"channel","noteNumber":56,"velocity":67,"subtype":"noteOn"},{"deltaTime":288,"channel":1,"type":"channel","subtype":"noteOff","noteNumber":47,"velocity":87},{"deltaTime":0,"channel":1,"type":"channel","subtype":"noteOff","noteNumber":49,"velocity":78},{"deltaTime":0,"channel":1,"type":"channel","subtype":"noteOff","noteNumber":53,"velocity":67},{"deltaTime":0,"channel":1,"type":"channel","subtype":"noteOff","noteNumber":56,"velocity":67},{"deltaTime":0,"type":"meta","subtype":"timeSignature","numerator":4,"denominator":4,"metronome":24,"thirtyseconds":8},{"deltaTime":0,"type":"meta","subtype":"keySignature","key":-6,"scale":0},{"deltaTime":0,"channel":1,"type":"channel","noteNumber":47,"velocity":90,"subtype":"noteOn"},{"deltaTime":0,"channel":1,"type":"channel","noteNumber":51,"velocity":71,"subtype":"noteOn"},{"deltaTime":0,"channel":1,"type":"channel","noteNumber":53,"velocity":68,"subtype":"noteOn"},{"deltaTime":0,"channel":1,"type":"channel","noteNumber":56,"velocity":74,"subtype":"noteOn"},{"deltaTime":288,"channel":1,"type":"channel","subtype":"noteOff","noteNumber":47,"velocity":90},{"deltaTime":0,"channel":1,"type":"channel","subtype":"noteOff","noteNumber":51,"velocity":71},{"deltaTime":0,"channel":1,"type":"channel","subtype":"noteOff","noteNumber":53,"velocity":68},{"deltaTime":0,"channel":1,"type":"channel","subtype":"noteOff","noteNumber":56,"velocity":74},{"deltaTime":0,"type":"meta","subtype":"endOfTrack"}]]}