0, 0, Header, 1, 2, 480
1, 0, Start_track
1, 0, Title_t, "untitled"
1, 0, Text_t, "\012"
1, 0, SMPTE_offset, 96, 0, 3, 0, 0
1, 0, Time_signature, 4, 2, 24, 8
1, 0, Key_signature, 4, "major"
1, 0, Tempo, 1090909
1, 0, Marker_t, "Transcribed by Edward Grant"
1, 130560, Tempo, 2400000
1, 130560, End_track
2, 0, Start_track
2, 0, MIDI_port, 0
2, 0, Title_t, "1st"
2, 0, Program_c, 0, 0
2, 0, Control_c, 0, 67, 127
2, 0, Control_c, 0, 64, 127
2, 25, Note_on_c, 0, 56, 96
2, 25, Note_on_c, 0, 49, 103
2, 25, Note_on_c, 0, 37, 103
2, 194, Note_on_c, 0, 56, 0
2, 194, Note_on_c, 0, 61, 96
2, 353, Note_on_c, 0, 61, 0
2, 353, Note_on_c, 0, 64, 96
2, 514, Note_on_c, 0, 64, 0
2, 514, Note_on_c, 0, 56, 96
2, 674, Note_on_c, 0, 56, 0
2, 674, Note_on_c, 0, 61, 96
2, 833, Note_on_c, 0, 61, 0
2, 833, Note_on_c, 0, 64, 96
2, 994, Note_on_c, 0, 64, 0
2, 994, Note_on_c, 0, 56, 96
2, 1153, Note_on_c, 0, 56, 0
2, 1153, Note_on_c, 0, 61, 96
2, 1313, Note_on_c, 0, 61, 0
2, 1313, Note_on_c, 0, 64, 96
2, 1474, Note_on_c, 0, 64, 0
2, 1474, Note_on_c, 0, 56, 96
2, 1633, Note_on_c, 0, 56, 0
2, 1633, Note_on_c, 0, 61, 96
2, 1793, Note_on_c, 0, 61, 0
2, 1793, Note_on_c, 0, 64, 96
2, 1915, Control_c, 0, 64, 0
2, 1920, Control_c, 0, 64, 127
2, 1954, Note_on_c, 0, 64, 0
2, 1954, Note_on_c, 0, 37, 0
2, 1954, Note_on_c, 0, 49, 0
2, 1954, Note_on_c, 0, 56, 96
2, 1954, Note_on_c, 0, 47, 103
2, 1954, Note_on_c, 0, 35, 103
2, 2113, Note_on_c, 0, 56, 0
2, 2113, Note_on_c, 0, 61, 96
2, 2274, Note_on_c, 0, 61, 0
2, 2274, Note_on_c, 0, 64, 96
2, 2434, Note_on_c, 0, 64, 0
2, 2434, Note_on_c, 0, 56, 96
2, 2593, Note_on_c, 0, 56, 0
2, 2593, Note_on_c, 0, 61, 96
2, 2754, Note_on_c, 0, 61, 0
2, 2754, Note_on_c, 0, 64, 96
2, 2914, Note_on_c, 0, 64, 0
2, 2914, Note_on_c, 0, 56, 96
2, 3073, Note_on_c, 0, 56, 0
2, 3073, Note_on_c, 0, 61, 96
2, 3234, Note_on_c, 0, 61, 0
2, 3234, Note_on_c, 0, 64, 96
2, 3393, Note_on_c, 0, 64, 0
2, 3393, Note_on_c, 0, 56, 96
2, 3553, Note_on_c, 0, 56, 0
2, 3553, Note_on_c, 0, 61, 96
2, 3714, Note_on_c, 0, 61, 0
2, 3714, Note_on_c, 0, 64, 96
2, 3835, Control_c, 0, 64, 0
2, 3840, Control_c, 0, 64, 127
2, 3873, Note_on_c, 0, 64, 0
2, 3873, Note_on_c, 0, 35, 0
2, 3873, Note_on_c, 0, 47, 0
2, 3873, Note_on_c, 0, 57, 96
2, 3874, Note_on_c, 0, 45, 103
2, 3874, Note_on_c, 0, 33, 103
2, 4033, Note_on_c, 0, 57, 0
2, 4033, Note_on_c, 0, 61, 96
2, 4194, Note_on_c, 0, 61, 0
2, 4194, Note_on_c, 0, 64, 96
2, 4353, Note_on_c, 0, 64, 0
2, 4353, Note_on_c, 0, 57, 96
2, 4513, Note_on_c, 0, 57, 0
2, 4513, Note_on_c, 0, 61, 96
2, 4674, Note_on_c, 0, 61, 0
2, 4674, Note_on_c, 0, 64, 96
2, 4795, Control_c, 0, 64, 0
2, 4800, Control_c, 0, 64, 127
2, 4833, Note_on_c, 0, 64, 0
2, 4833, Note_on_c, 0, 33, 0
2, 4833, Note_on_c, 0, 45, 0
2, 4833, Note_on_c, 0, 57, 96
2, 4834, Note_on_c, 0, 42, 103
2, 4834, Note_on_c, 0, 30, 103
2, 4994, Note_on_c, 0, 57, 0
2, 4994, Note_on_c, 0, 62, 96
2, 5154, Note_on_c, 0, 62, 0
2, 5154, Note_on_c, 0, 66, 96
2, 5313, Note_on_c, 0, 66, 0
2, 5313, Note_on_c, 0, 57, 96
2, 5474, Note_on_c, 0, 57, 0
2, 5474, Note_on_c, 0, 62, 96
2, 5634, Note_on_c, 0, 62, 0
2, 5634, Note_on_c, 0, 66, 96
2, 5755, Control_c, 0, 64, 0
2, 5760, Control_c, 0, 64, 127
2, 5793, Note_on_c, 0, 66, 0
2, 5793, Note_on_c, 0, 30, 0
2, 5793, Note_on_c, 0, 42, 0
2, 5793, Note_on_c, 0, 56, 96
2, 5794, Note_on_c, 0, 44, 103
2, 5794, Note_on_c, 0, 32, 103
2, 5954, Note_on_c, 0, 56, 0
2, 5954, Note_on_c, 0, 60, 96
2, 6113, Note_on_c, 0, 60, 0
2, 6113, Note_on_c, 0, 66, 96
2, 6273, Note_on_c, 0, 66, 0
2, 6273, Note_on_c, 0, 56, 96
2, 6434, Note_on_c, 0, 56, 0
2, 6434, Note_on_c, 0, 61, 96
2, 6593, Note_on_c, 0, 61, 0
2, 6593, Note_on_c, 0, 64, 96
2, 6715, Control_c, 0, 64, 0
2, 6720, Control_c, 0, 64, 127
2, 6753, Note_on_c, 0, 64, 0
2, 6753, Note_on_c, 0, 32, 0
2, 6753, Note_on_c, 0, 44, 0
2, 6753, Note_on_c, 0, 56, 96
2, 6753, Note_on_c, 0, 44, 103
2, 6754, Note_on_c, 0, 32, 103
2, 6914, Note_on_c, 0, 56, 0
2, 6914, Note_on_c, 0, 61, 96
2, 7073, Note_on_c, 0, 61, 0
2, 7073, Note_on_c, 0, 63, 96
2, 7233, Note_on_c, 0, 63, 0
2, 7233, Note_on_c, 0, 54, 96
2, 7394, Note_on_c, 0, 54, 0
2, 7394, Note_on_c, 0, 60, 96
2, 7553, Note_on_c, 0, 60, 0
2, 7553, Note_on_c, 0, 63, 96
2, 7675, Control_c, 0, 64, 0
2, 7709, Note_on_c, 0, 63, 0
2, 7709, Note_on_c, 0, 32, 0
2, 7709, Note_on_c, 0, 44, 0
2, 7709, Note_on_c, 0, 44, 103
2, 7714, Note_on_c, 0, 52, 96
2, 7714, Note_on_c, 0, 49, 103
2, 7715, Note_on_c, 0, 37, 103
2, 7874, Note_on_c, 0, 52, 0
2, 7874, Note_on_c, 0, 56, 96
2, 8033, Note_on_c, 0, 56, 0
2, 8033, Note_on_c, 0, 61, 96
2, 8160, Control_c, 0, 64, 127
2, 8194, Note_on_c, 0, 61, 0
2, 8194, Note_on_c, 0, 56, 96
2, 8354, Note_on_c, 0, 56, 0
2, 8354, Note_on_c, 0, 61, 96
2, 8513, Note_on_c, 0, 61, 0
2, 8513, Note_on_c, 0, 64, 96
2, 8635, Control_c, 0, 64, 0
2, 8674, Note_on_c, 0, 64, 0
2, 8674, Note_on_c, 0, 56, 96
2, 8740, Control_c, 0, 64, 127
2, 8740, Control_c, 0, 64, 127
2, 8833, Note_on_c, 0, 56, 0
2, 8833, Note_on_c, 0, 61, 96
2, 8993, Note_on_c, 0, 61, 0
2, 8993, Note_on_c, 0, 64, 96
2, 9040, Control_c, 0, 64, 0
2, 9040, Control_c, 0, 64, 0
2, 9147, Note_on_c, 0, 68, 121
2, 9154, Note_on_c, 0, 64, 0
2, 9154, Note_on_c, 0, 56, 96
2, 9313, Note_on_c, 0, 56, 0
2, 9313, Note_on_c, 0, 61, 96
2, 9473, Note_on_c, 0, 61, 0
2, 9473, Note_on_c, 0, 64, 96
2, 9514, Note_on_c, 0, 68, 0
2, 9514, Note_on_c, 0, 68, 121
2, 9634, Note_on_c, 0, 68, 0
2, 9634, Note_on_c, 0, 64, 0
2, 9634, Note_on_c, 0, 44, 0
2, 9634, Note_on_c, 0, 49, 0
2, 9634, Note_on_c, 0, 37, 0
2, 9634, Note_on_c, 0, 68, 121
2, 9634, Note_on_c, 0, 56, 96
2, 9634, Note_on_c, 0, 48, 103
2, 9635, Note_on_c, 0, 36, 103
2, 9635, Note_on_c, 0, 44, 103
2, 9793, Note_on_c, 0, 56, 0
2, 9793, Note_on_c, 0, 63, 96
2, 9954, Note_on_c, 0, 63, 0
2, 9954, Note_on_c, 0, 66, 96
2, 10114, Note_on_c, 0, 66, 0
2, 10114, Note_on_c, 0, 56, 96
2, 10273, Note_on_c, 0, 56, 0
2, 10273, Note_on_c, 0, 63, 96
2, 10434, Note_on_c, 0, 63, 0
2, 10434, Note_on_c, 0, 66, 96
2, 10594, Note_on_c, 0, 66, 0
2, 10594, Note_on_c, 0, 56, 96
2, 10753, Note_on_c, 0, 56, 0
2, 10753, Note_on_c, 0, 63, 96
2, 10914, Note_on_c, 0, 63, 0
2, 10914, Note_on_c, 0, 66, 96
2, 11073, Note_on_c, 0, 66, 0
2, 11073, Note_on_c, 0, 68, 0
2, 11073, Note_on_c, 0, 68, 121
2, 11074, Note_on_c, 0, 56, 96
2, 11233, Note_on_c, 0, 56, 0
2, 11233, Note_on_c, 0, 63, 96
2, 11394, Note_on_c, 0, 63, 0
2, 11394, Note_on_c, 0, 66, 96
2, 11434, Note_on_c, 0, 68, 0
2, 11434, Note_on_c, 0, 68, 121
2, 11553, Note_on_c, 0, 68, 0
2, 11553, Note_on_c, 0, 66, 0
2, 11553, Note_on_c, 0, 44, 0
2, 11553, Note_on_c, 0, 48, 0
2, 11553, Note_on_c, 0, 36, 0
2, 11553, Note_on_c, 0, 68, 121
2, 11554, Note_on_c, 0, 56, 96
2, 11554, Note_on_c, 0, 49, 103
2, 11555, Note_on_c, 0, 37, 103
2, 11620, Control_c, 0, 64, 127
2, 11620, Control_c, 0, 64, 127
2, 11713, Note_on_c, 0, 56, 0
2, 11713, Note_on_c, 0, 61, 96
2, 11870, Control_c, 0, 64, 0
2, 11870, Control_c, 0, 64, 0
2, 11874, Note_on_c, 0, 61, 0
2, 11874, Note_on_c, 0, 64, 96
2, 12001, Control_c, 0, 64, 127
2, 12033, Note_on_c, 0, 64, 0
2, 12033, Note_on_c, 0, 56, 96
2, 12193, Note_on_c, 0, 56, 0
2, 12193, Note_on_c, 0, 61, 96
2, 12354, Note_on_c, 0, 61, 0
2, 12354, Note_on_c, 0, 64, 96
2, 12426, Control_c, 0, 64, 0
2, 12503, Control_c, 0, 64, 127
2, 12513, Note_on_c, 0, 64, 0
2, 12513, Note_on_c, 0, 37, 0
2, 12513, Note_on_c, 0, 49, 0
2, 12513, Note_on_c, 0, 68, 0
2, 12513, Note_on_c, 0, 69, 121
2, 12514, Note_on_c, 0, 57, 96
2, 12514, Note_on_c, 0, 42, 103
2, 12514, Note_on_c, 0, 30, 103
2, 12674, Note_on_c, 0, 57, 0
2, 12674, Note_on_c, 0, 61, 96
2, 12834, Note_on_c, 0, 61, 0
2, 12834, Note_on_c, 0, 66, 96
2, 12919, Control_c, 0, 64, 0
2, 12993, Note_on_c, 0, 66, 0
2, 12993, Note_on_c, 0, 57, 96
2, 13154, Note_on_c, 0, 57, 0
2, 13154, Note_on_c, 0, 61, 96
2, 13314, Note_on_c, 0, 61, 0
2, 13314, Note_on_c, 0, 66, 96
2, 13473, Note_on_c, 0, 66, 0
2, 13473, Note_on_c, 0, 30, 0
2, 13473, Note_on_c, 0, 42, 0
2, 13473, Note_on_c, 0, 69, 0
2, 13473, Note_on_c, 0, 68, 121
2, 13474, Note_on_c, 0, 56, 96
2, 13474, Note_on_c, 0, 47, 103
2, 13474, Note_on_c, 0, 35, 103
2, 13634, Note_on_c, 0, 56, 0
2, 13634, Note_on_c, 0, 59, 96
2, 13794, Note_on_c, 0, 59, 0
2, 13794, Note_on_c, 0, 64, 96
2, 13953, Note_on_c, 0, 64, 0
2, 13953, Note_on_c, 0, 56, 96
2, 13976, Control_c, 0, 64, 127
2, 14114, Note_on_c, 0, 56, 0
2, 14114, Note_on_c, 0, 59, 96
2, 14273, Note_on_c, 0, 59, 0
2, 14273, Note_on_c, 0, 64, 96
2, 14433, Note_on_c, 0, 64, 0
2, 14433, Note_on_c, 0, 35, 0
2, 14433, Note_on_c, 0, 47, 0
2, 14433, Note_on_c, 0, 68, 0
2, 14433, Note_on_c, 0, 66, 121
2, 14433, Note_on_c, 0, 57, 96
2, 14434, Note_on_c, 0, 47, 103
2, 14434, Note_on_c, 0, 35, 103
2, 14594, Note_on_c, 0, 57, 0
2, 14594, Note_on_c, 0, 59, 96
2, 14753, Note_on_c, 0, 59, 0
2, 14753, Note_on_c, 0, 63, 96
2, 14907, Control_c, 0, 64, 127
2, 14913, Note_on_c, 0, 63, 0
2, 14913, Note_on_c, 0, 66, 0
2, 14913, Note_on_c, 0, 71, 121
2, 14913, Note_on_c, 0, 57, 96
2, 15074, Note_on_c, 0, 57, 0
2, 15074, Note_on_c, 0, 59, 96
2, 15233, Note_on_c, 0, 59, 0
2, 15233, Note_on_c, 0, 63, 96
2, 15394, Note_on_c, 0, 63, 0
2, 15394, Note_on_c, 0, 35, 0
2, 15394, Note_on_c, 0, 47, 0
2, 15394, Note_on_c, 0, 71, 0
2, 15394, Note_on_c, 0, 64, 121
2, 15394, Note_on_c, 0, 56, 96
2, 15395, Note_on_c, 0, 52, 103
2, 15395, Note_on_c, 0, 40, 103
2, 15554, Note_on_c, 0, 56, 0
2, 15554, Note_on_c, 0, 59, 96
2, 15713, Note_on_c, 0, 59, 0
2, 15713, Note_on_c, 0, 64, 96
2, 15874, Note_on_c, 0, 64, 0
2, 15874, Note_on_c, 0, 64, 0
2, 15874, Note_on_c, 0, 56, 96
2, 15879, Control_c, 0, 64, 127
2, 16034, Note_on_c, 0, 56, 0
2, 16034, Note_on_c, 0, 59, 96
2, 16193, Note_on_c, 0, 59, 0
2, 16193, Note_on_c, 0, 64, 96
2, 16354, Note_on_c, 0, 64, 0
2, 16354, Note_on_c, 0, 56, 96
2, 16514, Note_on_c, 0, 56, 0
2, 16514, Note_on_c, 0, 59, 96
2, 16673, Note_on_c, 0, 59, 0
2, 16673, Note_on_c, 0, 64, 96
2, 16834, Note_on_c, 0, 64, 0
2, 16834, Note_on_c, 0, 56, 96
2, 16993, Note_on_c, 0, 56, 0
2, 16993, Note_on_c, 0, 59, 96
2, 17153, Note_on_c, 0, 59, 0
2, 17153, Note_on_c, 0, 64, 96
2, 17236, Control_c, 0, 64, 0
2, 17305, Control_c, 0, 64, 127
2, 17314, Note_on_c, 0, 64, 0
2, 17314, Note_on_c, 0, 52, 0
2, 17314, Note_on_c, 0, 40, 0
2, 17314, Note_on_c, 0, 55, 96
2, 17314, Note_on_c, 0, 52, 103
2, 17315, Note_on_c, 0, 40, 103
2, 17473, Note_on_c, 0, 55, 0
2, 17473, Note_on_c, 0, 59, 96
2, 17633, Note_on_c, 0, 59, 0
2, 17633, Note_on_c, 0, 64, 96
2, 17794, Note_on_c, 0, 64, 0
2, 17794, Note_on_c, 0, 55, 96
2, 17953, Note_on_c, 0, 55, 0
2, 17953, Note_on_c, 0, 59, 96
2, 18114, Note_on_c, 0, 59, 0
2, 18114, Note_on_c, 0, 64, 96
2, 18274, Note_on_c, 0, 64, 0
2, 18274, Note_on_c, 0, 55, 96
2, 18433, Note_on_c, 0, 55, 0
2, 18433, Note_on_c, 0, 59, 96
2, 18594, Note_on_c, 0, 59, 0
2, 18594, Note_on_c, 0, 64, 96
2, 18693, Control_c, 0, 64, 0
2, 18747, Note_on_c, 0, 64, 0
2, 18747, Note_on_c, 0, 67, 121
2, 18753, Note_on_c, 0, 55, 96
2, 18770, Control_c, 0, 64, 127
2, 18913, Note_on_c, 0, 55, 0
2, 18913, Note_on_c, 0, 59, 96
2, 19074, Note_on_c, 0, 59, 0
2, 19074, Note_on_c, 0, 64, 96
2, 19114, Note_on_c, 0, 67, 0
2, 19114, Note_on_c, 0, 67, 121
2, 19233, Note_on_c, 0, 67, 0
2, 19233, Note_on_c, 0, 64, 0
2, 19233, Note_on_c, 0, 40, 0
2, 19233, Note_on_c, 0, 52, 0
2, 19233, Note_on_c, 0, 67, 121
2, 19234, Note_on_c, 0, 55, 96
2, 19234, Note_on_c, 0, 50, 103
2, 19235, Note_on_c, 0, 38, 103
2, 19393, Note_on_c, 0, 55, 0
2, 19393, Note_on_c, 0, 59, 96
2, 19554, Note_on_c, 0, 59, 0
2, 19554, Note_on_c, 0, 65, 96
2, 19678, Control_c, 0, 64, 127
2, 19713, Note_on_c, 0, 65, 0
2, 19713, Note_on_c, 0, 55, 96
2, 19873, Note_on_c, 0, 55, 0
2, 19873, Note_on_c, 0, 59, 96
2, 20034, Note_on_c, 0, 59, 0
2, 20034, Note_on_c, 0, 65, 96
2, 20193, Note_on_c, 0, 65, 0
2, 20193, Note_on_c, 0, 55, 96
2, 20353, Note_on_c, 0, 55, 0
2, 20353, Note_on_c, 0, 59, 96
2, 20514, Note_on_c, 0, 59, 0
2, 20514, Note_on_c, 0, 65, 96
2, 20595, Control_c, 0, 64, 0
2, 20668, Control_c, 0, 64, 127
2, 20673, Note_on_c, 0, 65, 0
2, 20673, Note_on_c, 0, 67, 0
2, 20673, Note_on_c, 0, 67, 121
2, 20674, Note_on_c, 0, 55, 96
2, 20834, Note_on_c, 0, 55, 0
2, 20834, Note_on_c, 0, 59, 96
2, 20994, Note_on_c, 0, 59, 0
2, 20994, Note_on_c, 0, 65, 96
2, 21033, Note_on_c, 0, 67, 0
2, 21033, Note_on_c, 0, 67, 121
2, 21153, Note_on_c, 0, 67, 0
2, 21153, Note_on_c, 0, 65, 0
2, 21153, Note_on_c, 0, 50, 0
2, 21153, Note_on_c, 0, 38, 0
2, 21153, Note_on_c, 0, 67, 121
2, 21154, Note_on_c, 0, 55, 96
2, 21154, Note_on_c, 0, 48, 103
2, 21154, Note_on_c, 0, 36, 103
2, 21314, Note_on_c, 0, 55, 0
2, 21314, Note_on_c, 0, 60, 96
2, 21474, Note_on_c, 0, 60, 0
2, 21474, Note_on_c, 0, 64, 96
2, 21627, Control_c, 0, 64, 127
2, 21633, Note_on_c, 0, 64, 0
2, 21633, Note_on_c, 0, 36, 0
2, 21633, Note_on_c, 0, 48, 0
2, 21633, Note_on_c, 0, 55, 96
2, 21634, Note_on_c, 0, 47, 103
2, 21634, Note_on_c, 0, 35, 103
2, 21794, Note_on_c, 0, 55, 0
2, 21794, Note_on_c, 0, 60, 96
2, 21953, Note_on_c, 0, 60, 0
2, 21953, Note_on_c, 0, 64, 96
2, 22052, Control_c, 0, 64, 0
2, 22113, Note_on_c, 0, 64, 0
2, 22113, Note_on_c, 0, 35, 0
2, 22113, Note_on_c, 0, 47, 0
2, 22113, Note_on_c, 0, 55, 96
2, 22114, Note_on_c, 0, 46, 103
2, 22114, Note_on_c, 0, 34, 103
2, 22128, Control_c, 0, 64, 127
2, 22274, Note_on_c, 0, 55, 0
2, 22274, Note_on_c, 0, 61, 96
2, 22433, Note_on_c, 0, 61, 0
2, 22433, Note_on_c, 0, 64, 96
2, 22593, Note_on_c, 0, 64, 0
2, 22593, Note_on_c, 0, 67, 0
2, 22593, Note_on_c, 0, 66, 121
2, 22593, Note_on_c, 0, 54, 96
2, 22754, Note_on_c, 0, 54, 0
2, 22754, Note_on_c, 0, 61, 96
2, 22913, Note_on_c, 0, 61, 0
2, 22913, Note_on_c, 0, 64, 96
2, 23073, Note_on_c, 0, 64, 0
2, 23073, Note_on_c, 0, 34, 0
2, 23073, Note_on_c, 0, 46, 0
2, 23073, Note_on_c, 0, 66, 0
2, 23073, Note_on_c, 0, 66, 121
2, 23073, Note_on_c, 0, 54, 96
2, 23074, Note_on_c, 0, 47, 103
2, 23074, Note_on_c, 0, 35, 103
2, 23234, Note_on_c, 0, 54, 0
2, 23234, Note_on_c, 0, 59, 96
2, 23393, Note_on_c, 0, 59, 0
2, 23393, Note_on_c, 0, 62, 96
2, 23522, Control_c, 0, 64, 127
2, 23554, Note_on_c, 0, 62, 0
2, 23554, Note_on_c, 0, 54, 96
2, 23714, Note_on_c, 0, 54, 0
2, 23714, Note_on_c, 0, 59, 96
2, 23873, Note_on_c, 0, 59, 0
2, 23873, Note_on_c, 0, 62, 96
2, 23942, Control_c, 0, 64, 0
2, 24034, Note_on_c, 0, 62, 0
2, 24034, Note_on_c, 0, 35, 0
2, 24034, Note_on_c, 0, 47, 0
2, 24034, Note_on_c, 0, 66, 0
2, 24034, Note_on_c, 0, 67, 121
2, 24034, Note_on_c, 0, 55, 96
2, 24035, Note_on_c, 0, 40, 103
2, 24194, Note_on_c, 0, 55, 0
2, 24194, Note_on_c, 0, 59, 96
2, 24353, Note_on_c, 0, 59, 0
2, 24353, Note_on_c, 0, 61, 96
2, 24514, Note_on_c, 0, 61, 0
2, 24514, Note_on_c, 0, 40, 0
2, 24514, Note_on_c, 0, 67, 0
2, 24514, Note_on_c, 0, 64, 121
2, 24514, Note_on_c, 0, 52, 96
2, 24515, Note_on_c, 0, 43, 103
2, 24673, Note_on_c, 0, 52, 0
2, 24673, Note_on_c, 0, 59, 96
2, 24833, Note_on_c, 0, 59, 0
2, 24833, Note_on_c, 0, 61, 96
2, 24993, Control_c, 0, 64, 127
2, 24994, Note_on_c, 0, 61, 0
2, 24994, Note_on_c, 0, 43, 0
2, 24994, Note_on_c, 0, 64, 0
2, 24994, Note_on_c, 0, 66, 121
2, 24994, Note_on_c, 0, 54, 96
2, 24995, Note_on_c, 0, 42, 103
2, 25153, Note_on_c, 0, 54, 0
2, 25153, Note_on_c, 0, 59, 96
2, 25313, Note_on_c, 0, 59, 0
2, 25313, Note_on_c, 0, 62, 96
2, 25392, Control_c, 0, 64, 0
2, 25468, Control_c, 0, 64, 127
2, 25474, Note_on_c, 0, 62, 0
2, 25474, Note_on_c, 0, 54, 96
2, 25633, Note_on_c, 0, 54, 0
2, 25633, Note_on_c, 0, 59, 96
2, 25794, Note_on_c, 0, 59, 0
2, 25794, Note_on_c, 0, 62, 96
2, 25865, Control_c, 0, 64, 0
2, 25948, Note_on_c, 0, 62, 0
2, 25948, Note_on_c, 0, 42, 0
2, 25948, Note_on_c, 0, 66, 0
2, 25948, Control_c, 0, 64, 127
2, 25948, Note_on_c, 0, 30, 103
2, 25954, Note_on_c, 0, 66, 121
2, 25954, Note_on_c, 0, 54, 96
2, 25954, Note_on_c, 0, 42, 103
2, 26113, Note_on_c, 0, 54, 0
2, 26113, Note_on_c, 0, 58, 96
2, 26274, Note_on_c, 0, 58, 0
2, 26274, Note_on_c, 0, 61, 96
2, 26367, Control_c, 0, 64, 0
2, 26434, Note_on_c, 0, 61, 0
2, 26434, Note_on_c, 0, 54, 96
2, 26438, Control_c, 0, 64, 127
2, 26593, Note_on_c, 0, 54, 0
2, 26593, Note_on_c, 0, 58, 96
2, 26754, Note_on_c, 0, 58, 0
2, 26754, Note_on_c, 0, 61, 96
2, 26856, Control_c, 0, 64, 0
2, 26913, Note_on_c, 0, 61, 0
2, 26913, Note_on_c, 0, 42, 0
2, 26913, Note_on_c, 0, 66, 0
2, 26913, Note_on_c, 0, 30, 0
2, 26913, Note_on_c, 0, 59, 121
2, 26914, Note_on_c, 0, 47, 103
2, 26914, Note_on_c, 0, 35, 103
2, 26924, Control_c, 0, 64, 127
2, 27067, Note_on_c, 0, 62, 96
2, 27234, Note_on_c, 0, 62, 0
2, 27234, Note_on_c, 0, 66, 96
2, 27322, Control_c, 0, 64, 0
2, 27393, Note_on_c, 0, 66, 0
2, 27393, Note_on_c, 0, 59, 0
2, 27393, Note_on_c, 0, 59, 96
2, 27398, Control_c, 0, 64, 127
2, 27553, Note_on_c, 0, 59, 0
2, 27553, Note_on_c, 0, 62, 96
2, 27714, Note_on_c, 0, 62, 0
2, 27714, Note_on_c, 0, 66, 96
2, 27873, Note_on_c, 0, 66, 0
2, 27873, Note_on_c, 0, 59, 96
2, 28033, Note_on_c, 0, 59, 0
2, 28033, Note_on_c, 0, 63, 96
2, 28194, Note_on_c, 0, 63, 0
2, 28194, Note_on_c, 0, 66, 96
2, 28265, Control_c, 0, 64, 0
2, 28337, Control_c, 0, 64, 127
2, 28347, Note_on_c, 0, 66, 0
2, 28347, Note_on_c, 0, 71, 121
2, 28353, Note_on_c, 0, 59, 96
2, 28514, Note_on_c, 0, 59, 0
2, 28514, Note_on_c, 0, 63, 96
2, 28674, Note_on_c, 0, 63, 0
2, 28674, Note_on_c, 0, 66, 96
2, 28761, Control_c, 0, 64, 0
2, 28828, Control_c, 0, 64, 127
2, 28833, Note_on_c, 0, 66, 0
2, 28833, Note_on_c, 0, 71, 0
2, 28833, Note_on_c, 0, 72, 121
2, 28834, Note_on_c, 0, 59, 96
2, 28994, Note_on_c, 0, 59, 0
2, 28994, Note_on_c, 0, 64, 96
2, 29154, Note_on_c, 0, 64, 0
2, 29154, Note_on_c, 0, 67, 96
2, 29229, Control_c, 0, 64, 0
2, 29302, Control_c, 0, 64, 127
2, 29313, Note_on_c, 0, 67, 0
2, 29313, Note_on_c, 0, 47, 0
2, 29313, Note_on_c, 0, 35, 0
2, 29313, Note_on_c, 0, 59, 96
2, 29314, Note_on_c, 0, 52, 114
2, 29314, Note_on_c, 0, 40, 114
2, 29474, Note_on_c, 0, 59, 0
2, 29474, Note_on_c, 0, 64, 96
2, 29634, Note_on_c, 0, 64, 0
2, 29634, Note_on_c, 0, 67, 96
2, 29691, Control_c, 0, 64, 0
2, 29793, Note_on_c, 0, 67, 0
2, 29793, Note_on_c, 0, 40, 0
2, 29793, Note_on_c, 0, 52, 0
2, 29793, Note_on_c, 0, 59, 96
2, 29794, Note_on_c, 0, 55, 114
2, 29794, Note_on_c, 0, 43, 114
2, 29954, Note_on_c, 0, 59, 0
2, 29954, Note_on_c, 0, 64, 96
2, 30113, Note_on_c, 0, 64, 0
2, 30113, Note_on_c, 0, 67, 96
2, 30273, Note_on_c, 0, 67, 0
2, 30273, Note_on_c, 0, 72, 0
2, 30273, Note_on_c, 0, 55, 0
2, 30273, Note_on_c, 0, 43, 0
2, 30273, Note_on_c, 0, 70, 121
2, 30273, Note_on_c, 0, 59, 96
2, 30274, Control_c, 0, 64, 127
2, 30274, Note_on_c, 0, 52, 103
2, 30274, Note_on_c, 0, 40, 103
2, 30434, Note_on_c, 0, 59, 0
2, 30434, Note_on_c, 0, 64, 96
2, 30593, Note_on_c, 0, 64, 0
2, 30593, Note_on_c, 0, 67, 96
2, 30662, Control_c, 0, 64, 0
2, 30753, Note_on_c, 0, 67, 0
2, 30753, Note_on_c, 0, 70, 0
2, 30753, Note_on_c, 0, 52, 0
2, 30753, Note_on_c, 0, 40, 0
2, 30753, Note_on_c, 0, 71, 121
2, 30753, Note_on_c, 0, 59, 96
2, 30754, Note_on_c, 0, 47, 103
2, 30754, Note_on_c, 0, 35, 103
2, 30914, Note_on_c, 0, 59, 0
2, 30914, Note_on_c, 0, 63, 96
2, 31073, Note_on_c, 0, 63, 0
2, 31073, Note_on_c, 0, 66, 96
2, 31213, Control_c, 0, 64, 127
2, 31234, Note_on_c, 0, 66, 0
2, 31234, Note_on_c, 0, 59, 96
2, 31394, Note_on_c, 0, 59, 0
2, 31394, Note_on_c, 0, 63, 96
2, 31553, Note_on_c, 0, 63, 0
2, 31553, Note_on_c, 0, 66, 96
2, 31639, Control_c, 0, 64, 0
2, 31702, Control_c, 0, 64, 127
2, 31714, Note_on_c, 0, 66, 0
2, 31714, Note_on_c, 0, 59, 96
2, 31874, Note_on_c, 0, 59, 0
2, 31874, Note_on_c, 0, 63, 96
2, 32033, Note_on_c, 0, 63, 0
2, 32033, Note_on_c, 0, 66, 96
2, 32134, Control_c, 0, 64, 0
2, 32194, Note_on_c, 0, 66, 0
2, 32194, Note_on_c, 0, 71, 0
2, 32194, Note_on_c, 0, 71, 121
2, 32194, Note_on_c, 0, 59, 96
2, 32201, Control_c, 0, 64, 127
2, 32354, Note_on_c, 0, 59, 0
2, 32354, Note_on_c, 0, 63, 96
2, 32513, Note_on_c, 0, 63, 0
2, 32513, Note_on_c, 0, 66, 96
2, 32600, Control_c, 0, 64, 0
2, 32666, Control_c, 0, 64, 127
2, 32674, Note_on_c, 0, 66, 0
2, 32674, Note_on_c, 0, 71, 0
2, 32674, Note_on_c, 0, 72, 121
2, 32674, Note_on_c, 0, 59, 96
2, 32833, Note_on_c, 0, 59, 0
2, 32833, Note_on_c, 0, 64, 96
2, 32993, Note_on_c, 0, 64, 0
2, 32993, Note_on_c, 0, 67, 96
2, 33072, Control_c, 0, 64, 0
2, 33139, Control_c, 0, 64, 127
2, 33154, Note_on_c, 0, 67, 0
2, 33154, Note_on_c, 0, 35, 0
2, 33154, Note_on_c, 0, 47, 0
2, 33154, Note_on_c, 0, 52, 114
2, 33154, Note_on_c, 0, 59, 96
2, 33155, Note_on_c, 0, 40, 114
2, 33313, Note_on_c, 0, 59, 0
2, 33313, Note_on_c, 0, 64, 96
2, 33473, Note_on_c, 0, 64, 0
2, 33473, Note_on_c, 0, 67, 96
2, 33528, Control_c, 0, 64, 0
2, 33601, Control_c, 0, 64, 127
2, 33634, Note_on_c, 0, 67, 0
2, 33634, Note_on_c, 0, 40, 0
2, 33634, Note_on_c, 0, 52, 0
2, 33634, Note_on_c, 0, 55, 114
2, 33634, Note_on_c, 0, 43, 114
2, 33634, Note_on_c, 0, 59, 96
2, 33793, Note_on_c, 0, 59, 0
2, 33793, Note_on_c, 0, 64, 96
2, 33954, Note_on_c, 0, 64, 0
2, 33954, Note_on_c, 0, 67, 96
2, 34029, Control_c, 0, 64, 0
2, 34114, Note_on_c, 0, 67, 0
2, 34114, Note_on_c, 0, 72, 0
2, 34114, Note_on_c, 0, 55, 0
2, 34114, Note_on_c, 0, 43, 0
2, 34114, Note_on_c, 0, 70, 121
2, 34114, Note_on_c, 0, 59, 96
2, 34114, Note_on_c, 0, 52, 103
2, 34115, Note_on_c, 0, 40, 103
2, 34273, Note_on_c, 0, 59, 0
2, 34273, Note_on_c, 0, 64, 96
2, 34434, Note_on_c, 0, 64, 0
2, 34434, Note_on_c, 0, 67, 96
2, 34594, Note_on_c, 0, 67, 0
2, 34594, Note_on_c, 0, 70, 0
2, 34594, Note_on_c, 0, 52, 0
2, 34594, Note_on_c, 0, 40, 0
2, 34594, Note_on_c, 0, 71, 121
2, 34594, Note_on_c, 0, 59, 96
2, 34594, Note_on_c, 0, 47, 103
2, 34595, Note_on_c, 0, 35, 103
2, 34753, Note_on_c, 0, 59, 0
2, 34753, Note_on_c, 0, 63, 96
2, 34914, Note_on_c, 0, 63, 0
2, 34914, Note_on_c, 0, 66, 96
2, 35074, Note_on_c, 0, 66, 0
2, 35074, Note_on_c, 0, 59, 96
2, 35078, Control_c, 0, 64, 127
2, 35233, Note_on_c, 0, 59, 0
2, 35233, Note_on_c, 0, 63, 96
2, 35394, Note_on_c, 0, 63, 0
2, 35394, Note_on_c, 0, 66, 96
2, 35476, Control_c, 0, 64, 0
2, 35553, Note_on_c, 0, 66, 0
2, 35553, Note_on_c, 0, 35, 0
2, 35553, Note_on_c, 0, 47, 0
2, 35553, Note_on_c, 0, 71, 0
2, 35553, Note_on_c, 0, 71, 121
2, 35554, Note_on_c, 0, 59, 96
2, 35554, Note_on_c, 0, 44, 103
2, 35555, Note_on_c, 0, 32, 103
2, 35713, Note_on_c, 0, 59, 0
2, 35713, Note_on_c, 0, 62, 96
2, 35874, Note_on_c, 0, 62, 0
2, 35874, Note_on_c, 0, 65, 96
2, 36033, Note_on_c, 0, 65, 0
2, 36033, Note_on_c, 0, 59, 96
2, 36036, Control_c, 0, 64, 127
2, 36193, Note_on_c, 0, 59, 0
2, 36193, Note_on_c, 0, 62, 96
2, 36354, Note_on_c, 0, 62, 0
2, 36354, Note_on_c, 0, 65, 96
2, 36418, Control_c, 0, 64, 0
2, 36513, Note_on_c, 0, 65, 0
2, 36513, Note_on_c, 0, 32, 0
2, 36513, Note_on_c, 0, 44, 0
2, 36513, Note_on_c, 0, 71, 0
2, 36513, Note_on_c, 0, 71, 121
2, 36514, Note_on_c, 0, 59, 96
2, 36514, Note_on_c, 0, 41, 103
2, 36514, Note_on_c, 0, 29, 103
2, 36674, Note_on_c, 0, 59, 0
2, 36674, Note_on_c, 0, 61, 96
2, 36834, Note_on_c, 0, 61, 0
2, 36834, Note_on_c, 0, 68, 96
2, 36961, Control_c, 0, 64, 127
2, 36993, Note_on_c, 0, 68, 0
2, 36993, Note_on_c, 0, 59, 96
2, 37154, Note_on_c, 0, 59, 0
2, 37154, Note_on_c, 0, 61, 96
2, 37314, Note_on_c, 0, 61, 0
2, 37314, Note_on_c, 0, 68, 96
2, 37361, Control_c, 0, 64, 0
2, 37473, Note_on_c, 0, 68, 0
2, 37473, Note_on_c, 0, 29, 0
2, 37473, Note_on_c, 0, 41, 0
2, 37473, Note_on_c, 0, 71, 0
2, 37473, Note_on_c, 0, 69, 121
2, 37474, Note_on_c, 0, 57, 96
2, 37474, Note_on_c, 0, 42, 103
2, 37474, Note_on_c, 0, 30, 103
2, 37634, Note_on_c, 0, 57, 0
2, 37634, Note_on_c, 0, 61, 96
2, 37793, Note_on_c, 0, 61, 0
2, 37793, Note_on_c, 0, 66, 96
2, 37930, Control_c, 0, 64, 127
2, 37953, Note_on_c, 0, 66, 0
2, 37953, Note_on_c, 0, 57, 96
2, 38114, Note_on_c, 0, 57, 0
2, 38114, Note_on_c, 0, 61, 96
2, 38273, Note_on_c, 0, 61, 0
2, 38273, Note_on_c, 0, 66, 96
2, 38350, Control_c, 0, 64, 0
2, 38433, Note_on_c, 0, 66, 0
2, 38433, Note_on_c, 0, 30, 0
2, 38433, Note_on_c, 0, 42, 0
2, 38433, Note_on_c, 0, 69, 0
2, 38433, Note_on_c, 0, 67, 121
2, 38433, Note_on_c, 0, 55, 96
2, 38434, Note_on_c, 0, 47, 103
2, 38434, Note_on_c, 0, 35, 103
2, 38594, Note_on_c, 0, 55, 0
2, 38594, Note_on_c, 0, 59, 96
2, 38753, Note_on_c, 0, 59, 0
2, 38753, Note_on_c, 0, 62, 96
2, 38895, Control_c, 0, 64, 127
2, 38914, Note_on_c, 0, 62, 0
2, 38914, Note_on_c, 0, 55, 96
2, 39074, Note_on_c, 0, 55, 0
2, 39074, Note_on_c, 0, 59, 96
2, 39233, Note_on_c, 0, 59, 0
2, 39233, Note_on_c, 0, 62, 96
2, 39286, Control_c, 0, 64, 0
2, 39394, Note_on_c, 0, 62, 0
2, 39394, Note_on_c, 0, 35, 0
2, 39394, Note_on_c, 0, 47, 0
2, 39394, Note_on_c, 0, 67, 0
2, 39394, Note_on_c, 0, 66, 121
2, 39394, Note_on_c, 0, 54, 96
2, 39395, Note_on_c, 0, 48, 103
2, 39395, Note_on_c, 0, 36, 103
2, 39554, Note_on_c, 0, 54, 0
2, 39554, Note_on_c, 0, 57, 96
2, 39713, Note_on_c, 0, 57, 0
2, 39713, Note_on_c, 0, 63, 96
2, 39835, Control_c, 0, 64, 127
2, 39874, Note_on_c, 0, 63, 0
2, 39874, Note_on_c, 0, 54, 96
2, 40033, Note_on_c, 0, 54, 0
2, 40033, Note_on_c, 0, 57, 96
2, 40193, Note_on_c, 0, 57, 0
2, 40193, Note_on_c, 0, 63, 96
2, 40293, Control_c, 0, 64, 0
2, 40354, Note_on_c, 0, 63, 0
2, 40354, Note_on_c, 0, 36, 0
2, 40354, Note_on_c, 0, 48, 0
2, 40354, Note_on_c, 0, 66, 0
2, 40354, Note_on_c, 0, 61, 121
2, 40354, Note_on_c, 0, 49, 96
2, 40355, Note_on_c, 0, 37, 103
2, 40355, Note_on_c, 0, 25, 103
2, 40370, Control_c, 0, 64, 127
2, 40513, Note_on_c, 0, 49, 0
2, 40513, Note_on_c, 0, 54, 96
2, 40673, Note_on_c, 0, 54, 0
2, 40673, Note_on_c, 0, 57, 96
2, 40750, Control_c, 0, 64, 0
2, 40831, Control_c, 0, 64, 127
2, 40834, Note_on_c, 0, 57, 0
2, 40834, Note_on_c, 0, 49, 96
2, 40993, Note_on_c, 0, 49, 0
2, 40993, Note_on_c, 0, 54, 96
2, 41153, Note_on_c, 0, 54, 0
2, 41153, Note_on_c, 0, 57, 96
2, 41220, Control_c, 0, 64, 0
2, 41305, Control_c, 0, 64, 127
2, 41314, Note_on_c, 0, 57, 0
2, 41314, Note_on_c, 0, 25, 0
2, 41314, Note_on_c, 0, 37, 0
2, 41314, Note_on_c, 0, 61, 0
2, 41314, Note_on_c, 0, 61, 121
2, 41314, Note_on_c, 0, 49, 96
2, 41314, Note_on_c, 0, 37, 103
2, 41315, Note_on_c, 0, 25, 103
2, 41473, Note_on_c, 0, 49, 0
2, 41473, Note_on_c, 0, 54, 96
2, 41634, Note_on_c, 0, 54, 0
2, 41634, Note_on_c, 0, 56, 96
2, 41688, Control_c, 0, 64, 0
2, 41773, Control_c, 0, 64, 127
2, 41794, Note_on_c, 0, 56, 0
2, 41794, Note_on_c, 0, 61, 0
2, 41794, Note_on_c, 0, 61, 121
2, 41794, Note_on_c, 0, 49, 96
2, 41953, Note_on_c, 0, 49, 0
2, 41953, Note_on_c, 0, 53, 96
2, 42114, Note_on_c, 0, 53, 0
2, 42114, Note_on_c, 0, 56, 96
2, 42159, Control_c, 0, 64, 0
2, 42269, Note_on_c, 0, 56, 0
2, 42269, Note_on_c, 0, 25, 0
2, 42269, Note_on_c, 0, 37, 0
2, 42269, Note_on_c, 0, 61, 0
2, 42269, Note_on_c, 0, 37, 103
2, 42274, Note_on_c, 0, 54, 96
2, 42274, Note_on_c, 0, 42, 103
2, 42274, Note_on_c, 0, 30, 103
2, 42433, Note_on_c, 0, 54, 0
2, 42433, Note_on_c, 0, 57, 96
2, 42594, Note_on_c, 0, 57, 0
2, 42594, Note_on_c, 0, 61, 96
2, 42754, Note_on_c, 0, 61, 0
2, 42754, Note_on_c, 0, 57, 96
2, 42769, Control_c, 0, 64, 127
2, 42913, Note_on_c, 0, 57, 0
2, 42913, Note_on_c, 0, 61, 96
2, 43074, Note_on_c, 0, 61, 0
2, 43074, Note_on_c, 0, 66, 96
2, 43137, Control_c, 0, 64, 0
2, 43213, Control_c, 0, 64, 127
2, 43233, Note_on_c, 0, 66, 0
2, 43233, Note_on_c, 0, 61, 96
2, 43393, Note_on_c, 0, 61, 0
2, 43393, Note_on_c, 0, 66, 96
2, 43554, Note_on_c, 0, 66, 0
2, 43554, Note_on_c, 0, 69, 96
2, 43632, Control_c, 0, 64, 0
2, 43704, Control_c, 0, 64, 127
2, 43707, Note_on_c, 0, 69, 0
2, 43707, Note_on_c, 0, 73, 121
2, 43713, Note_on_c, 0, 61, 96
2, 43873, Note_on_c, 0, 61, 0
2, 43873, Note_on_c, 0, 66, 96
2, 44034, Note_on_c, 0, 66, 0
2, 44034, Note_on_c, 0, 69, 96
2, 44074, Note_on_c, 0, 73, 0
2, 44074, Note_on_c, 0, 73, 121
2, 44104, Control_c, 0, 64, 0
2, 44193, Note_on_c, 0, 73, 0
2, 44193, Note_on_c, 0, 69, 0
2, 44193, Note_on_c, 0, 30, 0
2, 44193, Note_on_c, 0, 42, 0
2, 44193, Note_on_c, 0, 37, 0
2, 44193, Note_on_c, 0, 73, 121
2, 44194, Note_on_c, 0, 61, 96
2, 44194, Note_on_c, 0, 53, 103
2, 44194, Note_on_c, 0, 41, 103
2, 44195, Note_on_c, 0, 49, 103
2, 44223, Control_c, 0, 64, 127
2, 44354, Note_on_c, 0, 61, 0
2, 44354, Note_on_c, 0, 68, 96
2, 44514, Note_on_c, 0, 68, 0
2, 44514, Note_on_c, 0, 71, 96
2, 44673, Note_on_c, 0, 71, 0
2, 44673, Note_on_c, 0, 61, 96
2, 44690, Control_c, 0, 64, 127
2, 44834, Note_on_c, 0, 61, 0
2, 44834, Note_on_c, 0, 68, 96
2, 44994, Note_on_c, 0, 68, 0
2, 44994, Note_on_c, 0, 71, 96
2, 45082, Control_c, 0, 64, 0
2, 45153, Note_on_c, 0, 71, 0
2, 45153, Note_on_c, 0, 61, 96
2, 45155, Control_c, 0, 64, 127
2, 45314, Note_on_c, 0, 61, 0
2, 45314, Note_on_c, 0, 68, 96
2, 45474, Note_on_c, 0, 68, 0
2, 45474, Note_on_c, 0, 71, 96
2, 45553, Control_c, 0, 64, 0
2, 45633, Note_on_c, 0, 71, 0
2, 45633, Note_on_c, 0, 73, 0
2, 45633, Control_c, 0, 64, 127
2, 45633, Note_on_c, 0, 73, 121
2, 45634, Note_on_c, 0, 61, 96
2, 45794, Note_on_c, 0, 61, 0
2, 45794, Note_on_c, 0, 68, 96
2, 45953, Note_on_c, 0, 68, 0
2, 45953, Note_on_c, 0, 71, 96
2, 45993, Note_on_c, 0, 73, 0
2, 45993, Note_on_c, 0, 73, 121
2, 46017, Control_c, 0, 64, 0
2, 46113, Note_on_c, 0, 73, 0
2, 46113, Note_on_c, 0, 71, 0
2, 46113, Note_on_c, 0, 49, 0
2, 46113, Note_on_c, 0, 53, 0
2, 46113, Note_on_c, 0, 41, 0
2, 46113, Note_on_c, 0, 73, 121
2, 46113, Note_on_c, 0, 61, 96
2, 46114, Note_on_c, 0, 54, 103
2, 46114, Note_on_c, 0, 42, 103
2, 46274, Note_on_c, 0, 61, 0
2, 46274, Note_on_c, 0, 66, 96
2, 46433, Note_on_c, 0, 66, 0
2, 46433, Note_on_c, 0, 69, 96
2, 46591, Control_c, 0, 64, 127
2, 46593, Note_on_c, 0, 69, 0
2, 46593, Note_on_c, 0, 61, 96
2, 46754, Note_on_c, 0, 61, 0
2, 46754, Note_on_c, 0, 66, 96
2, 46913, Note_on_c, 0, 66, 0
2, 46913, Note_on_c, 0, 69, 96
2, 46989, Control_c, 0, 64, 0
2, 47072, Control_c, 0, 64, 127
2, 47074, Note_on_c, 0, 69, 0
2, 47074, Note_on_c, 0, 42, 0
2, 47074, Note_on_c, 0, 54, 0
2, 47074, Note_on_c, 0, 73, 0
2, 47074, Note_on_c, 0, 72, 121
2, 47074, Note_on_c, 0, 60, 96
2, 47075, Note_on_c, 0, 51, 103
2, 47075, Note_on_c, 0, 39, 103
2, 47234, Note_on_c, 0, 60, 0
2, 47234, Note_on_c, 0, 66, 96
2, 47393, Note_on_c, 0, 66, 0
2, 47393, Note_on_c, 0, 69, 96
2, 47446, Control_c, 0, 64, 0
2, 47554, Note_on_c, 0, 69, 0
2, 47554, Note_on_c, 0, 72, 0
2, 47554, Note_on_c, 0, 51, 0
2, 47554, Note_on_c, 0, 39, 0
2, 47554, Note_on_c, 0, 73, 121
2, 47554, Note_on_c, 0, 61, 96
2, 47555, Note_on_c, 0, 49, 103
2, 47555, Note_on_c, 0, 37, 103
2, 47714, Note_on_c, 0, 61, 0
2, 47714, Note_on_c, 0, 66, 96
2, 47873, Note_on_c, 0, 66, 0
2, 47873, Note_on_c, 0, 69, 96
2, 48029, Note_on_c, 0, 69, 0
2, 48029, Note_on_c, 0, 73, 0
2, 48029, Note_on_c, 0, 49, 0
2, 48029, Note_on_c, 0, 37, 0
2, 48029, Note_on_c, 0, 44, 103
2, 48034, Note_on_c, 0, 75, 127
2, 48034, Note_on_c, 0, 63, 96
2, 48035, Note_on_c, 0, 48, 103
2, 48035, Note_on_c, 0, 36, 103
2, 48194, Note_on_c, 0, 63, 0
2, 48194, Note_on_c, 0, 66, 96
2, 48353, Note_on_c, 0, 66, 0
2, 48353, Note_on_c, 0, 68, 96
2, 48514, Note_on_c, 0, 68, 0
2, 48514, Note_on_c, 0, 63, 96
2, 48516, Control_c, 0, 64, 127
2, 48673, Note_on_c, 0, 63, 0
2, 48673, Note_on_c, 0, 66, 96
2, 48833, Note_on_c, 0, 66, 0
2, 48833, Note_on_c, 0, 68, 96
2, 48871, Control_c, 0, 64, 0
2, 48951, Control_c, 0, 64, 127
2, 48994, Note_on_c, 0, 68, 0
2, 48994, Note_on_c, 0, 63, 96
2, 49153, Note_on_c, 0, 63, 0
2, 49153, Note_on_c, 0, 66, 96
2, 49313, Note_on_c, 0, 66, 0
2, 49313, Note_on_c, 0, 68, 96
2, 49332, Control_c, 0, 64, 0
2, 49474, Note_on_c, 0, 68, 0
2, 49474, Note_on_c, 0, 48, 0
2, 49474, Note_on_c, 0, 44, 0
2, 49474, Note_on_c, 0, 75, 0
2, 49474, Note_on_c, 0, 36, 0
2, 49474, Note_on_c, 0, 75, 127
2, 49474, Note_on_c, 0, 63, 96
2, 49474, Note_on_c, 0, 48, 103
2, 49475, Note_on_c, 0, 36, 103
2, 49475, Note_on_c, 0, 44, 103
2, 49633, Note_on_c, 0, 63, 0
2, 49633, Note_on_c, 0, 66, 96
2, 49794, Note_on_c, 0, 66, 0
2, 49794, Note_on_c, 0, 68, 96
2, 49954, Note_on_c, 0, 68, 0
2, 49954, Note_on_c, 0, 36, 0
2, 49954, Note_on_c, 0, 75, 0
2, 49954, Note_on_c, 0, 48, 0
2, 49954, Note_on_c, 0, 44, 0
2, 49954, Note_on_c, 0, 76, 127
2, 49954, Note_on_c, 0, 64, 96
2, 49954, Note_on_c, 0, 49, 103
2, 49955, Note_on_c, 0, 37, 103
2, 49955, Note_on_c, 0, 44, 103
2, 50113, Note_on_c, 0, 64, 0
2, 50113, Note_on_c, 0, 68, 96
2, 50274, Note_on_c, 0, 68, 0
2, 50274, Note_on_c, 0, 73, 96
2, 50424, Control_c, 0, 64, 127
2, 50434, Note_on_c, 0, 73, 0
2, 50434, Note_on_c, 0, 64, 96
2, 50593, Note_on_c, 0, 64, 0
2, 50593, Note_on_c, 0, 68, 96
2, 50754, Note_on_c, 0, 68, 0
2, 50754, Note_on_c, 0, 73, 96
2, 50788, Control_c, 0, 64, 0
2, 50881, Control_c, 0, 64, 127
2, 50913, Note_on_c, 0, 73, 0
2, 50913, Note_on_c, 0, 44, 0
2, 50913, Note_on_c, 0, 76, 0
2, 50913, Note_on_c, 0, 49, 0
2, 50913, Note_on_c, 0, 37, 0
2, 50913, Note_on_c, 0, 75, 125
2, 50914, Note_on_c, 0, 63, 96
2, 50914, Note_on_c, 0, 42, 103
2, 50915, Note_on_c, 0, 30, 103
2, 51073, Note_on_c, 0, 63, 0
2, 51073, Note_on_c, 0, 66, 96
2, 51234, Note_on_c, 0, 66, 0
2, 51234, Note_on_c, 0, 69, 96
2, 51286, Control_c, 0, 64, 0
2, 51393, Note_on_c, 0, 69, 0
2, 51393, Note_on_c, 0, 75, 0
2, 51393, Note_on_c, 0, 42, 0
2, 51393, Note_on_c, 0, 30, 0
2, 51393, Note_on_c, 0, 73, 123
2, 51394, Note_on_c, 0, 61, 96
2, 51394, Note_on_c, 0, 43, 103
2, 51395, Note_on_c, 0, 31, 103
2, 51553, Note_on_c, 0, 61, 0
2, 51553, Note_on_c, 0, 64, 96
2, 51714, Note_on_c, 0, 64, 0
2, 51714, Note_on_c, 0, 70, 96
2, 51873, Note_on_c, 0, 70, 0
2, 51873, Note_on_c, 0, 73, 0
2, 51873, Note_on_c, 0, 43, 0
2, 51873, Note_on_c, 0, 31, 0
2, 51873, Note_on_c, 0, 72, 114
2, 51874, Note_on_c, 0, 44, 103
2, 51874, Note_on_c, 0, 32, 103
2, 52033, Note_on_c, 0, 72, 0
2, 52033, Note_on_c, 0, 60, 103
2, 52194, Note_on_c, 0, 60, 0
2, 52194, Note_on_c, 0, 63, 103
2, 52322, Control_c, 0, 64, 127
2, 52347, Note_on_c, 0, 63, 0
2, 52347, Note_on_c, 0, 68, 121
2, 52507, Note_on_c, 0, 60, 103
2, 52674, Note_on_c, 0, 60, 0
2, 52674, Note_on_c, 0, 63, 103
2, 52721, Control_c, 0, 64, 0
2, 52815, Control_c, 0, 64, 127
2, 52833, Note_on_c, 0, 63, 0
2, 52833, Note_on_c, 0, 68, 0
2, 52833, Note_on_c, 0, 69, 121
2, 52987, Note_on_c, 0, 60, 103
2, 53154, Note_on_c, 0, 60, 0
2, 53154, Note_on_c, 0, 63, 103
2, 53250, Control_c, 0, 64, 0
2, 53313, Note_on_c, 0, 63, 0
2, 53313, Note_on_c, 0, 69, 0
2, 53313, Note_on_c, 0, 66, 121
2, 53329, Control_c, 0, 64, 127
2, 53467, Note_on_c, 0, 60, 103
2, 53633, Note_on_c, 0, 60, 0
2, 53633, Note_on_c, 0, 63, 103
2, 53687, Control_c, 0, 64, 0
2, 53773, Control_c, 0, 64, 127
2, 53793, Note_on_c, 0, 63, 0
2, 53793, Note_on_c, 0, 66, 0
2, 53793, Note_on_c, 0, 32, 0
2, 53793, Note_on_c, 0, 44, 0
2, 53793, Note_on_c, 0, 44, 103
2, 53794, Note_on_c, 0, 32, 103
2, 53947, Note_on_c, 0, 60, 103
2, 54113, Note_on_c, 0, 60, 0
2, 54113, Note_on_c, 0, 63, 103
2, 54184, Control_c, 0, 64, 0
2, 54266, Note_on_c, 0, 56, 121
2, 54274, Control_c, 0, 64, 127
2, 54427, Note_on_c, 0, 63, 0
2, 54427, Note_on_c, 0, 60, 103
2, 54593, Note_on_c, 0, 60, 0
2, 54593, Note_on_c, 0, 63, 103
2, 54677, Control_c, 0, 64, 0
2, 54754, Note_on_c, 0, 63, 0
2, 54754, Note_on_c, 0, 56, 0
2, 54754, Note_on_c, 0, 57, 121
2, 54762, Control_c, 0, 64, 127
2, 54907, Note_on_c, 0, 60, 103
2, 55073, Note_on_c, 0, 60, 0
2, 55073, Note_on_c, 0, 63, 103
2, 55157, Control_c, 0, 64, 0
2, 55232, Control_c, 0, 64, 127
2, 55234, Note_on_c, 0, 63, 0
2, 55234, Note_on_c, 0, 57, 0
2, 55234, Note_on_c, 0, 54, 121
2, 55387, Note_on_c, 0, 60, 103
2, 55553, Note_on_c, 0, 60, 0
2, 55553, Note_on_c, 0, 63, 103
2, 55596, Control_c, 0, 64, 0
2, 55714, Note_on_c, 0, 63, 0
2, 55714, Note_on_c, 0, 54, 0
2, 55714, Note_on_c, 0, 32, 0
2, 55714, Note_on_c, 0, 44, 0
2, 55714, Note_on_c, 0, 52, 103
2, 55714, Note_on_c, 0, 44, 103
2, 55715, Note_on_c, 0, 32, 103
2, 55874, Note_on_c, 0, 52, 0
2, 55874, Note_on_c, 0, 64, 103
2, 56033, Note_on_c, 0, 64, 0
2, 56033, Note_on_c, 0, 68, 103
2, 56168, Control_c, 0, 64, 127
2, 56187, Note_on_c, 0, 73, 121
2, 56347, Note_on_c, 0, 68, 0
2, 56347, Note_on_c, 0, 64, 103
2, 56513, Note_on_c, 0, 64, 0
2, 56513, Note_on_c, 0, 68, 103
2, 56554, Control_c, 0, 64, 0
2, 56650, Control_c, 0, 64, 127
2, 56674, Note_on_c, 0, 68, 0
2, 56674, Note_on_c, 0, 73, 0
2, 56674, Note_on_c, 0, 76, 121
2, 56827, Note_on_c, 0, 64, 103
2, 56993, Note_on_c, 0, 64, 0
2, 56993, Note_on_c, 0, 68, 103
2, 57072, Control_c, 0, 64, 0
2, 57146, Control_c, 0, 64, 127
2, 57154, Note_on_c, 0, 68, 0
2, 57154, Note_on_c, 0, 76, 0
2, 57154, Note_on_c, 0, 73, 121
2, 57307, Note_on_c, 0, 64, 103
2, 57474, Note_on_c, 0, 64, 0
2, 57474, Note_on_c, 0, 68, 103
2, 57542, Control_c, 0, 64, 0
2, 57621, Control_c, 0, 64, 127
2, 57634, Note_on_c, 0, 68, 0
2, 57634, Note_on_c, 0, 73, 0
2, 57634, Note_on_c, 0, 32, 0
2, 57634, Note_on_c, 0, 44, 0
2, 57634, Note_on_c, 0, 44, 103
2, 57634, Note_on_c, 0, 32, 103
2, 57787, Note_on_c, 0, 52, 103
2, 57954, Note_on_c, 0, 52, 0
2, 57954, Note_on_c, 0, 56, 103
2, 58008, Control_c, 0, 64, 0
2, 58092, Control_c, 0, 64, 127
2, 58107, Note_on_c, 0, 56, 0
2, 58107, Note_on_c, 0, 61, 121
2, 58267, Note_on_c, 0, 52, 103
2, 58434, Note_on_c, 0, 52, 0
2, 58434, Note_on_c, 0, 56, 103
2, 58520, Control_c, 0, 64, 0
2, 58591, Control_c, 0, 64, 127
2, 58593, Note_on_c, 0, 56, 0
2, 58593, Note_on_c, 0, 61, 0
2, 58593, Note_on_c, 0, 64, 121
2, 58747, Note_on_c, 0, 52, 103
2, 58914, Note_on_c, 0, 52, 0
2, 58914, Note_on_c, 0, 56, 103
2, 58980, Control_c, 0, 64, 0
2, 59058, Control_c, 0, 64, 127
2, 59073, Note_on_c, 0, 56, 0
2, 59073, Note_on_c, 0, 64, 0
2, 59073, Note_on_c, 0, 61, 121
2, 59227, Note_on_c, 0, 52, 103
2, 59394, Note_on_c, 0, 52, 0
2, 59394, Note_on_c, 0, 56, 103
2, 59468, Control_c, 0, 64, 0
2, 59542, Control_c, 0, 64, 127
2, 59553, Note_on_c, 0, 56, 0
2, 59553, Note_on_c, 0, 61, 0
2, 59553, Note_on_c, 0, 32, 0
2, 59553, Note_on_c, 0, 44, 0
2, 59553, Note_on_c, 0, 51, 103
2, 59554, Note_on_c, 0, 44, 103
2, 59554, Note_on_c, 0, 32, 103
2, 59713, Note_on_c, 0, 51, 0
2, 59713, Note_on_c, 0, 57, 103
2, 59874, Note_on_c, 0, 57, 0
2, 59874, Note_on_c, 0, 54, 103
2, 60033, Note_on_c, 0, 54, 0
2, 60033, Note_on_c, 0, 60, 103
2, 60194, Note_on_c, 0, 60, 0
2, 60194, Note_on_c, 0, 57, 103
2, 60354, Note_on_c, 0, 57, 0
2, 60354, Note_on_c, 0, 63, 103
2, 60513, Note_on_c, 0, 63, 0
2, 60513, Note_on_c, 0, 60, 103
2, 60674, Note_on_c, 0, 60, 0
2, 60674, Note_on_c, 0, 66, 103
2, 60834, Note_on_c, 0, 66, 0
2, 60834, Note_on_c, 0, 63, 103
2, 60993, Note_on_c, 0, 63, 0
2, 60993, Note_on_c, 0, 69, 103
2, 61154, Note_on_c, 0, 69, 0
2, 61154, Note_on_c, 0, 66, 103
2, 61314, Note_on_c, 0, 66, 0
2, 61314, Note_on_c, 0, 72, 103
2, 61375, Control_c, 0, 64, 0
2, 61461, Control_c, 0, 64, 127
2, 61473, Note_on_c, 0, 72, 0
2, 61473, Note_on_c, 0, 32, 0
2, 61473, Note_on_c, 0, 44, 0
2, 61473, Note_on_c, 0, 52, 103
2, 61474, Note_on_c, 0, 44, 103
2, 61474, Note_on_c, 0, 32, 103
2, 61634, Note_on_c, 0, 52, 0
2, 61634, Note_on_c, 0, 61, 103
2, 61793, Note_on_c, 0, 61, 0
2, 61793, Note_on_c, 0, 56, 103
2, 61953, Note_on_c, 0, 56, 0
2, 61953, Note_on_c, 0, 64, 103
2, 62114, Note_on_c, 0, 64, 0
2, 62114, Note_on_c, 0, 61, 103
2, 62273, Note_on_c, 0, 61, 0
2, 62273, Note_on_c, 0, 68, 103
2, 62433, Note_on_c, 0, 68, 0
2, 62433, Note_on_c, 0, 64, 103
2, 62594, Note_on_c, 0, 64, 0
2, 62594, Note_on_c, 0, 73, 103
2, 62753, Note_on_c, 0, 73, 0
2, 62753, Note_on_c, 0, 68, 103
2, 62914, Note_on_c, 0, 68, 0
2, 62914, Note_on_c, 0, 76, 103
2, 63074, Note_on_c, 0, 76, 0
2, 63074, Note_on_c, 0, 73, 103
2, 63233, Note_on_c, 0, 73, 0
2, 63233, Note_on_c, 0, 68, 103
2, 63394, Note_on_c, 0, 68, 0
2, 63394, Note_on_c, 0, 32, 0
2, 63394, Note_on_c, 0, 44, 0
2, 63394, Note_on_c, 0, 61, 103
2, 63394, Note_on_c, 0, 44, 103
2, 63395, Note_on_c, 0, 32, 103
2, 63554, Note_on_c, 0, 61, 0
2, 63554, Note_on_c, 0, 67, 103
2, 63713, Note_on_c, 0, 67, 0
2, 63713, Note_on_c, 0, 64, 103
2, 63874, Note_on_c, 0, 64, 0
2, 63874, Note_on_c, 0, 70, 103
2, 64034, Note_on_c, 0, 70, 0
2, 64034, Note_on_c, 0, 67, 103
2, 64193, Note_on_c, 0, 67, 0
2, 64193, Note_on_c, 0, 73, 103
2, 64354, Note_on_c, 0, 73, 0
2, 64354, Note_on_c, 0, 70, 103
2, 64513, Note_on_c, 0, 70, 0
2, 64513, Note_on_c, 0, 76, 103
2, 64673, Note_on_c, 0, 76, 0
2, 64673, Note_on_c, 0, 73, 103
2, 64834, Note_on_c, 0, 73, 0
2, 64834, Note_on_c, 0, 79, 103
2, 64993, Note_on_c, 0, 79, 0
2, 64993, Note_on_c, 0, 76, 103
2, 65153, Note_on_c, 0, 76, 0
2, 65153, Note_on_c, 0, 82, 103
2, 65228, Control_c, 0, 64, 0
2, 65304, Control_c, 0, 64, 127
2, 65314, Note_on_c, 0, 82, 0
2, 65314, Note_on_c, 0, 32, 0
2, 65314, Note_on_c, 0, 44, 0
2, 65314, Note_on_c, 0, 66, 103
2, 65314, Note_on_c, 0, 44, 103
2, 65314, Note_on_c, 0, 32, 103
2, 65473, Note_on_c, 0, 66, 0
2, 65473, Note_on_c, 0, 72, 103
2, 65634, Note_on_c, 0, 72, 0
2, 65634, Note_on_c, 0, 69, 103
2, 65794, Note_on_c, 0, 69, 0
2, 65794, Note_on_c, 0, 75, 103
2, 65953, Note_on_c, 0, 75, 0
2, 65953, Note_on_c, 0, 72, 103
2, 66114, Note_on_c, 0, 72, 0
2, 66114, Note_on_c, 0, 78, 103
2, 66274, Note_on_c, 0, 78, 0
2, 66274, Note_on_c, 0, 75, 103
2, 66433, Note_on_c, 0, 75, 0
2, 66433, Note_on_c, 0, 81, 103
2, 66594, Note_on_c, 0, 81, 0
2, 66594, Note_on_c, 0, 78, 103
2, 66754, Note_on_c, 0, 78, 0
2, 66754, Note_on_c, 0, 84, 103
2, 66913, Note_on_c, 0, 84, 0
2, 66913, Note_on_c, 0, 81, 103
2, 67074, Note_on_c, 0, 81, 0
2, 67074, Note_on_c, 0, 87, 103
2, 67233, Note_on_c, 0, 87, 0
2, 67233, Note_on_c, 0, 84, 103
2, 67393, Note_on_c, 0, 84, 0
2, 67393, Note_on_c, 0, 78, 103
2, 67554, Note_on_c, 0, 78, 0
2, 67554, Note_on_c, 0, 81, 103
2, 67713, Note_on_c, 0, 81, 0
2, 67713, Note_on_c, 0, 75, 103
2, 67873, Note_on_c, 0, 75, 0
2, 67873, Note_on_c, 0, 78, 103
2, 68034, Note_on_c, 0, 78, 0
2, 68034, Note_on_c, 0, 72, 103
2, 68193, Note_on_c, 0, 72, 0
2, 68193, Note_on_c, 0, 75, 103
2, 68354, Note_on_c, 0, 75, 0
2, 68354, Note_on_c, 0, 69, 103
2, 68514, Note_on_c, 0, 69, 0
2, 68514, Note_on_c, 0, 72, 103
2, 68673, Note_on_c, 0, 72, 0
2, 68673, Note_on_c, 0, 66, 103
2, 68834, Note_on_c, 0, 66, 0
2, 68834, Note_on_c, 0, 69, 103
2, 68994, Note_on_c, 0, 69, 0
2, 68994, Note_on_c, 0, 63, 103
2, 69153, Note_on_c, 0, 63, 0
2, 69153, Note_on_c, 0, 66, 103
2, 69314, Note_on_c, 0, 66, 0
2, 69314, Note_on_c, 0, 60, 103
2, 69473, Note_on_c, 0, 60, 0
2, 69473, Note_on_c, 0, 63, 103
2, 69633, Note_on_c, 0, 63, 0
2, 69633, Note_on_c, 0, 57, 103
2, 69794, Note_on_c, 0, 57, 0
2, 69794, Note_on_c, 0, 60, 103
2, 69953, Note_on_c, 0, 60, 0
2, 69953, Note_on_c, 0, 54, 103
2, 70113, Note_on_c, 0, 54, 0
2, 70113, Note_on_c, 0, 57, 103
2, 70267, Note_on_c, 0, 57, 0
2, 70267, Note_on_c, 0, 51, 121
2, 70427, Note_on_c, 0, 54, 103
2, 70594, Note_on_c, 0, 54, 0
2, 70594, Note_on_c, 0, 51, 0
2, 70594, Note_on_c, 0, 49, 121
2, 70747, Note_on_c, 0, 54, 103
2, 70760, Control_c, 0, 64, 0
2, 70913, Note_on_c, 0, 54, 0
2, 70913, Note_on_c, 0, 57, 103
2, 71074, Note_on_c, 0, 57, 0
2, 71074, Note_on_c, 0, 49, 0
2, 71074, Note_on_c, 0, 32, 0
2, 71074, Note_on_c, 0, 44, 0
2, 71074, Note_on_c, 0, 48, 121
2, 71074, Note_on_c, 0, 44, 103
2, 71075, Note_on_c, 0, 32, 103
2, 71077, Control_c, 0, 64, 127
2, 71227, Note_on_c, 0, 54, 103
2, 71393, Note_on_c, 0, 54, 0
2, 71393, Note_on_c, 0, 56, 103
2, 71479, Control_c, 0, 64, 0
2, 71554, Note_on_c, 0, 56, 0
2, 71554, Note_on_c, 0, 57, 103
2, 71714, Note_on_c, 0, 57, 0
2, 71714, Note_on_c, 0, 56, 103
2, 71873, Note_on_c, 0, 56, 0
2, 71873, Note_on_c, 0, 54, 103
2, 72033, Control_c, 0, 64, 127
2, 72034, Note_on_c, 0, 54, 0
2, 72034, Note_on_c, 0, 48, 0
2, 72034, Note_on_c, 0, 51, 121
2, 72187, Note_on_c, 0, 54, 103
2, 72353, Note_on_c, 0, 54, 0
2, 72353, Note_on_c, 0, 57, 103
2, 72417, Control_c, 0, 64, 0
2, 72514, Note_on_c, 0, 57, 0
2, 72514, Note_on_c, 0, 51, 0
2, 72514, Note_on_c, 0, 49, 121
2, 72667, Note_on_c, 0, 54, 103
2, 72833, Note_on_c, 0, 54, 0
2, 72833, Note_on_c, 0, 57, 103
2, 72994, Note_on_c, 0, 57, 0
2, 72994, Note_on_c, 0, 49, 0
2, 72994, Note_on_c, 0, 32, 0
2, 72994, Note_on_c, 0, 44, 0
2, 72994, Note_on_c, 0, 48, 121
2, 72994, Note_on_c, 0, 44, 103
2, 72994, Note_on_c, 0, 32, 103
2, 73147, Note_on_c, 0, 54, 103
2, 73314, Note_on_c, 0, 54, 0
2, 73314, Note_on_c, 0, 56, 103
2, 73464, Control_c, 0, 64, 127
2, 73474, Note_on_c, 0, 56, 0
2, 73474, Note_on_c, 0, 57, 103
2, 73633, Note_on_c, 0, 57, 0
2, 73633, Note_on_c, 0, 56, 103
2, 73794, Note_on_c, 0, 56, 0
2, 73794, Note_on_c, 0, 54, 103
2, 73872, Control_c, 0, 64, 0
2, 73954, Note_on_c, 0, 54, 0
2, 73954, Note_on_c, 0, 48, 0
2, 73954, Note_on_c, 0, 50, 121
2, 74107, Note_on_c, 0, 54, 103
2, 74274, Note_on_c, 0, 54, 0
2, 74274, Note_on_c, 0, 57, 103
2, 74433, Note_on_c, 0, 57, 0
2, 74433, Note_on_c, 0, 50, 0
2, 74433, Note_on_c, 0, 49, 121
2, 74587, Note_on_c, 0, 54, 103
2, 74754, Note_on_c, 0, 54, 0
2, 74754, Note_on_c, 0, 57, 103
2, 74913, Note_on_c, 0, 57, 0
2, 74913, Note_on_c, 0, 49, 0
2, 74913, Note_on_c, 0, 32, 0
2, 74913, Note_on_c, 0, 44, 0
2, 74913, Note_on_c, 0, 48, 121
2, 74914, Note_on_c, 0, 44, 103
2, 74914, Note_on_c, 0, 32, 103
2, 75067, Note_on_c, 0, 54, 103
2, 75234, Note_on_c, 0, 54, 0
2, 75234, Note_on_c, 0, 56, 103
2, 75362, Control_c, 0, 64, 127
2, 75393, Note_on_c, 0, 56, 0
2, 75393, Note_on_c, 0, 57, 103
2, 75553, Note_on_c, 0, 57, 0
2, 75553, Note_on_c, 0, 56, 103
2, 75714, Note_on_c, 0, 56, 0
2, 75714, Note_on_c, 0, 54, 103
2, 75797, Control_c, 0, 64, 0
2, 75868, Control_c, 0, 64, 127
2, 75873, Note_on_c, 0, 54, 0
2, 75873, Note_on_c, 0, 48, 0
2, 75873, Note_on_c, 0, 44, 0
2, 75873, Note_on_c, 0, 32, 0
2, 75873, Note_on_c, 0, 49, 103
2, 75874, Note_on_c, 0, 45, 103
2, 75874, Note_on_c, 0, 33, 103
2, 76034, Note_on_c, 0, 49, 0
2, 76034, Note_on_c, 0, 52, 103
2, 76194, Note_on_c, 0, 52, 0
2, 76194, Note_on_c, 0, 61, 103
2, 76302, Control_c, 0, 64, 0
2, 76353, Note_on_c, 0, 61, 0
2, 76353, Note_on_c, 0, 49, 103
2, 76369, Control_c, 0, 64, 127
2, 76514, Note_on_c, 0, 49, 0
2, 76514, Note_on_c, 0, 52, 103
2, 76674, Note_on_c, 0, 52, 0
2, 76674, Note_on_c, 0, 61, 103
2, 76738, Control_c, 0, 64, 0
2, 76816, Control_c, 0, 64, 127
2, 76833, Note_on_c, 0, 61, 0
2, 76833, Note_on_c, 0, 33, 0
2, 76833, Note_on_c, 0, 45, 0
2, 76833, Note_on_c, 0, 51, 103
2, 76834, Note_on_c, 0, 42, 103
2, 76834, Note_on_c, 0, 30, 103
2, 76994, Note_on_c, 0, 51, 0
2, 76994, Note_on_c, 0, 57, 103
2, 77154, Note_on_c, 0, 57, 0
2, 77154, Note_on_c, 0, 61, 103
2, 77223, Control_c, 0, 64, 0
2, 77296, Control_c, 0, 64, 127
2, 77313, Note_on_c, 0, 61, 0
2, 77313, Note_on_c, 0, 51, 103
2, 77474, Note_on_c, 0, 51, 0
2, 77474, Note_on_c, 0, 57, 103
2, 77633, Note_on_c, 0, 57, 0
2, 77633, Note_on_c, 0, 61, 103
2, 77665, Control_c, 0, 64, 0
2, 77747, Control_c, 0, 64, 127
2, 77793, Note_on_c, 0, 61, 0
2, 77793, Note_on_c, 0, 30, 0
2, 77793, Note_on_c, 0, 42, 0
2, 77793, Note_on_c, 0, 51, 103
2, 77793, Note_on_c, 0, 44, 103
2, 77794, Note_on_c, 0, 32, 103
2, 77954, Note_on_c, 0, 51, 0
2, 77954, Note_on_c, 0, 56, 103
2, 78113, Note_on_c, 0, 56, 0
2, 78113, Note_on_c, 0, 60, 103
2, 78214, Control_c, 0, 64, 0
2, 78273, Note_on_c, 0, 60, 0
2, 78273, Note_on_c, 0, 51, 103
2, 78275, Control_c, 0, 64, 127
2, 78434, Note_on_c, 0, 51, 0
2, 78434, Note_on_c, 0, 54, 103
2, 78593, Note_on_c, 0, 54, 0
2, 78593, Note_on_c, 0, 60, 103
2, 78691, Control_c, 0, 64, 0
2, 78749, Note_on_c, 0, 60, 0
2, 78749, Note_on_c, 0, 32, 0
2, 78749, Note_on_c, 0, 44, 0
2, 78749, Note_on_c, 0, 44, 103
2, 78753, Control_c, 0, 64, 127
2, 78754, Note_on_c, 0, 52, 103
2, 78754, Note_on_c, 0, 49, 103
2, 78755, Note_on_c, 0, 37, 103
2, 78914, Note_on_c, 0, 52, 0
2, 78914, Note_on_c, 0, 56, 103
2, 79073, Note_on_c, 0, 56, 0
2, 79073, Note_on_c, 0, 61, 103
2, 79189, Control_c, 0, 64, 0
2, 79234, Note_on_c, 0, 61, 0
2, 79234, Note_on_c, 0, 56, 103
2, 79254, Control_c, 0, 64, 127
2, 79394, Note_on_c, 0, 56, 0
2, 79394, Note_on_c, 0, 61, 103
2, 79553, Note_on_c, 0, 61, 0
2, 79553, Note_on_c, 0, 64, 103
2, 79649, Control_c, 0, 64, 0
2, 79714, Note_on_c, 0, 64, 0
2, 79714, Note_on_c, 0, 56, 103
2, 79720, Control_c, 0, 64, 127
2, 79874, Note_on_c, 0, 56, 0
2, 79874, Note_on_c, 0, 61, 103
2, 80033, Note_on_c, 0, 61, 0
2, 80033, Note_on_c, 0, 64, 103
2, 80104, Control_c, 0, 64, 0
2, 80180, Control_c, 0, 64, 127
2, 80187, Note_on_c, 0, 68, 121
2, 80194, Note_on_c, 0, 64, 0
2, 80194, Note_on_c, 0, 56, 103
2, 80353, Note_on_c, 0, 56, 0
2, 80353, Note_on_c, 0, 61, 103
2, 80513, Note_on_c, 0, 61, 0
2, 80513, Note_on_c, 0, 64, 103
2, 80554, Note_on_c, 0, 68, 0
2, 80554, Note_on_c, 0, 68, 121
2, 80596, Control_c, 0, 64, 0
2, 80674, Note_on_c, 0, 68, 0
2, 80674, Note_on_c, 0, 64, 0
2, 80674, Note_on_c, 0, 44, 0
2, 80674, Note_on_c, 0, 49, 0
2, 80674, Note_on_c, 0, 37, 0
2, 80674, Note_on_c, 0, 68, 121
2, 80674, Note_on_c, 0, 56, 103
2, 80674, Note_on_c, 0, 48, 103
2, 80675, Note_on_c, 0, 36, 103
2, 80675, Note_on_c, 0, 44, 103
2, 80833, Note_on_c, 0, 56, 0
2, 80833, Note_on_c, 0, 63, 103
2, 80993, Note_on_c, 0, 63, 0
2, 80993, Note_on_c, 0, 66, 103
2, 81154, Note_on_c, 0, 66, 0
2, 81154, Note_on_c, 0, 56, 103
2, 81155, Control_c, 0, 64, 127
2, 81313, Note_on_c, 0, 56, 0
2, 81313, Note_on_c, 0, 63, 103
2, 81474, Note_on_c, 0, 63, 0
2, 81474, Note_on_c, 0, 66, 103
2, 81567, Control_c, 0, 64, 0
2, 81634, Note_on_c, 0, 66, 0
2, 81634, Note_on_c, 0, 56, 103
2, 81639, Control_c, 0, 64, 127
2, 81793, Note_on_c, 0, 56, 0
2, 81793, Note_on_c, 0, 63, 103
2, 81954, Note_on_c, 0, 63, 0
2, 81954, Note_on_c, 0, 66, 103
2, 82018, Control_c, 0, 64, 0
2, 82094, Control_c, 0, 64, 127
2, 82114, Note_on_c, 0, 66, 0
2, 82114, Note_on_c, 0, 68, 0
2, 82114, Note_on_c, 0, 68, 121
2, 82114, Note_on_c, 0, 56, 103
2, 82273, Note_on_c, 0, 56, 0
2, 82273, Note_on_c, 0, 63, 103
2, 82434, Note_on_c, 0, 63, 0
2, 82434, Note_on_c, 0, 66, 103
2, 82474, Note_on_c, 0, 68, 0
2, 82474, Note_on_c, 0, 68, 121
2, 82510, Control_c, 0, 64, 0
2, 82593, Note_on_c, 0, 68, 0
2, 82593, Note_on_c, 0, 66, 0
2, 82593, Note_on_c, 0, 44, 0
2, 82593, Note_on_c, 0, 48, 0
2, 82593, Note_on_c, 0, 36, 0
2, 82593, Note_on_c, 0, 68, 121
2, 82594, Note_on_c, 0, 56, 103
2, 82594, Note_on_c, 0, 49, 103
2, 82595, Note_on_c, 0, 37, 103
2, 82753, Note_on_c, 0, 56, 0
2, 82753, Note_on_c, 0, 61, 103
2, 82914, Note_on_c, 0, 61, 0
2, 82914, Note_on_c, 0, 64, 103
2, 83062, Control_c, 0, 64, 127
2, 83073, Note_on_c, 0, 64, 0
2, 83073, Note_on_c, 0, 56, 103
2, 83233, Note_on_c, 0, 56, 0
2, 83233, Note_on_c, 0, 61, 103
2, 83394, Note_on_c, 0, 61, 0
2, 83394, Note_on_c, 0, 64, 103
2, 83462, Control_c, 0, 64, 0
2, 83532, Control_c, 0, 64, 127
2, 83553, Note_on_c, 0, 64, 0
2, 83553, Note_on_c, 0, 37, 0
2, 83553, Note_on_c, 0, 49, 0
2, 83553, Note_on_c, 0, 68, 0
2, 83553, Note_on_c, 0, 69, 121
2, 83554, Note_on_c, 0, 57, 103
2, 83554, Note_on_c, 0, 42, 103
2, 83555, Note_on_c, 0, 30, 103
2, 83713, Note_on_c, 0, 57, 0
2, 83713, Note_on_c, 0, 61, 103
2, 83874, Note_on_c, 0, 61, 0
2, 83874, Note_on_c, 0, 66, 103
2, 83939, Control_c, 0, 64, 0
2, 84016, Control_c, 0, 64, 127
2, 84033, Note_on_c, 0, 66, 0
2, 84033, Note_on_c, 0, 57, 103
2, 84194, Note_on_c, 0, 57, 0
2, 84194, Note_on_c, 0, 61, 103
2, 84354, Note_on_c, 0, 61, 0
2, 84354, Note_on_c, 0, 66, 103
2, 84412, Control_c, 0, 64, 0
2, 84513, Note_on_c, 0, 66, 0
2, 84513, Note_on_c, 0, 30, 0
2, 84513, Note_on_c, 0, 42, 0
2, 84513, Note_on_c, 0, 69, 0
2, 84513, Note_on_c, 0, 68, 121
2, 84514, Note_on_c, 0, 56, 103
2, 84514, Note_on_c, 0, 47, 103
2, 84514, Note_on_c, 0, 35, 103
2, 84674, Note_on_c, 0, 56, 0
2, 84674, Note_on_c, 0, 59, 103
2, 84834, Note_on_c, 0, 59, 0
2, 84834, Note_on_c, 0, 64, 103
2, 84987, Control_c, 0, 64, 127
2, 84993, Note_on_c, 0, 64, 0
2, 84993, Note_on_c, 0, 56, 103
2, 85154, Note_on_c, 0, 56, 0
2, 85154, Note_on_c, 0, 59, 103
2, 85314, Note_on_c, 0, 59, 0
2, 85314, Note_on_c, 0, 64, 103
2, 85390, Control_c, 0, 64, 0
2, 85473, Note_on_c, 0, 64, 0
2, 85473, Note_on_c, 0, 35, 0
2, 85473, Note_on_c, 0, 47, 0
2, 85473, Note_on_c, 0, 68, 0
2, 85473, Note_on_c, 0, 66, 121
2, 85474, Note_on_c, 0, 57, 103
2, 85474, Note_on_c, 0, 47, 103
2, 85474, Note_on_c, 0, 35, 103
2, 85634, Note_on_c, 0, 57, 0
2, 85634, Note_on_c, 0, 59, 103
2, 85793, Note_on_c, 0, 59, 0
2, 85793, Note_on_c, 0, 63, 103
2, 85932, Control_c, 0, 64, 127
2, 85953, Note_on_c, 0, 63, 0
2, 85953, Note_on_c, 0, 66, 0
2, 85953, Note_on_c, 0, 71, 121
2, 85953, Note_on_c, 0, 57, 103
2, 86114, Note_on_c, 0, 57, 0
2, 86114, Note_on_c, 0, 59, 103
2, 86273, Note_on_c, 0, 59, 0
2, 86273, Note_on_c, 0, 63, 103
2, 86355, Control_c, 0, 64, 0
2, 86433, Note_on_c, 0, 63, 0
2, 86433, Note_on_c, 0, 35, 0
2, 86433, Note_on_c, 0, 47, 0
2, 86433, Note_on_c, 0, 71, 0
2, 86433, Note_on_c, 0, 64, 121
2, 86433, Note_on_c, 0, 56, 103
2, 86434, Note_on_c, 0, 52, 103
2, 86434, Note_on_c, 0, 40, 103
2, 86435, Control_c, 0, 64, 127
2, 86594, Note_on_c, 0, 56, 0
2, 86594, Note_on_c, 0, 59, 103
2, 86753, Note_on_c, 0, 59, 0
2, 86753, Note_on_c, 0, 64, 103
2, 86914, Note_on_c, 0, 64, 0
2, 86914, Note_on_c, 0, 64, 0
2, 86914, Note_on_c, 0, 59, 103
2, 87074, Note_on_c, 0, 59, 0
2, 87074, Note_on_c, 0, 64, 103
2, 87233, Note_on_c, 0, 64, 0
2, 87233, Note_on_c, 0, 68, 103
2, 87394, Note_on_c, 0, 68, 0
2, 87394, Note_on_c, 0, 59, 103
2, 87554, Note_on_c, 0, 59, 0
2, 87554, Note_on_c, 0, 64, 103
2, 87713, Note_on_c, 0, 64, 0
2, 87713, Note_on_c, 0, 68, 103
2, 87867, Note_on_c, 0, 71, 121
2, 87874, Note_on_c, 0, 68, 0
2, 87874, Note_on_c, 0, 59, 103
2, 88033, Note_on_c, 0, 59, 0
2, 88033, Note_on_c, 0, 64, 103
2, 88193, Note_on_c, 0, 64, 0
2, 88193, Note_on_c, 0, 68, 103
2, 88233, Note_on_c, 0, 71, 0
2, 88233, Note_on_c, 0, 71, 121
2, 88274, Control_c, 0, 64, 0
2, 88345, Control_c, 0, 64, 127
2, 88354, Note_on_c, 0, 71, 0
2, 88354, Note_on_c, 0, 68, 0
2, 88354, Note_on_c, 0, 52, 0
2, 88354, Note_on_c, 0, 40, 0
2, 88354, Note_on_c, 0, 71, 121
2, 88354, Note_on_c, 0, 59, 103
2, 88355, Note_on_c, 0, 51, 103
2, 88355, Note_on_c, 0, 39, 103
2, 88513, Note_on_c, 0, 59, 0
2, 88513, Note_on_c, 0, 66, 103
2, 88673, Note_on_c, 0, 66, 0
2, 88673, Note_on_c, 0, 69, 103
2, 88834, Note_on_c, 0, 69, 0
2, 88834, Note_on_c, 0, 59, 103
2, 88993, Note_on_c, 0, 59, 0
2, 88993, Note_on_c, 0, 66, 103
2, 89154, Note_on_c, 0, 66, 0
2, 89154, Note_on_c, 0, 69, 103
2, 89314, Note_on_c, 0, 69, 0
2, 89314, Note_on_c, 0, 59, 103
2, 89473, Note_on_c, 0, 59, 0
2, 89473, Note_on_c, 0, 66, 103
2, 89634, Note_on_c, 0, 66, 0
2, 89634, Note_on_c, 0, 69, 103
2, 89675, Control_c, 0, 64, 0
2, 89761, Control_c, 0, 64, 127
2, 89794, Note_on_c, 0, 69, 0
2, 89794, Note_on_c, 0, 71, 0
2, 89794, Note_on_c, 0, 71, 121
2, 89794, Note_on_c, 0, 59, 103
2, 89953, Note_on_c, 0, 59, 0
2, 89953, Note_on_c, 0, 66, 103
2, 90114, Note_on_c, 0, 66, 0
2, 90114, Note_on_c, 0, 69, 103
2, 90154, Note_on_c, 0, 71, 0
2, 90154, Note_on_c, 0, 71, 121
2, 90164, Control_c, 0, 64, 0
2, 90274, Note_on_c, 0, 71, 0
2, 90274, Note_on_c, 0, 69, 0
2, 90274, Note_on_c, 0, 51, 0
2, 90274, Note_on_c, 0, 39, 0
2, 90274, Note_on_c, 0, 71, 121
2, 90274, Note_on_c, 0, 59, 103
2, 90274, Note_on_c, 0, 52, 103
2, 90275, Note_on_c, 0, 40, 103
2, 90433, Note_on_c, 0, 59, 0
2, 90433, Note_on_c, 0, 64, 103
2, 90594, Note_on_c, 0, 64, 0
2, 90594, Note_on_c, 0, 68, 103
2, 90753, Note_on_c, 0, 68, 0
2, 90753, Note_on_c, 0, 59, 103
2, 90773, Control_c, 0, 64, 127
2, 90913, Note_on_c, 0, 59, 0
2, 90913, Note_on_c, 0, 64, 103
2, 91074, Note_on_c, 0, 64, 0
2, 91074, Note_on_c, 0, 68, 103
2, 91125, Control_c, 0, 64, 0
2, 91205, Control_c, 0, 64, 127
2, 91233, Note_on_c, 0, 68, 0
2, 91233, Note_on_c, 0, 40, 0
2, 91233, Note_on_c, 0, 52, 0
2, 91233, Note_on_c, 0, 71, 0
2, 91233, Note_on_c, 0, 72, 121
2, 91234, Note_on_c, 0, 60, 103
2, 91234, Note_on_c, 0, 51, 103
2, 91235, Note_on_c, 0, 39, 103
2, 91393, Note_on_c, 0, 60, 0
2, 91393, Note_on_c, 0, 66, 103
2, 91554, Note_on_c, 0, 66, 0
2, 91554, Note_on_c, 0, 68, 103
2, 91622, Control_c, 0, 64, 0
2, 91713, Note_on_c, 0, 68, 0
2, 91713, Note_on_c, 0, 72, 0
2, 91713, Note_on_c, 0, 51, 0
2, 91713, Note_on_c, 0, 39, 0
2, 91713, Note_on_c, 0, 73, 121
2, 91714, Note_on_c, 0, 61, 103
2, 91714, Note_on_c, 0, 49, 103
2, 91714, Note_on_c, 0, 37, 103
2, 91874, Note_on_c, 0, 61, 0
2, 91874, Note_on_c, 0, 64, 103
2, 92034, Note_on_c, 0, 64, 0
2, 92034, Note_on_c, 0, 68, 103
2, 92186, Control_c, 0, 64, 127
2, 92188, Note_on_c, 0, 68, 0
2, 92188, Note_on_c, 0, 73, 0
2, 92188, Note_on_c, 0, 49, 0
2, 92188, Note_on_c, 0, 37, 0
2, 92188, Note_on_c, 0, 44, 103
2, 92193, Note_on_c, 0, 75, 121
2, 92194, Note_on_c, 0, 63, 103
2, 92194, Note_on_c, 0, 48, 103
2, 92194, Note_on_c, 0, 36, 103
2, 92354, Note_on_c, 0, 63, 0
2, 92354, Note_on_c, 0, 66, 103
2, 92514, Note_on_c, 0, 66, 0
2, 92514, Note_on_c, 0, 68, 103
2, 92611, Control_c, 0, 64, 0
2, 92673, Note_on_c, 0, 68, 0
2, 92673, Note_on_c, 0, 63, 103
2, 92675, Control_c, 0, 64, 127
2, 92834, Note_on_c, 0, 63, 0
2, 92834, Note_on_c, 0, 66, 103
2, 92994, Note_on_c, 0, 66, 0
2, 92994, Note_on_c, 0, 68, 103
2, 93044, Control_c, 0, 64, 0
2, 93126, Control_c, 0, 64, 127
2, 93153, Note_on_c, 0, 68, 0
2, 93153, Note_on_c, 0, 36, 0
2, 93153, Note_on_c, 0, 44, 0
2, 93153, Note_on_c, 0, 75, 0
2, 93153, Note_on_c, 0, 48, 0
2, 93153, Note_on_c, 0, 76, 121
2, 93154, Note_on_c, 0, 64, 103
2, 93154, Note_on_c, 0, 49, 103
2, 93154, Note_on_c, 0, 37, 103
2, 93155, Note_on_c, 0, 44, 103
2, 93314, Note_on_c, 0, 64, 0
2, 93314, Note_on_c, 0, 68, 103
2, 93473, Note_on_c, 0, 68, 0
2, 93473, Note_on_c, 0, 73, 103
2, 93576, Control_c, 0, 64, 0
2, 93633, Note_on_c, 0, 73, 0
2, 93633, Control_c, 0, 64, 127
2, 93633, Note_on_c, 0, 64, 103
2, 93794, Note_on_c, 0, 64, 0
2, 93794, Note_on_c, 0, 68, 103
2, 93953, Note_on_c, 0, 68, 0
2, 93953, Note_on_c, 0, 73, 103
2, 94044, Control_c, 0, 64, 0
2, 94105, Control_c, 0, 64, 127
2, 94113, Note_on_c, 0, 73, 0
2, 94113, Note_on_c, 0, 44, 0
2, 94113, Note_on_c, 0, 76, 0
2, 94113, Note_on_c, 0, 49, 0
2, 94113, Note_on_c, 0, 37, 0
2, 94113, Note_on_c, 0, 74, 121
2, 94113, Note_on_c, 0, 62, 103
2, 94114, Note_on_c, 0, 42, 103
2, 94114, Note_on_c, 0, 30, 103
2, 94274, Note_on_c, 0, 62, 0
2, 94274, Note_on_c, 0, 66, 103
2, 94433, Note_on_c, 0, 66, 0
2, 94433, Note_on_c, 0, 69, 103
2, 94508, Control_c, 0, 64, 0
2, 94586, Control_c, 0, 64, 127
2, 94594, Note_on_c, 0, 69, 0
2, 94594, Note_on_c, 0, 62, 103
2, 94754, Note_on_c, 0, 62, 0
2, 94754, Note_on_c, 0, 66, 103
2, 94913, Note_on_c, 0, 66, 0
2, 94913, Note_on_c, 0, 69, 103
2, 94981, Control_c, 0, 64, 0
2, 95074, Note_on_c, 0, 69, 0
2, 95074, Note_on_c, 0, 30, 0
2, 95074, Note_on_c, 0, 42, 0
2, 95074, Note_on_c, 0, 74, 0
2, 95074, Note_on_c, 0, 72, 121
2, 95074, Note_on_c, 0, 60, 103
2, 95075, Note_on_c, 0, 44, 103
2, 95075, Note_on_c, 0, 32, 103
2, 95234, Note_on_c, 0, 60, 0
2, 95234, Note_on_c, 0, 66, 103
2, 95393, Note_on_c, 0, 66, 0
2, 95393, Note_on_c, 0, 68, 103
2, 95554, Note_on_c, 0, 68, 0
2, 95554, Note_on_c, 0, 60, 103
2, 95558, Control_c, 0, 64, 127
2, 95714, Note_on_c, 0, 60, 0
2, 95714, Note_on_c, 0, 66, 103
2, 95873, Note_on_c, 0, 66, 0
2, 95873, Note_on_c, 0, 68, 103
2, 95939, Control_c, 0, 64, 0
2, 96012, Control_c, 0, 64, 127
2, 96034, Note_on_c, 0, 68, 0
2, 96034, Note_on_c, 0, 32, 0
2, 96034, Note_on_c, 0, 44, 0
2, 96034, Note_on_c, 0, 72, 0
2, 96034, Note_on_c, 0, 73, 121
2, 96034, Note_on_c, 0, 61, 103
2, 96035, Note_on_c, 0, 49, 103
2, 96035, Note_on_c, 0, 37, 103
2, 96193, Note_on_c, 0, 61, 0
2, 96193, Note_on_c, 0, 64, 103
2, 96353, Note_on_c, 0, 64, 0
2, 96353, Note_on_c, 0, 68, 103
2, 96514, Note_on_c, 0, 68, 0
2, 96514, Note_on_c, 0, 61, 103
2, 96673, Note_on_c, 0, 61, 0
2, 96673, Note_on_c, 0, 64, 103
2, 96833, Note_on_c, 0, 64, 0
2, 96833, Note_on_c, 0, 68, 103
2, 96994, Note_on_c, 0, 68, 0
2, 96994, Note_on_c, 0, 61, 103
2, 97003, Control_c, 0, 64, 0
2, 97153, Note_on_c, 0, 61, 0
2, 97153, Note_on_c, 0, 65, 103
2, 97314, Note_on_c, 0, 65, 0
2, 97314, Note_on_c, 0, 68, 103
2, 97474, Note_on_c, 0, 68, 0
2, 97474, Note_on_c, 0, 73, 0
2, 97474, Note_on_c, 0, 73, 121
2, 97474, Note_on_c, 0, 61, 103
2, 97633, Note_on_c, 0, 61, 0
2, 97633, Note_on_c, 0, 65, 103
2, 97794, Note_on_c, 0, 65, 0
2, 97794, Note_on_c, 0, 68, 103
2, 97949, Control_c, 0, 64, 127
2, 97954, Note_on_c, 0, 68, 0
2, 97954, Note_on_c, 0, 73, 0
2, 97954, Note_on_c, 0, 74, 121
2, 97954, Note_on_c, 0, 61, 103
2, 98113, Note_on_c, 0, 61, 0
2, 98113, Note_on_c, 0, 66, 103
2, 98274, Note_on_c, 0, 66, 0
2, 98274, Note_on_c, 0, 69, 103
2, 98349, Control_c, 0, 64, 0
2, 98419, Control_c, 0, 64, 127
2, 98434, Note_on_c, 0, 69, 0
2, 98434, Note_on_c, 0, 37, 0
2, 98434, Note_on_c, 0, 49, 0
2, 98434, Note_on_c, 0, 42, 119
2, 98434, Note_on_c, 0, 54, 114
2, 98434, Note_on_c, 0, 61, 103
2, 98593, Note_on_c, 0, 61, 0
2, 98593, Note_on_c, 0, 66, 103
2, 98754, Note_on_c, 0, 66, 0
2, 98754, Note_on_c, 0, 69, 103
2, 98824, Control_c, 0, 64, 0
2, 98892, Control_c, 0, 64, 127
2, 98913, Note_on_c, 0, 69, 0
2, 98913, Note_on_c, 0, 54, 0
2, 98913, Note_on_c, 0, 42, 0
2, 98913, Note_on_c, 0, 61, 103
2, 98914, Note_on_c, 0, 57, 114
2, 98914, Note_on_c, 0, 45, 103
2, 99073, Note_on_c, 0, 61, 0
2, 99073, Note_on_c, 0, 66, 103
2, 99234, Note_on_c, 0, 66, 0
2, 99234, Note_on_c, 0, 69, 103
2, 99298, Control_c, 0, 64, 0
2, 99393, Note_on_c, 0, 69, 0
2, 99393, Note_on_c, 0, 74, 0
2, 99393, Note_on_c, 0, 57, 0
2, 99393, Note_on_c, 0, 45, 0
2, 99393, Note_on_c, 0, 72, 121
2, 99394, Note_on_c, 0, 61, 103
2, 99394, Note_on_c, 0, 54, 103
2, 99395, Note_on_c, 0, 42, 103
2, 99553, Note_on_c, 0, 61, 0
2, 99553, Note_on_c, 0, 66, 103
2, 99714, Note_on_c, 0, 66, 0
2, 99714, Note_on_c, 0, 69, 103
2, 99873, Note_on_c, 0, 69, 0
2, 99873, Note_on_c, 0, 72, 0
2, 99873, Note_on_c, 0, 54, 0
2, 99873, Note_on_c, 0, 42, 0
2, 99873, Note_on_c, 0, 73, 121
2, 99874, Note_on_c, 0, 37, 119
2, 99874, Note_on_c, 0, 61, 103
2, 99874, Note_on_c, 0, 49, 103
2, 99877, Control_c, 0, 64, 127
2, 100034, Note_on_c, 0, 61, 0
2, 100034, Note_on_c, 0, 65, 103
2, 100194, Note_on_c, 0, 65, 0
2, 100194, Note_on_c, 0, 68, 103
2, 100353, Note_on_c, 0, 68, 0
2, 100353, Note_on_c, 0, 61, 103
2, 100514, Note_on_c, 0, 61, 0
2, 100514, Note_on_c, 0, 65, 103
2, 100674, Note_on_c, 0, 65, 0
2, 100674, Note_on_c, 0, 68, 103
2, 100833, Note_on_c, 0, 68, 0
2, 100833, Note_on_c, 0, 61, 103
2, 100994, Note_on_c, 0, 61, 0
2, 100994, Note_on_c, 0, 65, 103
2, 101154, Note_on_c, 0, 65, 0
2, 101154, Note_on_c, 0, 68, 103
2, 101313, Note_on_c, 0, 68, 0
2, 101313, Note_on_c, 0, 73, 0
2, 101313, Note_on_c, 0, 73, 121
2, 101313, Note_on_c, 0, 61, 103
2, 101474, Note_on_c, 0, 61, 0
2, 101474, Note_on_c, 0, 65, 103
2, 101633, Note_on_c, 0, 65, 0
2, 101633, Note_on_c, 0, 68, 103
2, 101692, Control_c, 0, 64, 0
2, 101770, Control_c, 0, 64, 127
2, 101793, Note_on_c, 0, 68, 0
2, 101793, Note_on_c, 0, 73, 0
2, 101793, Note_on_c, 0, 74, 121
2, 101793, Note_on_c, 0, 61, 103
2, 101954, Note_on_c, 0, 61, 0
2, 101954, Note_on_c, 0, 66, 103
2, 102113, Note_on_c, 0, 66, 0
2, 102113, Note_on_c, 0, 69, 103
2, 102193, Control_c, 0, 64, 0
2, 102268, Control_c, 0, 64, 127
2, 102273, Note_on_c, 0, 69, 0
2, 102273, Note_on_c, 0, 49, 0
2, 102273, Note_on_c, 0, 37, 0
2, 102273, Note_on_c, 0, 54, 114
2, 102273, Note_on_c, 0, 61, 103
2, 102274, Note_on_c, 0, 42, 119
2, 102434, Note_on_c, 0, 61, 0
2, 102434, Note_on_c, 0, 66, 103
2, 102593, Note_on_c, 0, 66, 0
2, 102593, Note_on_c, 0, 69, 103
2, 102643, Control_c, 0, 64, 0
2, 102721, Control_c, 0, 64, 127
2, 102754, Note_on_c, 0, 69, 0
2, 102754, Note_on_c, 0, 42, 0
2, 102754, Note_on_c, 0, 54, 0
2, 102754, Note_on_c, 0, 57, 114
2, 102754, Note_on_c, 0, 61, 103
2, 102755, Note_on_c, 0, 45, 116
2, 102914, Note_on_c, 0, 61, 0
2, 102914, Note_on_c, 0, 66, 103
2, 103073, Note_on_c, 0, 66, 0
2, 103073, Note_on_c, 0, 69, 103
2, 103141, Control_c, 0, 64, 0
2, 103217, Control_c, 0, 64, 127
2, 103234, Note_on_c, 0, 69, 0
2, 103234, Note_on_c, 0, 74, 0
2, 103234, Note_on_c, 0, 57, 0
2, 103234, Note_on_c, 0, 45, 0
2, 103234, Note_on_c, 0, 72, 121
2, 103234, Note_on_c, 0, 61, 103
2, 103235, Note_on_c, 0, 54, 103
2, 103235, Note_on_c, 0, 42, 103
2, 103394, Note_on_c, 0, 61, 0
2, 103394, Note_on_c, 0, 66, 103
2, 103553, Note_on_c, 0, 66, 0
2, 103553, Note_on_c, 0, 69, 103
2, 103632, Control_c, 0, 64, 0
2, 103714, Note_on_c, 0, 69, 0
2, 103714, Note_on_c, 0, 72, 0
2, 103714, Note_on_c, 0, 54, 0
2, 103714, Note_on_c, 0, 42, 0
2, 103714, Note_on_c, 0, 73, 121
2, 103714, Note_on_c, 0, 61, 103
2, 103715, Note_on_c, 0, 37, 117
2, 103715, Note_on_c, 0, 49, 103
2, 103873, Note_on_c, 0, 61, 0
2, 103873, Note_on_c, 0, 65, 103
2, 104033, Note_on_c, 0, 65, 0
2, 104033, Note_on_c, 0, 68, 103
2, 104183, Control_c, 0, 64, 127
2, 104194, Note_on_c, 0, 68, 0
2, 104194, Note_on_c, 0, 61, 103
2, 104353, Note_on_c, 0, 61, 0
2, 104353, Note_on_c, 0, 65, 103
2, 104513, Note_on_c, 0, 65, 0
2, 104513, Note_on_c, 0, 68, 103
2, 104580, Control_c, 0, 64, 0
2, 104659, Control_c, 0, 64, 127
2, 104674, Note_on_c, 0, 68, 0
2, 104674, Note_on_c, 0, 49, 0
2, 104674, Note_on_c, 0, 37, 0
2, 104674, Note_on_c, 0, 73, 0
2, 104674, Note_on_c, 0, 73, 121
2, 104674, Note_on_c, 0, 61, 103
2, 104674, Note_on_c, 0, 42, 103
2, 104675, Note_on_c, 0, 30, 103
2, 104833, Note_on_c, 0, 61, 0
2, 104833, Note_on_c, 0, 66, 103
2, 104994, Note_on_c, 0, 66, 0
2, 104994, Note_on_c, 0, 69, 103
2, 105075, Control_c, 0, 64, 0
2, 105146, Control_c, 0, 64, 127
2, 105154, Note_on_c, 0, 69, 0
2, 105154, Note_on_c, 0, 61, 103
2, 105313, Note_on_c, 0, 61, 0
2, 105313, Note_on_c, 0, 66, 103
2, 105474, Note_on_c, 0, 66, 0
2, 105474, Note_on_c, 0, 69, 103
2, 105545, Control_c, 0, 64, 0
2, 105631, Control_c, 0, 64, 127
2, 105634, Note_on_c, 0, 69, 0
2, 105634, Note_on_c, 0, 30, 0
2, 105634, Note_on_c, 0, 42, 0
2, 105634, Note_on_c, 0, 73, 0
2, 105634, Note_on_c, 0, 71, 121
2, 105634, Note_on_c, 0, 59, 103
2, 105634, Note_on_c, 0, 51, 103
2, 105635, Note_on_c, 0, 39, 103
2, 105793, Note_on_c, 0, 59, 0
2, 105793, Note_on_c, 0, 66, 103
2, 105954, Note_on_c, 0, 66, 0
2, 105954, Note_on_c, 0, 69, 103
2, 106052, Control_c, 0, 64, 0
2, 106114, Note_on_c, 0, 69, 0
2, 106114, Note_on_c, 0, 59, 103
2, 106124, Control_c, 0, 64, 127
2, 106273, Note_on_c, 0, 59, 0
2, 106273, Note_on_c, 0, 66, 103
2, 106434, Note_on_c, 0, 66, 0
2, 106434, Note_on_c, 0, 69, 103
2, 106507, Control_c, 0, 64, 0
2, 106579, Control_c, 0, 64, 127
2, 106593, Note_on_c, 0, 69, 0
2, 106593, Note_on_c, 0, 59, 103
2, 106753, Note_on_c, 0, 59, 0
2, 106753, Note_on_c, 0, 66, 103
2, 106914, Note_on_c, 0, 66, 0
2, 106914, Note_on_c, 0, 69, 103
2, 107009, Control_c, 0, 64, 0
2, 107073, Note_on_c, 0, 69, 0
2, 107073, Note_on_c, 0, 71, 0
2, 107073, Note_on_c, 0, 51, 0
2, 107073, Note_on_c, 0, 39, 0
2, 107073, Note_on_c, 0, 71, 121
2, 107074, Note_on_c, 0, 59, 103
2, 107074, Note_on_c, 0, 52, 103
2, 107075, Note_on_c, 0, 40, 103
2, 107084, Control_c, 0, 64, 127
2, 107233, Note_on_c, 0, 59, 0
2, 107233, Note_on_c, 0, 64, 103
2, 107394, Note_on_c, 0, 64, 0
2, 107394, Note_on_c, 0, 68, 103
2, 107472, Control_c, 0, 64, 0
2, 107548, Control_c, 0, 64, 127
2, 107553, Note_on_c, 0, 68, 0
2, 107553, Note_on_c, 0, 71, 0
2, 107553, Note_on_c, 0, 52, 0
2, 107553, Note_on_c, 0, 40, 0
2, 107553, Note_on_c, 0, 69, 121
2, 107554, Note_on_c, 0, 57, 103
2, 107554, Note_on_c, 0, 49, 103
2, 107554, Note_on_c, 0, 37, 103
2, 107714, Note_on_c, 0, 57, 0
2, 107714, Note_on_c, 0, 64, 103
2, 107874, Note_on_c, 0, 64, 0
2, 107874, Note_on_c, 0, 68, 103
2, 107959, Control_c, 0, 64, 0
2, 108030, Control_c, 0, 64, 127
2, 108033, Note_on_c, 0, 68, 0
2, 108033, Note_on_c, 0, 69, 0
2, 108033, Note_on_c, 0, 49, 0
2, 108033, Note_on_c, 0, 37, 0
2, 108033, Note_on_c, 0, 69, 121
2, 108034, Note_on_c, 0, 57, 103
2, 108034, Note_on_c, 0, 51, 103
2, 108034, Note_on_c, 0, 39, 103
2, 108194, Note_on_c, 0, 57, 0
2, 108194, Note_on_c, 0, 63, 103
2, 108354, Note_on_c, 0, 63, 0
2, 108354, Note_on_c, 0, 66, 103
2, 108452, Control_c, 0, 64, 0
2, 108513, Note_on_c, 0, 66, 0
2, 108513, Note_on_c, 0, 69, 0
2, 108513, Note_on_c, 0, 51, 0
2, 108513, Note_on_c, 0, 39, 0
2, 108513, Note_on_c, 0, 68, 121
2, 108514, Note_on_c, 0, 56, 103
2, 108514, Note_on_c, 0, 48, 103
2, 108514, Note_on_c, 0, 36, 103
2, 108520, Control_c, 0, 64, 127
2, 108674, Note_on_c, 0, 56, 0
2, 108674, Note_on_c, 0, 63, 103
2, 108834, Note_on_c, 0, 63, 0
2, 108834, Note_on_c, 0, 66, 103
2, 108907, Control_c, 0, 64, 0
2, 108979, Control_c, 0, 64, 127
2, 108993, Note_on_c, 0, 66, 0
2, 108993, Note_on_c, 0, 68, 0
2, 108993, Note_on_c, 0, 48, 0
2, 108993, Note_on_c, 0, 36, 0
2, 108993, Note_on_c, 0, 68, 121
2, 108994, Note_on_c, 0, 56, 103
2, 108994, Note_on_c, 0, 49, 103
2, 108994, Note_on_c, 0, 37, 103
2, 109154, Note_on_c, 0, 56, 0
2, 109154, Note_on_c, 0, 61, 103
2, 109313, Note_on_c, 0, 61, 0
2, 109313, Note_on_c, 0, 64, 103
2, 109381, Control_c, 0, 64, 0
2, 109463, Control_c, 0, 64, 127
2, 109473, Note_on_c, 0, 64, 0
2, 109473, Note_on_c, 0, 68, 0
2, 109473, Note_on_c, 0, 49, 0
2, 109473, Note_on_c, 0, 37, 0
2, 109473, Note_on_c, 0, 66, 121
2, 109473, Note_on_c, 0, 54, 103
2, 109474, Note_on_c, 0, 45, 103
2, 109474, Note_on_c, 0, 33, 103
2, 109634, Note_on_c, 0, 54, 0
2, 109634, Note_on_c, 0, 61, 103
2, 109793, Note_on_c, 0, 61, 0
2, 109793, Note_on_c, 0, 63, 103
2, 109891, Control_c, 0, 64, 0
2, 109953, Note_on_c, 0, 63, 0
2, 109953, Note_on_c, 0, 54, 103
2, 109954, Control_c, 0, 64, 127
2, 110114, Note_on_c, 0, 54, 0
2, 110114, Note_on_c, 0, 61, 103
2, 110273, Note_on_c, 0, 61, 0
2, 110273, Note_on_c, 0, 63, 103
2, 110346, Control_c, 0, 64, 0
2, 110434, Note_on_c, 0, 63, 0
2, 110434, Note_on_c, 0, 33, 0
2, 110434, Note_on_c, 0, 45, 0
2, 110434, Note_on_c, 0, 66, 0
2, 110434, Note_on_c, 0, 68, 121
2, 110434, Note_on_c, 0, 56, 103
2, 110435, Note_on_c, 0, 44, 103
2, 110435, Note_on_c, 0, 32, 103
2, 110594, Note_on_c, 0, 56, 0
2, 110594, Note_on_c, 0, 61, 103
2, 110753, Note_on_c, 0, 61, 0
2, 110753, Note_on_c, 0, 63, 103
2, 110914, Note_on_c, 0, 63, 0
2, 110914, Note_on_c, 0, 68, 0
2, 110914, Note_on_c, 0, 44, 0
2, 110914, Note_on_c, 0, 32, 0
2, 110914, Note_on_c, 0, 69, 121
2, 110914, Note_on_c, 0, 57, 103
2, 110915, Note_on_c, 0, 42, 103
2, 110915, Note_on_c, 0, 30, 103
2, 111074, Note_on_c, 0, 57, 0
2, 111074, Note_on_c, 0, 61, 103
2, 111233, Note_on_c, 0, 61, 0
2, 111233, Note_on_c, 0, 63, 103
2, 111394, Note_on_c, 0, 63, 0
2, 111394, Note_on_c, 0, 69, 0
2, 111394, Note_on_c, 0, 42, 0
2, 111394, Note_on_c, 0, 30, 0
2, 111394, Note_on_c, 0, 68, 121
2, 111394, Note_on_c, 0, 56, 103
2, 111395, Note_on_c, 0, 44, 103
2, 111395, Note_on_c, 0, 32, 103
2, 111554, Note_on_c, 0, 56, 0
2, 111554, Note_on_c, 0, 61, 103
2, 111713, Note_on_c, 0, 61, 0
2, 111713, Note_on_c, 0, 64, 103
2, 111874, Note_on_c, 0, 64, 0
2, 111874, Note_on_c, 0, 56, 103
2, 111878, Control_c, 0, 64, 127
2, 112033, Note_on_c, 0, 56, 0
2, 112033, Note_on_c, 0, 61, 103
2, 112193, Note_on_c, 0, 61, 0
2, 112193, Note_on_c, 0, 64, 103
2, 112240, Control_c, 0, 64, 0
2, 112354, Note_on_c, 0, 64, 0
2, 112354, Note_on_c, 0, 32, 0
2, 112354, Note_on_c, 0, 44, 0
2, 112354, Note_on_c, 0, 68, 0
2, 112354, Note_on_c, 0, 68, 121
2, 112354, Note_on_c, 0, 54, 103
2, 112354, Note_on_c, 0, 44, 103
2, 112355, Note_on_c, 0, 32, 103
2, 112513, Note_on_c, 0, 54, 0
2, 112513, Note_on_c, 0, 60, 103
2, 112673, Note_on_c, 0, 60, 0
2, 112673, Note_on_c, 0, 63, 103
2, 112800, Control_c, 0, 64, 127
2, 112834, Note_on_c, 0, 63, 0
2, 112834, Note_on_c, 0, 54, 103
2, 112993, Note_on_c, 0, 54, 0
2, 112993, Note_on_c, 0, 60, 103
2, 113154, Note_on_c, 0, 60, 0
2, 113154, Note_on_c, 0, 63, 103
2, 113241, Control_c, 0, 64, 0
2, 113305, Control_c, 0, 64, 127
2, 113314, Note_on_c, 0, 63, 0
2, 113314, Note_on_c, 0, 32, 0
2, 113314, Note_on_c, 0, 44, 0
2, 113314, Note_on_c, 0, 68, 0
2, 113314, Note_on_c, 0, 61, 121
2, 113314, Note_on_c, 0, 44, 127
2, 113314, Note_on_c, 0, 52, 103
2, 113315, Note_on_c, 0, 37, 103
2, 113473, Note_on_c, 0, 52, 0
2, 113473, Note_on_c, 0, 56, 103
2, 113634, Note_on_c, 0, 56, 0
2, 113634, Note_on_c, 0, 61, 103
2, 113698, Control_c, 0, 64, 0
2, 113774, Control_c, 0, 64, 127
2, 113794, Note_on_c, 0, 61, 0
2, 113794, Note_on_c, 0, 61, 0
2, 113794, Note_on_c, 0, 56, 103
2, 113953, Note_on_c, 0, 56, 0
2, 113953, Note_on_c, 0, 61, 103
2, 114114, Note_on_c, 0, 61, 0
2, 114114, Note_on_c, 0, 64, 103
2, 114212, Control_c, 0, 64, 0
2, 114269, Control_c, 0, 64, 127
2, 114274, Note_on_c, 0, 64, 0
2, 114274, Note_on_c, 0, 56, 103
2, 114433, Note_on_c, 0, 56, 0
2, 114433, Note_on_c, 0, 61, 103
2, 114594, Note_on_c, 0, 61, 0
2, 114594, Note_on_c, 0, 64, 103
2, 114659, Control_c, 0, 64, 0
2, 114732, Control_c, 0, 64, 127
2, 114753, Note_on_c, 0, 64, 0
2, 114753, Note_on_c, 0, 44, 0
2, 114753, Note_on_c, 0, 56, 103
2, 114754, Note_on_c, 0, 44, 127
2, 114913, Note_on_c, 0, 56, 0
2, 114913, Note_on_c, 0, 61, 103
2, 115074, Note_on_c, 0, 61, 0
2, 115074, Note_on_c, 0, 64, 103
2, 115114, Note_on_c, 0, 44, 0
2, 115114, Note_on_c, 0, 44, 127
2, 115131, Control_c, 0, 64, 0
2, 115205, Control_c, 0, 64, 127
2, 115233, Note_on_c, 0, 44, 0
2, 115233, Note_on_c, 0, 64, 0
2, 115233, Note_on_c, 0, 37, 0
2, 115233, Note_on_c, 0, 56, 103
2, 115234, Note_on_c, 0, 44, 127
2, 115234, Note_on_c, 0, 36, 103
2, 115393, Note_on_c, 0, 56, 0
2, 115393, Note_on_c, 0, 63, 103
2, 115554, Note_on_c, 0, 63, 0
2, 115554, Note_on_c, 0, 66, 103
2, 115641, Control_c, 0, 64, 0
2, 115706, Control_c, 0, 64, 127
2, 115713, Note_on_c, 0, 66, 0
2, 115713, Note_on_c, 0, 56, 103
2, 115874, Note_on_c, 0, 56, 0
2, 115874, Note_on_c, 0, 63, 103
2, 116034, Note_on_c, 0, 63, 0
2, 116034, Note_on_c, 0, 66, 103
2, 116112, Control_c, 0, 64, 0
2, 116187, Control_c, 0, 64, 127
2, 116193, Note_on_c, 0, 66, 0
2, 116193, Note_on_c, 0, 56, 103
2, 116354, Note_on_c, 0, 56, 0
2, 116354, Note_on_c, 0, 63, 103
2, 116514, Note_on_c, 0, 63, 0
2, 116514, Note_on_c, 0, 66, 103
2, 116599, Control_c, 0, 64, 0
2, 116671, Control_c, 0, 64, 127
2, 116673, Note_on_c, 0, 66, 0
2, 116673, Note_on_c, 0, 44, 0
2, 116673, Note_on_c, 0, 56, 103
2, 116674, Note_on_c, 0, 44, 127
2, 116834, Note_on_c, 0, 56, 0
2, 116834, Note_on_c, 0, 63, 103
2, 116993, Note_on_c, 0, 63, 0
2, 116993, Note_on_c, 0, 66, 103
2, 117033, Note_on_c, 0, 44, 0
2, 117033, Note_on_c, 0, 44, 127
2, 117051, Control_c, 0, 64, 0
2, 117131, Control_c, 0, 64, 127
2, 117153, Note_on_c, 0, 44, 0
2, 117153, Note_on_c, 0, 66, 0
2, 117153, Note_on_c, 0, 36, 0
2, 117153, Note_on_c, 0, 56, 103
2, 117154, Note_on_c, 0, 44, 127
2, 117154, Note_on_c, 0, 37, 103
2, 117314, Note_on_c, 0, 56, 0
2, 117314, Note_on_c, 0, 64, 103
2, 117473, Note_on_c, 0, 64, 0
2, 117473, Note_on_c, 0, 61, 103
2, 117548, Control_c, 0, 64, 0
2, 117620, Control_c, 0, 64, 127
2, 117633, Note_on_c, 0, 61, 0
2, 117633, Note_on_c, 0, 68, 103
2, 117794, Note_on_c, 0, 68, 0
2, 117794, Note_on_c, 0, 64, 103
2, 117953, Note_on_c, 0, 64, 0
2, 117953, Note_on_c, 0, 73, 103
2, 118023, Control_c, 0, 64, 0
2, 118100, Control_c, 0, 64, 127
2, 118113, Note_on_c, 0, 73, 0
2, 118113, Note_on_c, 0, 68, 103
2, 118274, Note_on_c, 0, 68, 0
2, 118274, Note_on_c, 0, 76, 103
2, 118433, Note_on_c, 0, 76, 0
2, 118433, Note_on_c, 0, 73, 103
2, 118496, Control_c, 0, 64, 0
2, 118585, Control_c, 0, 64, 127
2, 118594, Note_on_c, 0, 73, 0
2, 118594, Note_on_c, 0, 44, 0
2, 118594, Note_on_c, 0, 44, 127
2, 118594, Note_on_c, 0, 80, 103
2, 118754, Note_on_c, 0, 80, 0
2, 118754, Note_on_c, 0, 76, 103
2, 118913, Note_on_c, 0, 76, 0
2, 118913, Note_on_c, 0, 73, 103
2, 118953, Note_on_c, 0, 44, 0
2, 118953, Note_on_c, 0, 44, 127
2, 118987, Control_c, 0, 64, 0
2, 119065, Control_c, 0, 64, 127
2, 119074, Note_on_c, 0, 44, 0
2, 119074, Note_on_c, 0, 73, 0
2, 119074, Note_on_c, 0, 37, 0
2, 119074, Note_on_c, 0, 44, 127
2, 119074, Note_on_c, 0, 72, 103
2, 119075, Note_on_c, 0, 32, 103
2, 119234, Note_on_c, 0, 72, 0
2, 119234, Note_on_c, 0, 75, 103
2, 119393, Note_on_c, 0, 75, 0
2, 119393, Note_on_c, 0, 69, 103
2, 119500, Control_c, 0, 64, 0
2, 119554, Note_on_c, 0, 69, 0
2, 119554, Note_on_c, 0, 72, 103
2, 119568, Control_c, 0, 64, 127
2, 119713, Note_on_c, 0, 72, 0
2, 119713, Note_on_c, 0, 66, 103
2, 119873, Note_on_c, 0, 66, 0
2, 119873, Note_on_c, 0, 69, 103
2, 119963, Control_c, 0, 64, 0
2, 120034, Note_on_c, 0, 69, 0
2, 120034, Note_on_c, 0, 63, 103
2, 120041, Control_c, 0, 64, 127
2, 120193, Note_on_c, 0, 63, 0
2, 120193, Note_on_c, 0, 66, 103
2, 120353, Note_on_c, 0, 66, 0
2, 120353, Note_on_c, 0, 57, 103
2, 120439, Control_c, 0, 64, 0
2, 120507, Note_on_c, 0, 44, 0
2, 120507, Note_on_c, 0, 60, 121
2, 120513, Control_c, 0, 64, 127
2, 120514, Note_on_c, 0, 44, 126
2, 120673, Note_on_c, 0, 57, 0
2, 120673, Note_on_c, 0, 56, 103
2, 120834, Note_on_c, 0, 56, 0
2, 120834, Note_on_c, 0, 54, 103
2, 120874, Note_on_c, 0, 44, 0
2, 120874, Note_on_c, 0, 44, 126
2, 120889, Control_c, 0, 64, 0
2, 120968, Control_c, 0, 64, 127
2, 120989, Note_on_c, 0, 44, 0
2, 120989, Note_on_c, 0, 54, 0
2, 120989, Note_on_c, 0, 60, 0
2, 120989, Note_on_c, 0, 32, 0
2, 120989, Note_on_c, 0, 52, 103
2, 120994, Note_on_c, 0, 44, 126
2, 120994, Note_on_c, 0, 61, 103
2, 120994, Note_on_c, 0, 37, 103
2, 121153, Note_on_c, 0, 61, 0
2, 121153, Note_on_c, 0, 52, 0
2, 121153, Note_on_c, 0, 64, 103
2, 121314, Note_on_c, 0, 64, 0
2, 121314, Note_on_c, 0, 61, 103
2, 121366, Control_c, 0, 64, 0
2, 121447, Control_c, 0, 64, 127
2, 121474, Note_on_c, 0, 61, 0
2, 121474, Note_on_c, 0, 68, 103
2, 121633, Note_on_c, 0, 68, 0
2, 121633, Note_on_c, 0, 64, 103
2, 121794, Note_on_c, 0, 64, 0
2, 121794, Note_on_c, 0, 73, 103
2, 121845, Control_c, 0, 64, 0
2, 121936, Control_c, 0, 64, 127
2, 121954, Note_on_c, 0, 73, 0
2, 121954, Note_on_c, 0, 68, 103
2, 122113, Note_on_c, 0, 68, 0
2, 122113, Note_on_c, 0, 76, 103
2, 122274, Note_on_c, 0, 76, 0
2, 122274, Note_on_c, 0, 73, 103
2, 122373, Control_c, 0, 64, 0
2, 122433, Note_on_c, 0, 73, 0
2, 122433, Note_on_c, 0, 44, 0
2, 122433, Note_on_c, 0, 80, 103
2, 122434, Note_on_c, 0, 44, 126
2, 122460, Control_c, 0, 64, 127
2, 122593, Note_on_c, 0, 80, 0
2, 122593, Note_on_c, 0, 76, 103
2, 122754, Note_on_c, 0, 76, 0
2, 122754, Note_on_c, 0, 73, 103
2, 122794, Note_on_c, 0, 44, 0
2, 122794, Note_on_c, 0, 44, 126
2, 122820, Control_c, 0, 64, 0
2, 122901, Control_c, 0, 64, 127
2, 122913, Note_on_c, 0, 44, 0
2, 122913, Note_on_c, 0, 73, 0
2, 122913, Note_on_c, 0, 37, 0
2, 122913, Note_on_c, 0, 72, 103
2, 122914, Note_on_c, 0, 44, 126
2, 122914, Note_on_c, 0, 32, 103
2, 123073, Note_on_c, 0, 72, 0
2, 123073, Note_on_c, 0, 75, 103
2, 123234, Note_on_c, 0, 75, 0
2, 123234, Note_on_c, 0, 69, 103
2, 123289, Control_c, 0, 64, 0
2, 123376, Control_c, 0, 64, 127
2, 123393, Note_on_c, 0, 69, 0
2, 123393, Note_on_c, 0, 72, 103
2, 123554, Note_on_c, 0, 72, 0
2, 123554, Note_on_c, 0, 66, 103
2, 123714, Note_on_c, 0, 66, 0
2, 123714, Note_on_c, 0, 69, 103
2, 123772, Control_c, 0, 64, 0
2, 123854, Control_c, 0, 64, 127
2, 123873, Note_on_c, 0, 69, 0
2, 123873, Note_on_c, 0, 63, 103
2, 124034, Note_on_c, 0, 63, 0
2, 124034, Note_on_c, 0, 66, 103
2, 124194, Note_on_c, 0, 66, 0
2, 124194, Note_on_c, 0, 57, 103
2, 124219, Control_c, 0, 64, 0
2, 124310, Control_c, 0, 64, 127
2, 124347, Note_on_c, 0, 44, 0
2, 124347, Note_on_c, 0, 60, 121
2, 124353, Note_on_c, 0, 44, 126
2, 124514, Note_on_c, 0, 57, 0
2, 124514, Note_on_c, 0, 56, 103
2, 124674, Note_on_c, 0, 56, 0
2, 124674, Note_on_c, 0, 54, 103
2, 124713, Note_on_c, 0, 44, 0
2, 124713, Note_on_c, 0, 44, 126
2, 124722, Control_c, 0, 64, 0
2, 124802, Control_c, 0, 64, 127
2, 124828, Note_on_c, 0, 44, 0
2, 124828, Note_on_c, 0, 54, 0
2, 124828, Note_on_c, 0, 60, 0
2, 124828, Note_on_c, 0, 32, 0
2, 124828, Note_on_c, 0, 52, 103
2, 124833, Note_on_c, 0, 61, 103
2, 124834, Note_on_c, 0, 44, 126
2, 124834, Note_on_c, 0, 37, 103
2, 124994, Note_on_c, 0, 61, 0
2, 124994, Note_on_c, 0, 52, 0
2, 124994, Note_on_c, 0, 56, 103
2, 125153, Note_on_c, 0, 56, 0
2, 125153, Note_on_c, 0, 61, 103
2, 125214, Control_c, 0, 64, 0
2, 125293, Control_c, 0, 64, 127
2, 125313, Note_on_c, 0, 61, 0
2, 125313, Note_on_c, 0, 64, 103
2, 125474, Note_on_c, 0, 64, 0
2, 125474, Note_on_c, 0, 61, 103
2, 125633, Note_on_c, 0, 61, 0
2, 125633, Note_on_c, 0, 56, 103
2, 125685, Control_c, 0, 64, 0
2, 125767, Control_c, 0, 64, 127
2, 125793, Note_on_c, 0, 56, 0
2, 125793, Note_on_c, 0, 44, 0
2, 125793, Note_on_c, 0, 49, 114
2, 125947, Note_on_c, 0, 52, 103
2, 126113, Note_on_c, 0, 52, 0
2, 126113, Note_on_c, 0, 56, 103
2, 126161, Control_c, 0, 64, 0
2, 126243, Control_c, 0, 64, 127
2, 126274, Note_on_c, 0, 56, 0
2, 126274, Note_on_c, 0, 61, 103
2, 126434, Note_on_c, 0, 61, 0
2, 126434, Note_on_c, 0, 56, 103
2, 126593, Note_on_c, 0, 56, 0
2, 126593, Note_on_c, 0, 52, 103
2, 126635, Control_c, 0, 64, 0
2, 126722, Control_c, 0, 64, 127
2, 126754, Note_on_c, 0, 52, 0
2, 126754, Note_on_c, 0, 49, 0
2, 126754, Note_on_c, 0, 44, 103
2, 126907, Note_on_c, 0, 49, 103
2, 127073, Note_on_c, 0, 49, 0
2, 127073, Note_on_c, 0, 52, 103
2, 127130, Control_c, 0, 64, 0
2, 127214, Control_c, 0, 64, 127
2, 127234, Note_on_c, 0, 52, 0
2, 127234, Note_on_c, 0, 56, 103
2, 127394, Note_on_c, 0, 56, 0
2, 127394, Note_on_c, 0, 52, 103
2, 127553, Note_on_c, 0, 52, 0
2, 127553, Note_on_c, 0, 49, 103
2, 127643, Control_c, 0, 64, 0
2, 127714, Note_on_c, 0, 49, 0
2, 127714, Note_on_c, 0, 44, 0
2, 127714, Note_on_c, 0, 37, 0
2, 127714, Note_on_c, 0, 44, 103
2, 127720, Control_c, 0, 64, 127
2, 127873, Note_on_c, 0, 44, 0
2, 127873, Note_on_c, 0, 49, 103
2, 128033, Note_on_c, 0, 49, 0
2, 128033, Note_on_c, 0, 44, 103
2, 128104, Control_c, 0, 64, 0
2, 128188, Control_c, 0, 64, 127
2, 128194, Note_on_c, 0, 44, 0
2, 128194, Note_on_c, 0, 40, 103
2, 128353, Note_on_c, 0, 40, 0
2, 128353, Note_on_c, 0, 44, 103
2, 128513, Note_on_c, 0, 44, 0
2, 128513, Note_on_c, 0, 40, 103
2, 128554, Control_c, 0, 64, 0
2, 128668, Note_on_c, 0, 40, 0
2, 128668, Note_on_c, 0, 37, 103
2, 129627, Note_on_c, 0, 61, 103
2, 129627, Note_on_c, 0, 56, 103
2, 129628, Note_on_c, 0, 52, 103
2, 129628, Note_on_c, 0, 44, 103
2, 129629, Note_on_c, 0, 37, 0
2, 129629, Note_on_c, 0, 49, 103
2, 129634, Note_on_c, 0, 37, 103
2, 130593, Note_on_c, 0, 37, 0
2, 130593, Note_on_c, 0, 56, 0
2, 130593, Note_on_c, 0, 44, 0
2, 130593, Note_on_c, 0, 61, 0
2, 130593, Note_on_c, 0, 49, 0
2, 130593, Note_on_c, 0, 52, 0
2, 130593, Note_on_c, 0, 61, 103
2, 130594, Note_on_c, 0, 56, 103
2, 130594, Note_on_c, 0, 52, 103
2, 130595, Note_on_c, 0, 44, 103
2, 130595, Note_on_c, 0, 37, 103
2, 130595, Note_on_c, 0, 49, 103
2, 132507, Note_on_c, 0, 61, 0
2, 132508, Note_on_c, 0, 44, 0
2, 132508, Note_on_c, 0, 56, 0
2, 132508, Note_on_c, 0, 52, 0
2, 132509, Note_on_c, 0, 49, 0
2, 132509, Note_on_c, 0, 37, 0
2, 132509, End_track
0, 0, End_of_file
